<?xml version="1.0" encoding="UTF-8" standalone="no"?>
<!-- Created with Inkscape (http://www.inkscape.org/) -->

<svg
   width="210mm"
   height="297mm"
   viewBox="0 0 210 297"
   version="1.1"
   id="svg1"
   xml:space="preserve"
   inkscape:version="1.3.2 (091e20e, 2023-11-25)"
   sodipodi:docname="Poster.svg"
   xmlns:inkscape="http://www.inkscape.org/namespaces/inkscape"
   xmlns:sodipodi="http://sodipodi.sourceforge.net/DTD/sodipodi-0.dtd"
   xmlns="http://www.w3.org/2000/svg"
   xmlns:svg="http://www.w3.org/2000/svg"><sodipodi:namedview
     id="namedview1"
     pagecolor="#ffffff"
     bordercolor="#000000"
     borderopacity="0.25"
     inkscape:showpageshadow="2"
     inkscape:pageopacity="0.0"
     inkscape:pagecheckerboard="0"
     inkscape:deskcolor="#d1d1d1"
     inkscape:document-units="mm"
     inkscape:zoom="0.64601195"
     inkscape:cx="199.68671"
     inkscape:cy="632.34124"
     inkscape:window-width="1680"
     inkscape:window-height="985"
     inkscape:window-x="0"
     inkscape:window-y="0"
     inkscape:window-maximized="1"
     inkscape:current-layer="layer1" /><defs
     id="defs1"><linearGradient
       id="a"
       gradientTransform="scale(1.0005038,0.99949641)"
       x1="96.83421"
       y1="149.62235"
       x2="128.59821"
       y2="149.62235"
       gradientUnits="userSpaceOnUse"><stop
         offset="0"
         stop-color="#dbdbdb"
         id="stop1" /></linearGradient></defs><g
     inkscape:label="Layer 1"
     inkscape:groupmode="layer"
     id="layer1"><rect
       style="fill:#1c1c1c;fill-opacity:1;stroke-width:0.413601"
       id="rect4"
       width="200"
       height="287"
       x="5"
       y="5" /><path
       id="path10"
       style="display:inline;fill:none;fill-opacity:1;stroke:#dbdbdb;stroke-width:0.700001;stroke-dasharray:none;stroke-opacity:1"
       d="m 238.19461,231.85192 a 16.222691,16.222691 0 0 0 -19.87597,11.47119 16.222691,16.222691 0 0 0 -0.46687,4.60821 l -26.13278,15.07721 a 16.222691,16.222691 0 0 0 -4.35459,-1.88892 l 6.8e-4,-0.003 a 16.222691,16.222691 0 0 0 -19.87862,11.47101 16.292516,16.292516 0 0 0 -0.49769,5.13392 l 9.24656,-5.05002 a 4.9273224,4.9273224 0 0 1 6.68377,1.96215 l 2.14764,3.93296 a 4.9273224,4.9273224 0 0 1 -1.96155,6.68392 l -9.03755,4.93491 a 16.292516,16.292516 0 0 0 4.88756,2.27963 16.222691,16.222691 0 0 0 19.87729,-11.46816 16.222691,16.222691 0 0 0 0.52139,-5.11846 l 25.78127,-14.87404 a 16.222691,16.222691 0 0 0 4.65275,2.19362 16.222691,16.222691 0 0 0 19.87727,-11.466 16.292516,16.292516 0 0 0 0.52406,-5.09851 l -10.06489,5.49557 a 4.9273224,4.9273224 0 0 1 -6.68389,-1.96165 l -2.14831,-3.93049 a 4.9273224,4.9273224 0 0 1 1.96223,-6.68642 l 9.90959,-5.40934 a 16.292516,16.292516 0 0 0 -4.96686,-2.28913 z" /><path
       style="font-weight:800;font-size:16.9333px;line-height:1;font-family:'Open Sans';-inkscape-font-specification:'Open Sans Ultra-Bold';text-align:center;text-anchor:middle;fill:#ffdd00;stroke-width:0.155;fill-opacity:1"
       d="m 18.733592,221.91665 v 4.39869 h -3.265944 v -12.08813 h 3.960474 q 4.927855,0 4.927855,3.57187 0,2.10012 -2.050517,3.24941 l 3.522259,5.26685 H 22.12356 l -2.563146,-4.39869 z m 0,-2.45566 h 0.611848 q 1.71152,0 1.71152,-1.51308 0,-1.2485 -1.678447,-1.2485 h -0.644921 z m 8.1938,6.85435 v -12.08813 h 3.28248 v 12.08813 z m 11.277843,-9.58286 q -1.165818,0 -1.819007,0.95911 -0.653188,0.95085 -0.653188,2.62929 0,3.48919 2.654096,3.48919 0.802017,0 1.554424,-0.22324 0.752407,-0.22324 1.513083,-0.53744 v 2.76159 q -1.513083,0.66972 -3.42304,0.66972 -2.736779,0 -4.200252,-1.58749 -1.455206,-1.5875 -1.455206,-4.58886 0,-1.87689 0.702798,-3.29902 0.711067,-1.42213 2.033981,-2.18281 1.331182,-0.76894 3.125384,-0.76894 1.959567,0 3.745501,0.85162 l -1.000454,2.57142 q -0.669725,-0.31419 -1.339451,-0.52917 -0.669725,-0.21497 -1.438669,-0.21497 z m 15.965917,9.58286 h -3.28248 v -4.92786 h -3.79511 v 4.92786 h -3.28248 v -12.08813 h 3.28248 v 4.48137 h 3.79511 v -4.48137 h 3.28248 z m 2.612758,0 v -12.08813 h 3.265944 v 9.45057 h 4.655004 v 2.63756 z m 17.272296,0 -0.595312,-2.26549 h -3.927401 l -0.611848,2.26549 h -3.588404 l 3.943938,-12.13774 h 4.357348 l 3.993547,12.13774 z m -1.273305,-4.94439 -0.520898,-1.98437 q -0.1819,-0.66146 -0.446483,-1.71152 -0.256315,-1.05007 -0.338997,-1.50482 -0.07441,0.42168 -0.297655,1.38906 -0.214974,0.96738 -0.967381,3.81165 z m 17.660904,4.94439 h -4.282934 l -4.415226,-8.51626 h -0.07441 q 0.157096,2.00917 0.157096,3.06751 v 5.44875 h -2.893874 v -12.08813 h 4.266398 l 4.398689,8.40051 h 0.04961 q -0.115755,-1.82728 -0.115755,-2.93522 v -5.46529 h 2.910411 z m 12.873605,-6.30038 q 0,3.02617 -1.67018,4.66327 -1.661906,1.63711 -4.679804,1.63711 h -3.910865 v -12.08813 h 4.183716 q 2.910413,0 4.489643,1.48828 1.58749,1.48828 1.58749,4.29947 z m -3.389964,0.11575 q 0,-1.66191 -0.661457,-2.46392 -0.653189,-0.80202 -1.992639,-0.80202 h -0.950845 v 6.77167 h 0.727603 q 1.488278,0 2.182808,-0.8599 0.69453,-0.86816 0.69453,-2.64583 z m 13.220874,1.78594 v 4.39869 h -3.26595 v -12.08813 h 3.96048 q 4.92785,0 4.92785,3.57187 0,2.10012 -2.05051,3.24941 l 3.52226,5.26685 h -3.70416 l -2.56315,-4.39869 z m 0,-2.45566 h 0.61185 q 1.71152,0 1.71152,-1.51308 0,-1.2485 -1.67845,-1.2485 h -0.64492 z m 19.50471,0.79375 q 0,3.05097 -1.49655,4.63847 -1.49654,1.58749 -4.38215,1.58749 -2.84427,0 -4.36562,-1.59576 -1.51308,-1.59577 -1.51308,-4.64674 0,-3.0179 1.50482,-4.60539 1.51308,-1.59577 4.39042,-1.59577 2.8856,0 4.37388,1.57923 1.48828,1.57923 1.48828,4.63847 z m -8.31782,0 q 0,3.50572 2.43912,3.50572 1.24023,0 1.83554,-0.85163 0.60358,-0.85162 0.60358,-2.65409 0,-1.81074 -0.61184,-2.67063 -0.60358,-0.86817 -1.81074,-0.86817 -2.45566,0 -2.45566,3.5388 z m 10.50063,-6.02753 h 4.21679 q 2.46393,0 3.65455,0.73587 1.19889,0.7276 1.19889,2.27376 0,1.01699 -0.5209,1.73633 -0.52089,0.71933 -1.37252,0.92603 v 0.0827 q 1.12448,0.29765 1.62884,0.99218 0.50436,0.69453 0.50436,1.80247 0,1.64538 -1.24023,2.59622 -1.23197,0.94258 -3.36516,0.94258 h -4.70462 z m 3.26595,4.63847 h 0.98391 q 0.7028,0 1.08314,-0.28939 0.38861,-0.28939 0.38861,-0.85989 0,-1.01699 -1.53789,-1.01699 h -0.91777 z m 0,2.38951 v 2.53834 h 1.14928 q 1.52962,0 1.52962,-1.28984 0,-0.60358 -0.41341,-0.92604 -0.40515,-0.32246 -1.18236,-0.32246 z m 19.45509,-1.00045 q 0,3.05097 -1.49654,4.63847 -1.49655,1.58749 -4.38216,1.58749 -2.84426,0 -4.36561,-1.59576 -1.51308,-1.59577 -1.51308,-4.64674 0,-3.0179 1.50481,-4.60539 1.51308,-1.59577 4.39042,-1.59577 2.88561,0 4.37389,1.57923 1.48827,1.57923 1.48827,4.63847 z m -8.31782,0 q 0,3.50572 2.43912,3.50572 1.24024,0 1.83555,-0.85163 0.60358,-0.85162 0.60358,-2.65409 0,-1.81074 -0.61185,-2.67063 -0.60358,-0.86817 -1.81074,-0.86817 -2.45566,0 -2.45566,3.5388 z m 15.83363,6.0606 h -3.26594 v -9.4175 H 158.855 v -2.67063 h 9.16118 v 2.67063 h -2.94349 z m 4.67154,0 v -12.08813 h 3.28248 v 12.08813 z m 11.27784,-9.58286 q -1.16582,0 -1.81901,0.95911 -0.65319,0.95085 -0.65319,2.62929 0,3.48919 2.6541,3.48919 0.80202,0 1.55442,-0.22324 0.75241,-0.22324 1.51309,-0.53744 v 2.76159 q -1.51309,0.66972 -3.42304,0.66972 -2.73678,0 -4.20026,-1.58749 -1.4552,-1.5875 -1.4552,-4.58886 0,-1.87689 0.7028,-3.29902 0.71106,-1.42213 2.03398,-2.18281 1.33118,-0.76894 3.12538,-0.76894 1.95957,0 3.7455,0.85162 l -1.00045,2.57142 q -0.66973,-0.31419 -1.33945,-0.52917 -0.66973,-0.21497 -1.43867,-0.21497 z m 13.51027,5.91177 q 0,1.12448 -0.57051,2.00091 -0.57051,0.86816 -1.64537,1.35599 -1.07487,0.47955 -2.52181,0.47955 -1.20716,0 -2.02571,-0.16536 -0.81855,-0.17363 -1.70325,-0.59531 v -2.91041 q 0.93431,0.47955 1.94303,0.7524 1.00872,0.26459 1.85208,0.26459 0.7276,0 1.0666,-0.24805 0.33899,-0.25631 0.33899,-0.65319 0,-0.24805 -0.14056,-0.42995 -0.13229,-0.19017 -0.43821,-0.38033 -0.29766,-0.19017 -1.60403,-0.77722 -1.18236,-0.53743 -1.77767,-1.04179 -0.58704,-0.50436 -0.87643,-1.15755 -0.28112,-0.65319 -0.28112,-1.54616 0,-1.67018 1.21543,-2.60448 1.21542,-0.93431 3.34036,-0.93431 1.87688,0 3.82818,0.86816 l -1.00046,2.52181 q -1.69498,-0.77722 -2.92694,-0.77722 -0.63666,0 -0.92604,0.22325 -0.28939,0.22324 -0.28939,0.55397 0,0.35553 0.3638,0.63665 0.37207,0.28112 2.00091,1.02526 1.56269,0.70279 2.16627,1.51308 0.61185,0.80202 0.61185,2.02571 z"
       id="text1"
       aria-label="RICHLAND ROBOTICS" /><text
       xml:space="preserve"
       style="font-style:normal;font-variant:normal;font-weight:800;font-stretch:normal;font-size:11.2889px;line-height:1;font-family:'Open Sans';-inkscape-font-specification:'Open Sans Ultra-Bold';text-align:center;text-anchor:middle;fill:#dbdbdb;fill-opacity:1;stroke-width:0.155"
       x="104.7106"
       y="258.22369"
       id="text2"><tspan
         sodipodi:role="line"
         id="tspan2"
         style="font-style:normal;font-variant:normal;font-weight:600;font-stretch:normal;font-size:11.2889px;font-family:'Open Sans';-inkscape-font-specification:'Open Sans Semi-Bold';fill:#dbdbdb;fill-opacity:1;stroke-width:0.155"
         x="104.7106"
         y="258.22369">ROOM 1070</tspan></text><text
       xml:space="preserve"
       style="font-style:normal;font-variant:normal;font-weight:600;font-stretch:normal;font-size:9.87777px;line-height:1;font-family:'Open Sans';-inkscape-font-specification:'Open Sans Semi-Bold';text-align:center;text-anchor:middle;fill:#dbdbdb;fill-opacity:1;stroke-width:0.155"
       x="105.21703"
       y="243.94647"
       id="text3"><tspan
         sodipodi:role="line"
         id="tspan3"
         style="fill:#dbdbdb;fill-opacity:1;stroke-width:0.155"
         x="105.21703"
         y="243.94647">AFTER SCHOOL FRIDAYS</tspan></text><text
       xml:space="preserve"
       style="font-style:normal;font-variant:normal;font-weight:bold;font-stretch:normal;font-size:9.87778px;line-height:1;font-family:'Open Sans';-inkscape-font-specification:'Open Sans Bold';text-align:center;text-anchor:middle;fill:#dbdbdb;fill-opacity:1;stroke-width:0.155"
       x="105.11575"
       y="279.66125"
       id="text4"><tspan
         sodipodi:role="line"
         id="tspan4"
         style="font-style:italic;font-variant:normal;font-weight:300;font-stretch:condensed;font-size:9.87778px;font-family:'Open Sans';-inkscape-font-specification:'Open Sans Light Italic Condensed';fill:#dbdbdb;fill-opacity:1;stroke-width:0.155"
         x="105.11575"
         y="279.66125">https://www.rhs-robotics.com</tspan></text><g
       id="g13"
       transform="matrix(1.2103169,-1.0306251,1.0306251,1.2103169,-158.5957,146.43669)"
       style="display:inline"><path
         id="rect11"
         style="fill:none;fill-opacity:1;stroke:#dbdbdb;stroke-width:0.312782;stroke-dasharray:none;stroke-opacity:1"
         d="m -8.7220599,-86.297876 c -1.6232501,0.732104 -2.9281991,2.024821 -3.6755581,3.641103 -1.210595,2.619898 -0.788197,5.704521 1.082096,7.902404 l -7.39773,21.191743 7.883503,2.752249 7.6008659,-21.773418 c 1.57022,-0.548105 2.89383593,-1.610125 3.78234857,-2.993696 -0.0341722,0.05286 -0.0646263,0.108056 -0.10015109,0.160049 l 19.89031162,-1.4e-5 c 0.792979,1.239914 1.91767,2.224351 3.245658,2.840909 3.528965,1.631365 7.742606,0.369944 9.883762,-2.958864 l -7.76485,-2.42e-4 1.52e-4,-8.350144 7.967031,4.6e-5 c -0.79476,-1.370234 -1.98379,-2.459495 -3.41099,-3.124784 -3.909523,-1.80772 -8.195012,-0.730545 -10.04208,3.248138 l -19.82644382,-0.0051 c -0.72629361,-1.048302 -1.72653338,-1.926803 -2.96776448,-2.500846 -1.9487545,-0.901308 -4.1928414,-0.912082 -6.1501606,-0.02953 z"
         transform="rotate(65.181654)"
         sodipodi:nodetypes="ccccccccccccccccccc" /></g><path
       sodipodi:type="star"
       style="fill:none;fill-opacity:1;stroke:#ffdd00;stroke-width:0.7;stroke-dasharray:none;stroke-opacity:1"
       id="path13"
       inkscape:flatsided="false"
       sodipodi:sides="8"
       sodipodi:cx="73.718491"
       sodipodi:cy="111.78508"
       sodipodi:r1="34.651024"
       sodipodi:r2="28.413839"
       sodipodi:arg1="0.44465635"
       sodipodi:arg2="0.83735543"
       inkscape:rounded="0.74"
       inkscape:randomized="0"
       d="m 105,126.69014 c -4.37365,9.17904 -4.70705,-0.60373 -12.26044,6.20288 -7.55339,6.80661 2.14203,8.15296 -7.44117,11.55089 -9.5832,3.39794 -2.901486,-3.75528 -13.055541,-4.28333 -10.154054,-0.52806 -4.250369,7.27965 -13.429416,2.90601 -9.179046,-4.37365 0.603728,-4.70705 -6.202884,-12.26044 -6.806611,-7.55339 -8.15296,2.14203 -11.550892,-7.44117 -3.397931,-9.5832 3.755286,-2.90149 4.283338,-13.05554 0.528052,-10.15406 -7.279657,-4.25037 -2.906012,-13.429417 4.373645,-9.179046 4.707048,0.603727 12.260438,-6.202884 7.55339,-6.806612 -2.142029,-8.152961 7.44117,-11.550892 9.5832,-3.397932 2.901487,3.755285 13.055541,4.283337 10.154054,0.528053 4.25037,-7.279657 13.429416,-2.906012 9.179046,4.373645 -0.603728,4.707049 6.202884,12.260439 6.806608,7.553389 8.152958,-2.14203 11.550888,7.441169 3.39794,9.5832 -3.75528,2.90149 -4.28333,13.05554 -0.52806,10.15406 7.27965,4.25037 2.90601,13.42942 z"
       inkscape:transform-center-y="-1.4083159e-06"
       transform="translate(-77.512652,27.335133)" /><g
       fill="#ffffff"
       id="g8"
       transform="matrix(3.2288764,0,0,3.2288764,33.102292,32.965339)"
       style="display:inline"><path
         id="path1"
         d="m 21.323108,6.4378586 10e-4,0.00207 A 18.47,18.47 0 0 0 2.851859,24.910141 18.47,18.47 0 0 0 21.324141,43.38294 18.47,18.47 0 0 0 39.796941,24.911175 18.5,18.5 0 0 0 37.759853,16.488938 l -0.0067,0.0031 -0.259933,-0.50488 -0.06201,-0.109037 -3.224097,3.211695 a 13.9,13.9 0 0 1 1.173057,5.572277 c 0,7.661992 -6.210081,13.873074 -13.873074,13.873074 -7.662992,0 -13.8730735,-6.211082 -13.8730735,-13.873074 0,-7.661992 6.2110815,-13.87204 13.8730735,-13.87204 v -0.001 a 13.9,13.9 0 0 1 5.457556,1.121897 13.9,13.9 0 0 1 5.16e-4,0 L 30.173226,8.7002559 A 18.5,18.5 0 0 0 21.323108,6.4378586 Z"
         style="fill:#025d03;fill-opacity:1" /><path
         fill="#025d03"
         d="m 19.198,3.588 -3.494,0.759 0.66,3.043 3.495,-0.76 z M 24.002,3.762 23.449,6.826 26.966,7.46 27.52,4.397 Z M 11.199,6.024 8.26,8.063 l 1.777,2.558 2.937,-2.038 z m -6.457,5.313 -1.934,3.007 2.62,1.684 1.932,-3.006 z m 32.693,4.537 -0.153,0.153 0.372,0.534 0.099,-0.068 z M 0.81,18.716 0.175,22.234 3.239,22.787 3.874,19.27 Z m 41.08,0.576 -3.042,0.66 0.759,3.495 3.043,-0.662 z M 3.044,26.378 0,27.038 l 0.76,3.494 3.042,-0.66 z m 36.368,0.658 -0.635,3.518 3.063,0.553 0.636,-3.519 z m -34.417,6.226 -2.558,1.775 2.038,2.938 2.558,-1.776 z m 32.226,0.533 -1.934,3.008 2.62,1.683 1.933,-3.006 z m -27.787,5.08 -1.684,2.62 3.006,1.933 1.685,-2.62 z m 23.177,0.328 -2.937,2.038 1.776,2.559 2.937,-2.038 z m -16.93,3.16 -0.552,3.064 3.519,0.635 0.552,-3.064 z m 10.602,0.071 -3.493,0.76 0.661,3.042 3.493,-0.759 z"
         id="path2" /><path
         id="path4"
         d="M 21.507076,12.398226 A 12.26,12.26 0 0 0 9.2432087,24.662094 12.26,12.26 0 0 0 21.507076,36.925961 12.26,12.26 0 0 0 33.770944,24.662094 12.2,12.2 0 0 0 32.973059,20.320234 l -1.657266,1.650548 a 10.2,10.2 0 0 1 0.374138,2.691312 c 0,5.622994 -4.55986,10.181821 -10.182855,10.181821 -5.622994,0 -10.182821,-4.558827 -10.181821,-10.181821 10e-4,-5.622994 4.558827,-10.182338 10.181821,-10.182338 l 10e-4,10e-4 a 10.2,10.2 0 0 1 2.546618,0.343132 l 1.673285,-1.674835 a 12.2,12.2 0 0 0 -4.219903,-0.75086 z"
         style="fill:#ffdd00;fill-opacity:1" /><path
         fill="url(#a)"
         d="m 121.69,149.547 a 6.97,6.97 0 0 0 -6.971,6.973 6.97,6.97 0 0 0 6.972,6.971 6.97,6.97 0 0 0 6.972,-6.971 7,7 0 0 0 -0.35,-2.174 l -3.565,3.401 a 2.117,2.117 0 0 1 -2.992,-0.07 l -1.329,-1.392 a 2.117,2.117 0 0 1 0.07,-2.993 l 3.51,-3.348 a 7,7 0 0 0 -2.316,-0.397 m -17.836,17.803 a 6.97,6.97 0 0 0 -6.972,6.973 7,7 0 0 0 0.365,2.186 l 3.275,-3.125 a 2.117,2.117 0 0 1 2.992,0.07 l 1.329,1.393 a 2.117,2.117 0 0 1 -0.07,2.992 l -3.201,3.054 a 7,7 0 0 0 2.282,0.402 6.97,6.97 0 0 0 6.972,-6.972 6.97,6.97 0 0 0 -6.972,-6.972"
         transform="translate(-82.326,-149.547)"
         id="path7"
         style="fill:url(#a)" /><path
         fill="url(#a)"
         d="m -44.56,193.41 h 18.13 l -0.157,6.429 h -18.13 z"
         transform="rotate(-45,-221.683,24.602)"
         id="path8"
         style="fill:#dbdbdb;fill-opacity:1" /></g><path
       sodipodi:type="star"
       style="fill:#000000;fill-opacity:0;stroke:#dbdbdb;stroke-width:0.7;stroke-dasharray:none;stroke-opacity:1"
       id="path14"
       inkscape:flatsided="false"
       sodipodi:sides="8"
       sodipodi:cx="73.718491"
       sodipodi:cy="111.78508"
       sodipodi:r1="34.651024"
       sodipodi:r2="28.413839"
       sodipodi:arg1="0.44465635"
       sodipodi:arg2="0.83735543"
       inkscape:rounded="0.74"
       inkscape:randomized="0"
       d="m 105,126.69014 c -4.37365,9.17904 -4.70705,-0.60373 -12.26044,6.20288 -7.55339,6.80661 2.14203,8.15296 -7.44117,11.55089 -9.5832,3.39794 -2.901486,-3.75528 -13.055541,-4.28333 -10.154054,-0.52806 -4.250369,7.27965 -13.429416,2.90601 -9.179046,-4.37365 0.603728,-4.70705 -6.202884,-12.26044 -6.806611,-7.55339 -8.15296,2.14203 -11.550892,-7.44117 -3.397931,-9.5832 3.755286,-2.90149 4.283338,-13.05554 0.528052,-10.15406 -7.279657,-4.25037 -2.906012,-13.429417 4.373645,-9.179046 4.707048,0.603727 12.260438,-6.202884 7.55339,-6.806612 -2.142029,-8.152961 7.44117,-11.550892 9.5832,-3.397932 2.901487,3.755285 13.055541,4.283337 10.154054,0.528053 4.25037,-7.279657 13.429416,-2.906012 9.179046,4.373645 -0.603728,4.707049 6.202884,12.260439 6.806608,7.553389 8.152958,-2.14203 11.550888,7.441169 3.39794,9.5832 -3.75528,2.90149 -4.28333,13.05554 -0.52806,10.15406 7.27965,4.25037 2.90601,13.42942 z"
       inkscape:transform-center-y="-1.547796e-06"
       transform="matrix(0.61096279,0,0,0.61096279,-29.571607,127.18836)"
       inkscape:transform-center-x="-1.1529737e-06" /><path
       sodipodi:type="star"
       style="fill:none;fill-opacity:1;stroke:#025d03;stroke-width:0.7;stroke-dasharray:none;stroke-opacity:1"
       id="path15"
       inkscape:flatsided="false"
       sodipodi:sides="8"
       sodipodi:cx="73.718491"
       sodipodi:cy="111.78508"
       sodipodi:r1="34.651024"
       sodipodi:r2="28.413839"
       sodipodi:arg1="0.44465635"
       sodipodi:arg2="0.83735543"
       inkscape:rounded="0.74"
       inkscape:randomized="0"
       d="m 105,126.69014 c -4.37365,9.17904 -4.70705,-0.60373 -12.26044,6.20288 -7.55339,6.80661 2.14203,8.15296 -7.44117,11.55089 -9.5832,3.39794 -2.901486,-3.75528 -13.055541,-4.28333 -10.154054,-0.52806 -4.250369,7.27965 -13.429416,2.90601 -9.179046,-4.37365 0.603728,-4.70705 -6.202884,-12.26044 -6.806611,-7.55339 -8.15296,2.14203 -11.550892,-7.44117 -3.397931,-9.5832 3.755286,-2.90149 4.283338,-13.05554 0.528052,-10.15406 -7.279657,-4.25037 -2.906012,-13.429417 4.373645,-9.179046 4.707048,0.603727 12.260438,-6.202884 7.55339,-6.806612 -2.142029,-8.152961 7.44117,-11.550892 9.5832,-3.397932 2.901487,3.755285 13.055541,4.283337 10.154054,0.528053 4.25037,-7.279657 13.429416,-2.906012 9.179046,4.373645 -0.603728,4.707049 6.202884,12.260439 6.806608,7.553389 8.152958,-2.14203 11.550888,7.441169 3.39794,9.5832 -3.75528,2.90149 -4.28333,13.05554 -0.52806,10.15406 7.27965,4.25037 2.90601,13.42942 z"
       inkscape:transform-center-y="-1.4083159e-06"
       transform="translate(-59.419663,166.18113)" /><path
       id="path16"
       style="display:inline;fill:none;fill-opacity:1;stroke:#dbdbdb;stroke-width:0.700001;stroke-dasharray:none;stroke-opacity:1"
       d="M 48.997188,32.369303 A 16.222691,16.222691 0 0 0 29.979738,19.52489 16.222691,16.222691 0 0 0 25.632516,21.123399 L 0.63303052,4.2334567 a 16.222691,16.222691 0 0 0 -0.209021,-4.74202297 l 0.003,-7.03e-4 A 16.222691,16.222691 0 0 0 -18.591444,-13.356144 a 16.292516,16.292516 0 0 0 -4.83333,1.801044 l 8.58958,6.1008767 a 4.9273224,4.9273224 0 0 1 1.163281,6.868012 l -2.595119,3.653203 a 4.9273224,4.9273224 0 0 1 -6.867885,1.163885 l -8.394558,-5.96339097 a 16.292516,16.292516 0 0 0 0.0912,5.39227497 16.222691,16.222691 0 0 0 19.015304,12.8469283 16.222691,16.222691 0 0 0 4.829811,-1.772967 L 17.069725,33.39664 a 16.222691,16.222691 0 0 0 0.06568,5.143514 16.222691,16.222691 0 0 0 19.013354,12.847855 16.292516,16.292516 0 0 0 4.813045,-1.761829 L 31.61328,42.984764 a 4.9273224,4.9273224 0 0 1 -1.163783,-6.867901 l 2.592606,-3.652723 a 4.9273224,4.9273224 0 0 1 6.870429,-1.164369 l 9.202988,6.539567 a 16.292516,16.292516 0 0 0 -0.117385,-5.467726 z" /><path
       sodipodi:type="star"
       style="fill:#000000;fill-opacity:0;stroke:#dbdbdb;stroke-width:0.7;stroke-dasharray:none;stroke-opacity:1"
       id="path17"
       inkscape:flatsided="false"
       sodipodi:sides="8"
       sodipodi:cx="73.718491"
       sodipodi:cy="111.78508"
       sodipodi:r1="34.651024"
       sodipodi:r2="28.413839"
       sodipodi:arg1="0.44465635"
       sodipodi:arg2="0.83735543"
       inkscape:rounded="0.74"
       inkscape:randomized="0"
       d="m 105,126.69014 c -4.37365,9.17904 -4.70705,-0.60373 -12.26044,6.20288 -7.55339,6.80661 2.14203,8.15296 -7.44117,11.55089 -9.5832,3.39794 -2.901486,-3.75528 -13.055541,-4.28333 -10.154054,-0.52806 -4.250369,7.27965 -13.429416,2.90601 -9.179046,-4.37365 0.603728,-4.70705 -6.202884,-12.26044 -6.806611,-7.55339 -8.15296,2.14203 -11.550892,-7.44117 -3.397931,-9.5832 3.755286,-2.90149 4.283338,-13.05554 0.528052,-10.15406 -7.279657,-4.25037 -2.906012,-13.429417 4.373645,-9.179046 4.707048,0.603727 12.260438,-6.202884 7.55339,-6.806612 -2.142029,-8.152961 7.44117,-11.550892 9.5832,-3.397932 2.901487,3.755285 13.055541,4.283337 10.154054,0.528053 4.25037,-7.279657 13.429416,-2.906012 9.179046,4.373645 -0.603728,4.707049 6.202884,12.260439 6.806608,7.553389 8.152958,-2.14203 11.550888,7.441169 3.39794,9.5832 -3.75528,2.90149 -4.28333,13.05554 -0.52806,10.15406 7.27965,4.25037 2.90601,13.42942 z"
       transform="matrix(1.0700815,0,0,1.0700815,139.74409,28.880854)"
       inkscape:transform-center-x="1.4603891e-06" /></g></svg>
