<?xml version="1.0" encoding="UTF-8" standalone="no"?>
<!-- Created with Inkscape (http://www.inkscape.org/) -->

<svg
   width="8.5in"
   height="11in"
   viewBox="0 0 215.9 279.4"
   version="1.1"
   id="svg1"
   xml:space="preserve"
   inkscape:version="1.3.2 (091e20e, 2023-11-25)"
   sodipodi:docname="Posters.svg"
   xmlns:inkscape="http://www.inkscape.org/namespaces/inkscape"
   xmlns:sodipodi="http://sodipodi.sourceforge.net/DTD/sodipodi-0.dtd"
   xmlns:xlink="http://www.w3.org/1999/xlink"
   xmlns="http://www.w3.org/2000/svg"
   xmlns:svg="http://www.w3.org/2000/svg"><sodipodi:namedview
     id="namedview1"
     pagecolor="#dbdbdb"
     bordercolor="#000000"
     borderopacity="0.25"
     inkscape:showpageshadow="2"
     inkscape:pageopacity="0.0"
     inkscape:pagecheckerboard="0"
     inkscape:deskcolor="#dbdbdb"
     inkscape:document-units="mm"
     inkscape:export-bgcolor="#ffffffff"
     inkscape:zoom="0.96562838"
     inkscape:cx="281.16406"
     inkscape:cy="398.70411"
     inkscape:window-width="1680"
     inkscape:window-height="986"
     inkscape:window-x="0"
     inkscape:window-y="0"
     inkscape:window-maximized="1"
     inkscape:current-layer="layer1" /><defs
     id="defs1"><linearGradient
       id="linearGradient7"
       inkscape:collect="always"><stop
         style="stop-color:#025d03;stop-opacity:1;"
         offset="0"
         id="stop7" /><stop
         style="stop-color:#ffdd00;stop-opacity:1;"
         offset="1"
         id="stop8" /></linearGradient><linearGradient
       inkscape:collect="always"
       xlink:href="#linearGradient7"
       id="linearGradient8"
       x1="10.738387"
       y1="139.93437"
       x2="208.99754"
       y2="166.08287"
       gradientUnits="userSpaceOnUse" /><linearGradient
       id="a"
       gradientTransform="scale(1.0005038,0.99949641)"
       x1="96.83421"
       y1="149.62235"
       x2="128.59821"
       y2="149.62235"
       gradientUnits="userSpaceOnUse"><stop
         offset="0"
         stop-color="#dbdbdb"
         id="stop1" /></linearGradient><filter
       inkscape:collect="always"
       style="color-interpolation-filters:sRGB"
       id="filter9"
       x="-0.48313864"
       y="-0.4882296"
       width="1.9662773"
       height="1.9764592"><feGaussianBlur
         inkscape:collect="always"
         stdDeviation="27.435211"
         id="feGaussianBlur9" /></filter><filter
       inkscape:collect="always"
       style="color-interpolation-filters:sRGB"
       id="filter10"
       x="-0.027597487"
       y="-0.18411178"
       width="1.055195"
       height="1.3682236"><feGaussianBlur
         inkscape:collect="always"
         stdDeviation="0.79443842"
         id="feGaussianBlur10" /></filter><filter
       inkscape:collect="always"
       style="color-interpolation-filters:sRGB"
       id="filter11"
       x="-0.027604789"
       y="-0.18378737"
       width="1.0552096"
       height="1.3675747"><feGaussianBlur
         inkscape:collect="always"
         stdDeviation="1.3896629"
         id="feGaussianBlur11" /></filter></defs><g
     inkscape:label="Layer 1"
     inkscape:groupmode="layer"
     id="layer1"
     style="display:inline"><rect
       style="fill:#1c1c1c;fill-opacity:1;stroke-width:3.00384"
       id="rect5"
       width="206.217"
       height="269.39999"
       x="4.8414998"
       y="5" /><g
       fill="#ffffff"
       id="g8"
       transform="matrix(3.8306565,0,0,3.8306565,56.75816,34.032449)"
       style="display:none;opacity:0.237221"><path
         id="path1"
         d="m 21.323108,6.4378586 10e-4,0.00207 A 18.47,18.47 0 0 0 2.851859,24.910141 18.47,18.47 0 0 0 21.324141,43.38294 18.47,18.47 0 0 0 39.796941,24.911175 18.5,18.5 0 0 0 37.759853,16.488938 l -0.0067,0.0031 -0.259933,-0.50488 -0.06201,-0.109037 -3.224097,3.211695 a 13.9,13.9 0 0 1 1.173057,5.572277 c 0,7.661992 -6.210081,13.873074 -13.873074,13.873074 -7.662992,0 -13.8730735,-6.211082 -13.8730735,-13.873074 0,-7.661992 6.2110815,-13.87204 13.8730735,-13.87204 v -0.001 a 13.9,13.9 0 0 1 5.457556,1.121897 13.9,13.9 0 0 1 5.16e-4,0 L 30.173226,8.7002559 A 18.5,18.5 0 0 0 21.323108,6.4378586 Z"
         style="fill:#025d03;fill-opacity:1" /><path
         fill="#025d03"
         d="m 19.198,3.588 -3.494,0.759 0.66,3.043 3.495,-0.76 z M 24.002,3.762 23.449,6.826 26.966,7.46 27.52,4.397 Z M 11.199,6.024 8.26,8.063 l 1.777,2.558 2.937,-2.038 z m -6.457,5.313 -1.934,3.007 2.62,1.684 1.932,-3.006 z m 32.693,4.537 -0.153,0.153 0.372,0.534 0.099,-0.068 z M 0.81,18.716 0.175,22.234 3.239,22.787 3.874,19.27 Z m 41.08,0.576 -3.042,0.66 0.759,3.495 3.043,-0.662 z M 3.044,26.378 0,27.038 l 0.76,3.494 3.042,-0.66 z m 36.368,0.658 -0.635,3.518 3.063,0.553 0.636,-3.519 z m -34.417,6.226 -2.558,1.775 2.038,2.938 2.558,-1.776 z m 32.226,0.533 -1.934,3.008 2.62,1.683 1.933,-3.006 z m -27.787,5.08 -1.684,2.62 3.006,1.933 1.685,-2.62 z m 23.177,0.328 -2.937,2.038 1.776,2.559 2.937,-2.038 z m -16.93,3.16 -0.552,3.064 3.519,0.635 0.552,-3.064 z m 10.602,0.071 -3.493,0.76 0.661,3.042 3.493,-0.759 z"
         id="path2" /><path
         id="path4"
         d="M 21.507076,12.398226 A 12.26,12.26 0 0 0 9.2432087,24.662094 12.26,12.26 0 0 0 21.507076,36.925961 12.26,12.26 0 0 0 33.770944,24.662094 12.2,12.2 0 0 0 32.973059,20.320234 l -1.657266,1.650548 a 10.2,10.2 0 0 1 0.374138,2.691312 c 0,5.622994 -4.55986,10.181821 -10.182855,10.181821 -5.622994,0 -10.182821,-4.558827 -10.181821,-10.181821 10e-4,-5.622994 4.558827,-10.182338 10.181821,-10.182338 l 10e-4,10e-4 a 10.2,10.2 0 0 1 2.546618,0.343132 l 1.673285,-1.674835 a 12.2,12.2 0 0 0 -4.219903,-0.75086 z"
         style="fill:#ffdd00;fill-opacity:1" /><path
         fill="url(#a)"
         d="m 121.69,149.547 a 6.97,6.97 0 0 0 -6.971,6.973 6.97,6.97 0 0 0 6.972,6.971 6.97,6.97 0 0 0 6.972,-6.971 7,7 0 0 0 -0.35,-2.174 l -3.565,3.401 a 2.117,2.117 0 0 1 -2.992,-0.07 l -1.329,-1.392 a 2.117,2.117 0 0 1 0.07,-2.993 l 3.51,-3.348 a 7,7 0 0 0 -2.316,-0.397 m -17.836,17.803 a 6.97,6.97 0 0 0 -6.972,6.973 7,7 0 0 0 0.365,2.186 l 3.275,-3.125 a 2.117,2.117 0 0 1 2.992,0.07 l 1.329,1.393 a 2.117,2.117 0 0 1 -0.07,2.992 l -3.201,3.054 a 7,7 0 0 0 2.282,0.402 6.97,6.97 0 0 0 6.972,-6.972 6.97,6.97 0 0 0 -6.972,-6.972"
         transform="translate(-82.326,-149.547)"
         id="path7"
         style="fill:url(#a)" /><path
         fill="url(#a)"
         d="m -44.56,193.41 h 18.13 l -0.157,6.429 h -18.13 z"
         transform="rotate(-45,-221.683,24.602)"
         id="path8"
         style="fill:#dbdbdb;fill-opacity:1" /></g><ellipse
       style="display:none;opacity:0.237221;fill:#ffdd00;fill-opacity:1;stroke-width:0.582243;filter:url(#filter9)"
       id="path9"
       cx="107.95"
       cy="139.7"
       rx="68.142456"
       ry="67.431908" /><image
       width="262.21896"
       height="147.49817"
       preserveAspectRatio="none"
       xlink:href="../../Robot.png"
       id="image1"
       x="-23.273968"
       y="57.874821"
       style="display:none" /><g
       id="g10"
       inkscape:label="Text BLur"
       transform="translate(-0.65733848,71.446684)"
       style="display:none"><text
         xml:space="preserve"
         style="font-style:normal;font-variant:normal;font-weight:600;font-stretch:normal;font-size:24.6944px;line-height:0;font-family:'Open Sans';-inkscape-font-specification:'Open Sans Semi-Bold';text-align:center;text-anchor:middle;opacity:1;fill:#025d03;fill-opacity:1;stroke-width:1.35476;filter:url(#filter11)"
         x="145.7346"
         y="157.60585"
         id="text9"><tspan
           sodipodi:role="line"
           id="tspan9"
           style="font-weight:bold;font-size:24.6944px;fill:#025d03;fill-opacity:1;stroke-width:1.35476"
           x="145.7346"
           y="157.60585">ROBOTICS</tspan></text><text
         xml:space="preserve"
         style="font-style:normal;font-variant:normal;font-weight:600;font-stretch:normal;font-size:14.1111px;line-height:0;font-family:'Open Sans';-inkscape-font-specification:'Open Sans Semi-Bold';text-align:center;text-anchor:middle;opacity:0.2;fill:#ffdd00;fill-opacity:1;stroke-width:0.705811;filter:url(#filter10)"
         x="44.745354"
         y="153.81367"
         id="text10"><tspan
           sodipodi:role="line"
           id="tspan10"
           style="font-size:14.1111px;fill:#ffdd00;fill-opacity:1;stroke-width:0.705811"
           x="44.745354"
           y="153.81367">RICHLAND</tspan></text></g><g
       id="g4"
       inkscape:label="Text"
       transform="translate(-0.65733849,71.446685)"
       style="display:inline"><text
         xml:space="preserve"
         style="font-style:normal;font-variant:normal;font-weight:600;font-stretch:normal;font-size:24.6944px;line-height:0;font-family:'Open Sans';-inkscape-font-specification:'Open Sans Semi-Bold';text-align:center;text-anchor:middle;fill:#ffdd00;fill-opacity:1;stroke:none;stroke-width:0.155;stroke-dasharray:none;stroke-opacity:1"
         x="145.7346"
         y="157.60585"
         id="text1"><tspan
           sodipodi:role="line"
           id="tspan1"
           style="font-style:normal;font-variant:normal;font-weight:800;font-stretch:normal;font-size:24.6944px;font-family:'Open Sans';-inkscape-font-specification:'Open Sans Ultra-Bold';fill:#ffdd00;fill-opacity:1;stroke:none;stroke-width:0.155;stroke-dasharray:none;stroke-opacity:1"
           x="145.7346"
           y="157.60585">ROBOTICS</tspan></text><text
         xml:space="preserve"
         style="font-style:normal;font-variant:normal;font-weight:600;font-stretch:normal;font-size:14.1111px;line-height:0;font-family:'Open Sans';-inkscape-font-specification:'Open Sans Semi-Bold';text-align:center;text-anchor:middle;fill:#025d03;fill-opacity:1;stroke-width:0.705811"
         x="44.745354"
         y="153.81367"
         id="text2"><tspan
           sodipodi:role="line"
           id="tspan2"
           style="font-style:normal;font-variant:normal;font-weight:bold;font-stretch:normal;font-size:14.1111px;font-family:'Open Sans';-inkscape-font-specification:'Open Sans Bold';fill:#025d03;fill-opacity:1;stroke-width:0.705811"
           x="44.745354"
           y="153.81367">RICHLAND</tspan></text></g><g
       id="text11"
       style="display:inline;font-style:italic;font-size:19.7556px;line-height:1;font-family:'Open Sans';-inkscape-font-specification:'Open Sans Italic';text-align:center;text-anchor:middle;fill:#025d03;stroke-width:0.155"
       aria-label="DESIGN AND&#10;BUILD ROBOTS"
       transform="translate(-0.65733848,71.446684)"><path
         style="font-weight:800;-inkscape-font-specification:'Open Sans Ultra-Bold Italic';fill:#ffdd00;fill-opacity:1"
         d="m 63.414369,-54.662512 q 0,2.700961 -0.954983,4.688096 -0.954983,1.97749 -2.778131,3.028935 -1.813503,1.051446 -4.302245,1.051446 h -4.543402 l 2.980703,-14.102875 h 4.012856 q 2.662376,0 4.118966,1.398712 1.466236,1.389066 1.466236,3.935686 z m -7.466228,5.643079 q 1.061092,0 1.890673,-0.67524 0.839227,-0.67524 1.302249,-1.919612 0.463021,-1.254017 0.463021,-2.855301 0,-1.205786 -0.520899,-1.823149 -0.5209,-0.627009 -1.45659,-0.627009 h -0.684886 l -1.659162,7.900311 z m 16.774897,3.125398 h -8.372979 l 2.980703,-14.102875 h 8.372979 l -0.627009,3.057874 h -4.60128 l -0.453375,2.218646 h 4.282952 l -0.694533,3.057874 h -4.282952 l -0.549839,2.662376 h 4.60128 z m 11.835995,-4.331184 q 0,2.141476 -1.418004,3.337616 -1.418005,1.186493 -3.954979,1.186493 -1.061092,0 -2.006428,-0.23151 -0.945336,-0.241158 -1.630223,-0.694533 v -3.376201 q 0.810289,0.511253 1.852088,0.858519 1.051445,0.347267 1.900319,0.347267 0.713825,0 1.080384,-0.299035 0.366559,-0.299035 0.366559,-0.848874 0,-0.26045 -0.115755,-0.482314 -0.115756,-0.231511 -0.327974,-0.453376 -0.212219,-0.231511 -1.138262,-1.003214 -1.128616,-0.906751 -1.63987,-1.852087 -0.511253,-0.945337 -0.511253,-2.073952 0,-1.263664 0.627009,-2.266878 0.636655,-1.012861 1.784563,-1.562699 1.157555,-0.559485 2.585206,-0.559485 2.305463,0 4.147904,1.032153 l -1.302249,2.864948 q -1.649515,-0.848874 -2.80707,-0.848874 -0.617362,0 -0.954983,0.270096 -0.327973,0.270097 -0.327973,0.790996 0,0.472668 0.318327,0.887459 0.327974,0.405144 1.234725,1.09003 1.138262,0.839228 1.688101,1.765271 0.549838,0.926044 0.549838,2.122184 z m 1.69775,4.331184 2.980703,-14.102875 h 3.829577 l -2.980703,14.102875 z m 13.765257,-8.257224 h 5.88423 l -1.61093,7.6688 q -2.41157,0.781349 -5.025714,0.781349 -2.517681,0 -3.906747,-1.466235 -1.389065,-1.466236 -1.389065,-4.157551 0,-2.575559 1.061092,-4.649511 1.061091,-2.073953 2.903533,-3.154337 1.852087,-1.090031 4.302241,-1.090031 2.56592,0 4.32154,1.032153 l -1.418,2.980704 q -1.47589,-0.868166 -2.95177,-0.868166 -1.27331,0 -2.25723,0.704179 -0.974275,0.694533 -1.562698,2.064306 -0.578778,1.369773 -0.578778,2.922825 0,2.546621 2.016075,2.546621 0.607711,0 1.282961,-0.135049 l 0.49196,-2.237939 h -2.209004 z m 19.46621,8.257224 h -4.38906 l -2.78778,-9.916385 h -0.0772 q -0.27974,2.80707 -0.54984,4.032148 l -1.24437,5.884237 h -3.35691 l 2.9807,-14.102875 h 4.38907 l 2.75883,9.482302 h 0.0868 q 0.27974,-2.276524 0.54984,-3.578773 l 1.26366,-5.903529 h 3.35691 z"
         id="path16" /><path
         d="m 135.34674,-50.37956 h -4.78456 l -2.36334,4.485525 h -1.82315 l 7.70739,-14.102875 h 1.67845 l 1.77492,14.102875 h -1.63987 z m -0.17363,-1.504821 -0.33762,-2.88424 q -0.23151,-1.726686 -0.27974,-3.376201 -0.35692,0.848873 -0.78135,1.6881 -0.41479,0.839227 -2.40193,4.572341 z m 14.28616,5.990346 h -1.74598 L 143.276,-57.691447 h -0.0579 q -0.30868,2.13183 -0.71383,4.032149 l -1.65916,7.765263 h -1.5627 l 2.98071,-14.102875 h 1.73633 l 4.42764,11.768473 h 0.0579 q 0.28939,-2.160769 0.69454,-3.906747 l 1.67845,-7.861726 h 1.58199 z m 15.42441,-8.459796 q 0,2.517682 -1.01286,4.446939 -1.01286,1.929258 -2.89389,2.971057 -1.88102,1.0418 -4.40835,1.0418 h -3.39549 l 2.9807,-14.102875 h 3.29903 q 2.66238,0 4.0418,1.446943 1.38906,1.437297 1.38906,4.196136 z m -8.20899,7.041791 q 1.94855,0 3.42443,-0.877812 1.47588,-0.887459 2.25723,-2.498389 0.791,-1.61093 0.791,-3.684882 0,-2.073953 -0.99357,-3.135044 -0.99357,-1.070738 -2.91318,-1.070738 h -1.71704 l -2.41157,11.266865 z"
         id="path17"
         style="fill:#dbdbdb;fill-opacity:1" /><path
         style="font-weight:800;-inkscape-font-specification:'Open Sans Ultra-Bold Italic';fill:#dbdbdb;fill-opacity:1"
         d="m 40.682888,-40.24131 h 4.697743 q 2.093245,0 3.173629,0.800642 1.080385,0.790996 1.080385,2.276524 0,2.778131 -2.864948,3.636651 v 0.07717 q 0.848873,0.279742 1.35048,0.983921 0.501607,0.694533 0.501607,1.707393 0,2.209 -1.475882,3.414787 -1.466236,1.205786 -4.167197,1.205786 h -5.27652 z m 2.623791,5.411568 h 0.694533 q 0.848873,0 1.282956,-0.366559 0.434083,-0.366559 0.434083,-1.176847 0,-0.983922 -1.225078,-0.983922 h -0.607717 z m -0.569131,2.787778 -0.636655,2.96141 h 0.790996 q 0.829581,0 1.379419,-0.463021 0.559485,-0.472669 0.559485,-1.176848 0,-0.665594 -0.318328,-0.993567 -0.318327,-0.327974 -1.118969,-0.327974 z m 21.154312,-8.199346 -1.919611,8.990341 q -0.569131,2.710608 -2.170415,4.012857 -1.601284,1.292602 -4.350477,1.292602 -1.292602,0 -2.28617,-0.530545 -0.983922,-0.530546 -1.524114,-1.485529 -0.530546,-0.954983 -0.530546,-2.13183 0,-0.617362 0.115756,-1.244371 l 1.919611,-8.903525 h 3.771699 l -1.881026,8.807062 q -0.135048,0.655948 -0.135048,1.109323 0,1.225079 1.167201,1.225079 0.906751,0 1.418004,-0.617363 0.5209,-0.627008 0.790996,-1.909965 l 1.842441,-8.614136 z m 0.163988,14.102875 2.980703,-14.102875 h 3.829577 l -2.980703,14.102875 z m 7.032144,0 2.980704,-14.102875 h 3.771699 l -2.324756,11.025708 h 4.60128 l -0.655948,3.077167 z m 22.987105,-8.768477 q 0,2.700961 -0.954982,4.688096 -0.954983,1.97749 -2.778131,3.028935 -1.813503,1.051446 -4.302245,1.051446 H 81.496336 L 84.47704,-40.24131 h 4.012856 q 2.662376,0 4.118965,1.398712 1.466236,1.389066 1.466236,3.935686 z m -7.466227,5.643079 q 1.061091,0 1.890672,-0.67524 0.839227,-0.67524 1.302249,-1.919612 0.463022,-1.254017 0.463022,-2.855301 0,-1.205786 -0.520899,-1.823149 -0.5209,-0.627009 -1.45659,-0.627009 h -0.684887 l -1.659161,7.900311 z"
         id="path18" /><path
         style="font-style:normal;font-weight:600;-inkscape-font-specification:'Open Sans Semi-Bold';fill:#025d03;fill-opacity:1"
         d="m 103.99148,-33.681833 h 1.60129 q 1.61093,0 2.3344,-0.59807 0.72347,-0.59807 0.72347,-1.774918 0,-1.196139 -0.78135,-1.717039 -0.78135,-0.5209 -2.35369,-0.5209 h -1.52412 z m 0,1.909965 v 5.633433 h -2.30546 V -40.24131 h 3.98392 q 2.7299,0 4.04179,1.022507 1.3119,1.022506 1.3119,3.086812 0,2.633437 -2.73955,3.752407 l 3.98392,6.241149 h -2.62379 l -3.3762,-5.633433 z m 22.84242,-1.437297 q 0,3.443725 -1.72669,5.35369 -1.71704,1.909965 -4.87138,1.909965 -3.19292,0 -4.90996,-1.890672 -1.70739,-1.900319 -1.70739,-5.392276 0,-3.491956 1.71704,-5.363337 1.72668,-1.87138 4.91961,-1.87138 3.14469,0 4.86173,1.900319 1.71704,1.900319 1.71704,5.353691 z m -10.76526,0 q 0,2.604498 1.05144,3.954978 1.05145,1.340834 3.11575,1.340834 2.05466,0 3.09646,-1.331187 1.05145,-1.331188 1.05145,-3.964625 0,-2.594852 -1.0418,-3.935686 -1.03215,-1.340834 -3.08681,-1.340834 -2.07396,0 -3.13505,1.340834 -1.05144,1.340834 -1.05144,3.935686 z m 13.79419,-7.032145 h 4.18649 q 2.91318,0 4.20578,0.848873 1.30225,0.848874 1.30225,2.681669 0,1.234725 -0.63665,2.054659 -0.63666,0.819935 -1.8328,1.032153 v 0.09646 q 1.48553,0.279743 2.18006,1.109323 0.70418,0.819935 0.70418,2.228293 0,1.900319 -1.33118,2.980704 -1.32155,1.070738 -3.68489,1.070738 h -5.09324 z m 2.30547,5.826359 h 2.21864 q 1.44695,0 2.11254,-0.453376 0.66559,-0.463022 0.66559,-1.562699 0,-0.993568 -0.72347,-1.437297 -0.71382,-0.443729 -2.27652,-0.443729 h -1.99678 z m 0,1.87138 v 4.466232 h 2.45015 q 1.44695,0 2.18006,-0.549839 0.74277,-0.559485 0.74277,-1.755625 0,-1.099676 -0.75241,-1.630222 -0.75241,-0.530546 -2.28617,-0.530546 z m 23.25719,-0.665594 q 0,3.443725 -1.72668,5.35369 -1.71704,1.909965 -4.87138,1.909965 -3.19292,0 -4.90996,-1.890672 -1.70739,-1.900319 -1.70739,-5.392276 0,-3.491956 1.71704,-5.363337 1.72668,-1.87138 4.9196,-1.87138 3.1447,0 4.86173,1.900319 1.71704,1.900319 1.71704,5.353691 z m -10.76525,0 q 0,2.604498 1.05144,3.954978 1.05145,1.340834 3.11575,1.340834 2.05466,0 3.09646,-1.331187 1.05145,-1.331188 1.05145,-3.964625 0,-2.594852 -1.0418,-3.935686 -1.03216,-1.340834 -3.08682,-1.340834 -2.07395,0 -3.13504,1.340834 -1.05144,1.340834 -1.05144,3.935686 z m 18.66557,7.07073 h -2.30547 v -12.125386 h -4.1479 v -1.977489 h 10.60127 v 1.977489 h -4.1479 z m 14.44049,-3.829577 q 0,1.881026 -1.36013,2.951764 -1.36012,1.070738 -3.7524,1.070738 -2.39228,0 -3.9164,-0.742764 v -2.180061 q 0.96463,0.453375 2.04502,0.713825 1.09003,0.26045 2.02572,0.26045 1.36977,0 2.01607,-0.5209 0.65595,-0.520899 0.65595,-1.398711 0,-0.790996 -0.59807,-1.340835 -0.59807,-0.549838 -2.46945,-1.302249 -1.92926,-0.781349 -2.72026,-1.784563 -0.79099,-1.003214 -0.79099,-2.411572 0,-1.765271 1.25402,-2.778132 1.25401,-1.01286 3.36655,-1.01286 2.02572,0 4.03215,0.887459 l -0.73312,1.881026 q -1.88102,-0.790996 -3.35691,-0.790996 -1.11897,0 -1.69774,0.491961 -0.57878,0.482314 -0.57878,1.282956 0,0.549839 0.23151,0.945337 0.23151,0.385851 0.76206,0.733118 0.53054,0.347266 1.90996,0.916397 1.55305,0.646302 2.27653,1.205786 0.72347,0.559485 1.06109,1.263664 0.33762,0.704179 0.33762,1.659162 z"
         id="path19" /></g><text
       xml:space="preserve"
       style="font-style:normal;font-variant:normal;font-weight:600;font-stretch:normal;font-size:20.9831px;line-height:0;font-family:'Open Sans';-inkscape-font-specification:'Open Sans Semi-Bold';text-align:center;text-anchor:middle;display:inline;fill:#ffdd00;fill-opacity:1;stroke-width:1.06214"
       x="-65.779755"
       y="224.8022"
       id="text3"><tspan
         sodipodi:role="line"
         id="tspan3"
         style="stroke-width:1.06214"
         x="-65.779755"
         y="224.8022">RICHLAND</tspan></text><text
       xml:space="preserve"
       style="font-style:normal;font-variant:normal;font-weight:600;font-stretch:normal;font-size:26.7641px;line-height:0;font-family:'Open Sans';-inkscape-font-specification:'Open Sans Semi-Bold';text-align:center;text-anchor:middle;display:none;fill:#025d03;fill-opacity:1;stroke-width:1.35476"
       x="-69.02813"
       y="279.94998"
       id="text4"><tspan
         sodipodi:role="line"
         id="tspan4"
         style="fill:#025d03;fill-opacity:1;stroke-width:1.35476"
         x="-69.02813"
         y="279.94998">ROBOTICS</tspan></text><text
       xml:space="preserve"
       style="font-style:normal;font-variant:normal;font-weight:600;font-stretch:normal;font-size:12.0233px;line-height:0;font-family:'Open Sans';-inkscape-font-specification:'Open Sans Semi-Bold';text-align:center;text-anchor:middle;display:inline;fill:#dbdbdb;fill-opacity:1;stroke-width:0.608601"
       x="108.11438"
       y="256.43317"
       id="text5"><tspan
         sodipodi:role="line"
         id="tspan5"
         style="font-style:italic;font-variant:normal;font-weight:normal;font-stretch:normal;font-size:12.0233px;font-family:'Open Sans';-inkscape-font-specification:'Open Sans Italic';fill:#dbdbdb;fill-opacity:1;stroke-width:0.608603"
         x="108.11438"
         y="256.43317">https://www.rhs-robotics.com</tspan></text><g
       id="g7"
       inkscape:label="Text"
       transform="translate(-0.65733849,71.446685)"
       style="display:none"><path
         id="text6"
         style="font-weight:bold;font-size:24.6944px;line-height:0;font-family:'Open Sans';-inkscape-font-specification:'Open Sans Semi-Bold';text-align:center;text-anchor:middle;display:inline;fill:url(#linearGradient8);stroke-width:1.35476"
         d="m 109.88065,139.70012 c -2.70899,0 -4.79116,0.77555 -6.24613,2.32699 -1.44694,1.54339 -2.17041,3.78232 -2.17041,6.71638 0,2.93407 0.72347,5.18453 2.17041,6.75205 1.44693,1.56751 3.52089,2.35127 6.22184,2.35127 2.70095,0 4.77491,-0.78376 6.22184,-2.35127 1.44694,-1.56752 2.17041,-3.81029 2.17041,-6.72828 0,-2.92602 -0.71911,-5.16879 -2.15801,-6.72827 -1.43086,-1.55947 -3.50097,-2.33887 -6.20995,-2.33887 z m 36.24585,0 c -2.70899,0 -4.79116,0.77555 -6.24613,2.32699 -1.44694,1.54339 -2.17042,3.78232 -2.17042,6.71638 0,2.93407 0.72348,5.18453 2.17042,6.75205 1.44693,1.56751 3.52089,2.35127 6.22184,2.35127 2.70094,0 4.7749,-0.78376 6.22184,-2.35127 1.44694,-1.56752 2.17041,-3.81029 2.17041,-6.72828 0,-2.92602 -0.71911,-5.16879 -2.15801,-6.72827 -1.43086,-1.55947 -3.50096,-2.33887 -6.20995,-2.33887 z m 41.98555,0.0238 c -1.68006,0 -3.14727,0.36994 -4.40129,1.10949 -1.24597,0.73151 -2.20239,1.78875 -2.86959,3.17138 -0.6672,1.37459 -1.00097,2.97829 -1.00097,4.81108 0,2.90995 0.67909,5.1445 2.0376,6.70398 1.35851,1.55144 3.32011,2.32699 5.8844,2.32699 1.78456,0 3.40031,-0.30144 4.84725,-0.90433 v -3.1347 c -1.76044,0.61897 -3.25947,0.92811 -4.4974,0.92811 -2.95015,0 -4.42557,-1.96544 -4.42557,-5.89628 0,-1.88906 0.38585,-3.36012 1.15755,-4.41317 0.7717,-1.06108 1.86127,-1.59163 3.26802,-1.59163 0.64308,0 1.29805,0.11673 1.96525,0.34985 0.6672,0.23311 1.33038,0.5066 1.98954,0.8201 l 1.20561,-3.03857 c -1.72828,-0.82797 -3.4482,-1.2423 -5.1604,-1.2423 z m 13.33562,0 c -1.86495,0 -3.3278,0.44614 -4.38888,1.33842 -1.05305,0.89228 -1.57975,2.11834 -1.57975,3.67781 0,0.82797 0.1606,1.55144 0.48214,2.17041 0.32154,0.61897 0.75177,1.16157 1.29036,1.62781 0.53858,0.46624 1.34646,0.9524 2.42362,1.45882 1.14952,0.54662 1.90917,0.94454 2.27894,1.19373 0.37781,0.2492 0.66335,0.51062 0.85627,0.78393 0.19293,0.26527 0.28939,0.57056 0.28939,0.91622 0,0.61897 -0.2214,1.08538 -0.66352,1.39888 -0.43408,0.31351 -1.06109,0.47026 -1.88103,0.47026 -0.68327,0 -1.43856,-0.10852 -2.26652,-0.32556 -0.81994,-0.21705 -1.82511,-0.59084 -3.01481,-1.12138 v 3.47266 c 1.44693,0.70739 3.11093,1.06091 4.99195,1.06091 2.04179,0 3.63343,-0.4582 4.7749,-1.37459 1.1495,-0.91639 1.72444,-2.17041 1.72444,-3.76204 0,-1.14952 -0.3053,-2.118 -0.91622,-2.90577 -0.61093,-0.79582 -1.74053,-1.58779 -3.38843,-2.37557 -1.24597,-0.59485 -2.03794,-1.00482 -2.37556,-1.2299 -0.32958,-0.23311 -0.57074,-0.46991 -0.72347,-0.71106 -0.15273,-0.2492 -0.22893,-0.53859 -0.22893,-0.86817 0,-0.53054 0.18909,-0.96078 0.56689,-1.29036 0.37782,-0.32958 0.92042,-0.49454 1.62781,-0.49454 0.59485,0 1.19775,0.0767 1.80868,0.22944 0.61896,0.15274 1.39836,0.42186 2.33887,0.80771 l 1.20613,-2.90577 c -0.90836,-0.39389 -1.78089,-0.69969 -2.6169,-0.91674 -0.82796,-0.21704 -1.69998,-0.32556 -2.61637,-0.32556 z M 85.946189,139.9771 v 17.6289 h 3.737757 v -6.76444 h 1.989542 L 95.8815,157.606 h 4.14807 c -0.803853,-1.15754 -2.5325,-3.71818 -5.185216,-7.68118 1.045009,-0.4582 1.852889,-1.08906 2.423625,-1.89291 0.570736,-0.81189 0.856278,-1.7365 0.856278,-2.77348 0,-1.77651 -0.574931,-3.09852 -1.724442,-3.96668 -1.14951,-0.8762 -2.922022,-1.31465 -5.317505,-1.31465 z m 35.955941,0 v 17.6289 h 6.59598 c 1.99356,0 3.56879,-0.45051 4.72633,-1.35082 1.16559,-0.90032 1.74873,-2.15434 1.74873,-3.76205 0,-1.13343 -0.24936,-2.04161 -0.74776,-2.72489 -0.49035,-0.68328 -1.29438,-1.14969 -2.41174,-1.39888 v -0.12041 c 0.81994,-0.13666 1.47543,-0.54278 1.96578,-1.21801 0.49839,-0.67524 0.74724,-1.53905 0.74724,-2.59209 0,-1.55144 -0.56673,-2.68104 -1.70016,-3.38843 -1.1254,-0.71542 -2.93792,-1.07332 -5.43791,-1.07332 z m 34.52193,0 v 3.11092 h 4.78679 V 157.606 h 3.73775 v -14.51798 h 4.78731 v -3.11092 z m 16.02486,0 v 17.6289 h 3.73776 v -17.6289 z m -62.56827,2.83394 c 2.96621,0 4.44934,1.98519 4.44934,5.95622 0,3.96301 -1.49134,5.94486 -4.47363,5.94486 -1.48713,0 -2.60415,-0.49874 -3.35174,-1.49552 -0.74758,-0.99677 -1.12137,-2.47989 -1.12137,-4.44934 0,-1.96943 0.37763,-3.45256 1.13326,-4.44934 0.75562,-1.00482 1.877,-1.50688 3.36414,-1.50688 z m 36.24585,0 c 2.96622,0 4.44934,1.98519 4.44934,5.95622 0,3.96301 -1.49134,5.94486 -4.47363,5.94486 -1.48713,0 -2.60416,-0.49874 -3.35174,-1.49552 -0.74758,-0.99677 -1.12137,-2.47989 -1.12137,-4.44934 0,-1.96943 0.37763,-3.45256 1.13326,-4.44934 0.75562,-1.00482 1.87701,-1.50688 3.36414,-1.50688 z m -56.442554,0.22892 h 1.133264 c 1.20578,0 2.094217,0.17702 2.664954,0.53072 0.578774,0.35369 0.868164,0.94838 0.868164,1.78439 0,0.84404 -0.281696,1.46284 -0.844393,1.85673 -0.562698,0.39389 -1.434714,0.59118 -2.616378,0.59118 h -1.205611 z m 35.956464,0 h 1.96525 c 1.06913,0 1.84904,0.14855 2.33939,0.44597 0.49839,0.28939 0.74725,0.7717 0.74725,1.44694 0,0.72347 -0.22911,1.24196 -0.6873,1.55546 -0.45016,0.3135 -1.18133,0.47026 -2.19418,0.47026 h -2.17041 z m -97.565624,0.55553 c -0.978405,0 -1.830667,0.20883 -2.556433,0.62683 -0.725765,0.418 -1.281748,1.02009 -1.667598,1.80558 -0.381256,0.78548 -0.571542,1.70188 -0.571542,2.74918 0,1.66283 0.394867,2.94177 1.184941,3.83749 0.790074,0.89114 1.922194,1.33687 3.396692,1.33687 1.001373,0 1.897101,-0.14946 2.687174,-0.44803 v -1.41232 c -0.431784,0.13321 -0.847322,0.24345 -1.246952,0.33073 -0.39963,0.0827 -0.813043,0.12402 -1.240234,0.12402 -0.987593,0 -1.743392,-0.31695 -2.267045,-0.95084 -0.51906,-0.6339 -0.778247,-1.56884 -0.778247,-2.80448 0,-1.18052 0.270842,-2.10593 0.81287,-2.77658 0.542027,-0.67064 1.286171,-1.00614 2.232422,-1.00614 0.418004,0 0.815512,0.062 1.192175,0.18604 0.381256,0.11943 0.741672,0.25988 1.081588,0.42064 l 0.592728,-1.37149 c -0.872755,-0.43178 -1.823605,-0.6475 -2.852539,-0.6475 z m 25.32817,0.10335 -3.768762,10.11463 h 1.736328 l 0.984953,-2.79725 h 3.851961 l 1.005624,2.79725 h 1.75028 l -3.768762,-10.11463 z m -42.95345,0.0413 v 10.07329 h 1.646928 v -4.02353 h 1.62574 l 2.411739,4.02353 h 1.874304 l -2.845821,-4.45761 c 1.30454,-0.53284 1.956987,-1.42645 1.956987,-2.68046 0,-0.983 -0.312701,-1.71813 -0.937411,-2.20503 -0.624709,-0.48691 -1.586698,-0.73019 -2.886645,-0.73019 z m 9.019087,0 v 10.07329 h 1.646928 v -10.07329 z m 13.249838,0 v 10.07329 h 1.646928 v -4.54029 h 4.64416 v 4.54029 h 1.653646 v -10.07329 h -1.653646 v 4.12016 h -4.64416 v -4.12016 z m 10.597286,0 v 10.07329 H 49.2275 v -1.41232 h -4.264856 v -8.66097 z m 16.977258,0 v 10.07329 h 1.494999 v -5.23638 c 0,-0.70738 -0.03181,-1.4881 -0.09612,-2.34249 l -0.03462,-0.44803 h 0.05529 l 4.953703,8.0269 h 2.018998 v -10.07329 h -1.508951 v 5.27771 c 0,0.37207 0.01378,0.89148 0.04134,1.55753 0.02756,0.66145 0.04611,1.04467 0.05529,1.15032 h -0.04134 l -4.940266,-7.98556 z m 11.052038,0 v 10.07329 h 2.817916 c 1.736325,0 3.066137,-0.43834 3.989421,-1.31568 0.923284,-0.88195 1.384928,-2.15452 1.384928,-3.81734 0,-1.56637 -0.445739,-2.78118 -1.336869,-3.64474 -0.89113,-0.86357 -2.138259,-1.29553 -3.741374,-1.29553 z m -17.053222,1.37821 c 0.04593,0.18374 0.128617,0.47313 0.248047,0.86816 0.124023,0.39504 0.220486,0.68443 0.289388,0.86817 l 0.944128,2.74195 h -2.935221 l 0.909505,-2.62516 c 0.23886,-0.67065 0.42013,-1.28813 0.544153,-1.85312 z m 18.699634,0 h 1.426269 c 2.255386,0 3.383256,1.20579 3.383256,3.61735 0,2.46209 -1.212678,3.6928 -3.638021,3.6928 h -1.171504 z m -60.894991,0.0134 h 1.088305 c 0.748733,0 1.309482,0.12402 1.681551,0.37207 0.37207,0.24804 0.558106,0.65721 0.558106,1.2268 0,0.5604 -0.172256,0.98283 -0.516765,1.26762 -0.344509,0.28479 -0.900491,0.42736 -1.667598,0.42736 h -1.143599 z m 113.543976,4.79299 h 2.3151 c 2.09002,0 3.13469,0.73168 3.13469,2.19469 0,0.81189 -0.245,1.41479 -0.73535,1.80868 -0.49035,0.39389 -1.25,0.59066 -2.27893,0.59066 h -2.43551 z" /></g><path
       id="rect50"
       style="opacity:1;stroke-width:0.155"
       d="m 40.933388,87.078217 16.760979,-14.897222 11.853916,33.682215 2.179934,-1.74401 c 1.251884,0.07 1.365707,1.24796 1.669772,2.24074 l 2.789192,-1.7792 c 0.547893,-0.29223 1.363158,0.16888 2.108234,0.43223 l -0.475058,-0.80911 c -0.603265,-0.90943 1.927071,-2.20751 2.945578,-3.31809 L 79.83481,98.466207 c -0.393511,-0.846268 2.132716,-2.268886 3.553506,-3.246973 1.230279,-0.258557 2.221541,0.130303 3.004824,1.082504 l 0.301769,0.625449 3.793752,1.200316 0.890495,-0.25049 c 1.101472,-0.15463 1.627884,0.502148 2.233167,1.047637 l 5.361487,14.80623 c 0.273046,0.95588 0.327661,2.16255 0.133467,3.65488 l 4.049393,4.36714 51.68358,-34.165527 -0.12254,-4.422605 8.33988,-2.128872 c 1.20426,0.591873 0.85859,2.072906 0.95477,3.300462 l 2.81845,-0.640269 c 0.74978,0.267 0.80566,0.841007 0.87578,1.408718 15.33664,5.752595 15.16009,16.825793 0.79149,27.799913 1.37276,2.56664 3.34286,4.94332 0.40833,8.87963 l 1.58666,36.48749 -1.98321,0.13891 -1.98322,0.13892 -1.98321,0.13891 -1.98322,0.13892 -1.98321,0.13891 -1.98322,0.13892 -1.98321,0.13891 -1.98322,0.13892 -1.98321,0.13891 -1.98322,0.13892 -1.98321,0.13891 -1.98322,0.13892 -1.98321,0.13891 -1.98321,0.13891 -1.98322,0.13892 -1.98321,0.13891 -1.98322,0.13892 -1.98321,0.13891 -1.98322,0.13892 -1.98321,0.13891 -1.98322,0.13892 -1.98321,0.13891 -1.98322,0.13892 -1.98321,0.13891 -1.98322,0.13891 -1.98321,0.13892 -1.98321,0.13891 -1.98322,0.13892 -1.98321,0.13891 -1.98322,0.13892 -1.98321,0.13891 -1.98322,0.13892 -8.631951,21.56411 -5.06611,0.47451 c -0.918681,1.72063 -1.965852,1.67463 -3.124771,0.0922 l -1.237435,2.11454 c -0.835406,0.6958 -1.610312,0.58032 -2.311511,-0.52352 l -1.524329,-0.31232 -1.599654,1.17561 c -0.951681,-0.198 -1.799406,-0.58366 -1.772193,-2.54875 -1.37141,0.17991 -2.750864,0.14155 -4.151798,-0.47955 -1.304573,0.89799 -2.650532,1.07084 -4.011724,0.9768 l -0.859527,1.34212 -3.882959,0.33279 c -1.794096,1.05751 -3.720734,1.38253 -5.652662,1.89112 -1.750543,-0.38187 -3.475751,-0.83759 -5.21512,-2.14689 l -8.234232,-0.149 -2.803162,1.01623 -3.180833,-0.0734 -1.416254,2.09293 -4.48783,0.0104 c -0.689313,0.81558 -0.883165,1.92846 -2.416131,2.2378 -0.808006,-0.26951 -1.621287,-0.51659 -2.247611,-1.55825 -1.218306,0.51937 -2.534184,0.74064 -3.906415,0.78975 -1.339409,-0.89864 -1.896222,-2.14699 -2.043115,-3.5785 -2.719844,0.0408 -3.937933,-0.95037 -4.050472,-2.70129 0.377108,-1.72523 0.995111,-3.29407 1.770335,-4.76085 -1.4159,-0.87841 -2.890509,-1.73452 -1.962146,-3.50377 1.276213,-1.63859 2.795814,-3.03541 4.514876,-4.2341 -1.080153,-0.76717 -0.751112,-1.60848 -0.465968,-2.44748 5.107222,-2.71135 9.036563,-2.36831 12.933963,-1.94243 0.907186,0.61514 1.610908,1.33555 1.730645,2.35806 l 1.479649,-0.02 0.36358,-3.04368 4.999718,0.0828 -0.02654,3.22668 7.212573,-0.22393 c 4.132784,-7.37258 10.523442,-9.48898 16.141088,-1.39772 z"
       sodipodi:nodetypes="ccccccccccccccccccccccccccccccccccccccccccccccccccccccccccccccccccccccccccccccccccccccccccccccccc" /></g></svg>
