<svg xmlns="http://www.w3.org/2000/svg" width="210mm" height="297mm" viewBox="0 0 210 297">
  <g fill="#fff">
    <path fill="#000" d="M23.417 7.95A18.47 18.47 0 0 0 4.945 26.422a18.47 18.47 0 0 0 18.472 18.473A18.47 18.47 0 0 0 41.89 26.423a18.5 18.5 0 0 0-2.037-8.422l-.007.003-.26-.505-.062-.109-8.93 8.896-6.982-7.414 8.654-8.66a18.5 18.5 0 0 0-8.85-2.262"/>
    <path fill="#000" d="m21.29 5.099-3.493.759.66 3.043 3.495-.76zm4.805.174-.553 3.064 3.517.634.554-3.063zM13.292 7.535l-2.938 2.039 1.777 2.558 2.937-2.038zm-6.457 5.313-1.934 3.007 2.62 1.684 1.932-3.006zm32.693 4.537-.153.153.372.534.099-.068zM2.902 20.227l-.635 3.518 3.064.553.635-3.517zm41.08.576-3.042.66.759 3.495 3.043-.662zM5.137 27.889l-3.043.66.76 3.494 3.042-.66zm36.368.658-.635 3.518 3.063.553.636-3.519zM7.088 34.773 4.53 36.548l2.038 2.938 2.558-1.776zm32.226.533-1.934 3.008L40 39.997l1.933-3.006zm-27.787 5.08-1.684 2.62 3.006 1.933 1.685-2.62zm23.177.328-2.937 2.038 1.776 2.558 2.937-2.038zm-16.93 3.16-.552 3.064 3.519.635.552-3.064zm10.602.071-3.493.76.661 3.042 3.493-.759z"/>
    <path d="M23.6 12.3c-7.662 0-13.873 6.21-13.873 13.873s6.21 13.873 13.873 13.873 13.873-6.211 13.873-13.873A13.9 13.9 0 0 0 36.3 20.6l-5.706 4.487-4.863-6.67 3.327-4.996A13.9 13.9 0 0 0 23.6 12.3"/>
    <path fill="#000" d="M23.6 13.909a12.26 12.26 0 0 0-12.264 12.264A12.26 12.26 0 0 0 23.6 38.437a12.26 12.26 0 0 0 12.264-12.264 12.2 12.2 0 0 0-.798-4.342l-4.472 4.455-6.981-7.415 4.208-4.211a12.2 12.2 0 0 0-4.22-.751"/>
    <path d="M23.6 15.992c-5.623 0-10.181 4.558-10.182 10.18S17.977 36.356 23.6 36.356s10.182-4.559 10.182-10.182a10.2 10.2 0 0 0-.374-2.691l-2.814.66-4.532-5.373.086-2.434a10.2 10.2 0 0 0-2.548-.343"/>
    <g fill="#000">
      <path d="M41.457 1.511a6.97 6.97 0 0 0-6.971 6.973 6.97 6.97 0 0 0 6.972 6.971 6.97 6.97 0 0 0 6.972-6.971 7 7 0 0 0-.35-2.174l-3.565 3.401a2.117 2.117 0 0 1-2.992-.07l-1.329-1.392a2.117 2.117 0 0 1 .07-2.993l3.51-3.348a7 7 0 0 0-2.316-.397M23.622 19.314a6.97 6.97 0 0 0-6.972 6.973 7 7 0 0 0 .365 2.186l3.275-3.125a2.117 2.117 0 0 1 2.992.07l1.329 1.393a2.117 2.117 0 0 1-.07 2.992l-3.201 3.054a7 7 0 0 0 2.282.402 6.97 6.97 0 0 0 6.972-6.972 6.97 6.97 0 0 0-6.972-6.972"/>
      <path d="m25.02 20.234 12.82-12.82 4.434 4.657-12.82 12.82z"/>
    </g>
  </g>
</svg>
