<?xml version="1.0" encoding="UTF-8" standalone="no"?>
<svg
   width="46.336781mm"
   height="46.235954mm"
   viewBox="0 0 46.336781 46.235954"
   version="1.1"
   id="svg9"
   sodipodi:docname="Logo_BW_Dark.svg"
   inkscape:version="1.3.2 (091e20e, 2023-11-25)"
   xmlns:inkscape="http://www.inkscape.org/namespaces/inkscape"
   xmlns:sodipodi="http://sodipodi.sourceforge.net/DTD/sodipodi-0.dtd"
   xmlns:xlink="http://www.w3.org/1999/xlink"
   xmlns="http://www.w3.org/2000/svg"
   xmlns:svg="http://www.w3.org/2000/svg">
  <sodipodi:namedview
     id="namedview9"
     pagecolor="#ffffff"
     bordercolor="#000000"
     borderopacity="0.25"
     inkscape:showpageshadow="2"
     inkscape:pageopacity="0.0"
     inkscape:pagecheckerboard="0"
     inkscape:deskcolor="#d1d1d1"
     inkscape:document-units="mm"
     inkscape:zoom="1.8245452"
     inkscape:cx="36.173398"
     inkscape:cy="114.82313"
     inkscape:window-width="1680"
     inkscape:window-height="985"
     inkscape:window-x="0"
     inkscape:window-y="0"
     inkscape:window-maximized="1"
     inkscape:current-layer="g9" />
  <defs
     id="defs1">
    <linearGradient
       id="a">
      <stop
         offset="0"
         stop-color="#dbdbdb"
         id="stop1" />
    </linearGradient>
    <linearGradient
       xlink:href="#a"
       id="b"
       x1="114.719"
       x2="128.66299"
       y1="156.519"
       y2="156.519"
       gradientUnits="userSpaceOnUse" />
    <linearGradient
       inkscape:collect="always"
       xlink:href="#a"
       id="linearGradient9"
       x1="84.486"
       y1="155.853"
       x2="121.967"
       y2="155.853"
       gradientUnits="userSpaceOnUse" />
    <linearGradient
       inkscape:collect="always"
       xlink:href="#a"
       id="linearGradient11"
       x1="90.970001"
       y1="161.89799"
       x2="115.854"
       y2="161.89799"
       gradientUnits="userSpaceOnUse" />
  </defs>
  <g
     fill="#ffffff"
     id="g9"
     transform="translate(-2.201e-4)">
    <path
       id="path2"
       style="fill:url(#linearGradient9)"
       d="M 101.06878 152.96023 L 97.524775 153.72984 L 98.141307 156.56976 A 18.74 18.74 0 0 0 94.702153 157.95014 L 92.953741 155.43212 L 89.97384 157.4998 L 91.648331 159.91036 A 18.74 18.74 0 0 0 88.955725 162.46403 L 86.404146 160.82205 L 84.441836 163.8722 L 86.914252 165.46228 A 18.74 18.74 0 0 0 85.417486 168.85111 L 82.413993 168.30797 L 81.769152 171.87714 L 84.643152 172.39564 A 18.74 18.74 0 0 0 84.485874 174.59282 A 18.74 18.74 0 0 0 84.593871 176.10007 L 81.593 176.7512 L 82.36314 180.29521 L 85.203063 179.67868 A 18.74 18.74 0 0 0 86.583443 183.11835 L 84.064892 184.86624 L 86.133103 187.84614 L 88.543656 186.17218 A 18.74 18.74 0 0 0 91.097332 188.86373 L 89.454822 191.41689 L 92.504974 193.37815 L 94.095583 190.90573 A 18.74 18.74 0 0 0 97.483359 192.4025 L 96.940748 195.40599 L 100.51097 196.05083 L 101.02841 193.17683 A 18.74 18.74 0 0 0 103.22612 193.33411 A 18.74 18.74 0 0 0 104.73179 193.22664 L 105.38398 196.22698 L 108.92798 195.45684 L 108.31093 192.61744 A 18.74 18.74 0 0 0 111.7506 191.23706 L 113.49902 193.75509 L 116.47892 191.68688 L 114.80495 189.27633 A 18.74 18.74 0 0 0 117.49598 186.7237 L 120.04914 188.36516 L 122.01092 185.31501 L 119.53851 183.7244 A 18.74 18.74 0 0 0 121.03527 180.33662 L 124.03876 180.87923 L 124.68413 177.30902 L 121.80961 176.79105 A 18.74 18.74 0 0 0 121.96688 174.59387 A 18.74 18.74 0 0 0 121.87671 173.08452 L 124.85976 172.43601 L 124.09014 168.892 L 121.23239 169.5122 A 18.74 18.74 0 0 0 119.90077 166.04998 L 119.89291 166.05313 L 119.63025 165.53987 L 119.62658 165.53358 L 119.57101 165.42506 L 119.56682 165.42978 L 119.41583 165.58024 L 116.29647 168.68806 A 14.101654 14.101654 0 0 1 117.48602 174.34012 C 117.48602 182.11327 111.18587 188.41444 103.41171 188.41444 C 95.637542 188.41444 89.337387 182.11327 89.337387 174.34012 C 89.337387 166.56698 95.638557 160.26686 103.41171 160.26686 L 103.41171 160.26581 A 14.101654 14.101654 0 0 1 108.94895 161.40398 L 112.20409 158.14674 A 18.74 18.74 0 0 0 108.9673 156.79415 L 109.51201 153.78122 L 105.94284 153.1369 L 105.42749 155.9915 A 18.74 18.74 0 0 0 103.22612 155.8531 A 18.74 18.74 0 0 0 101.72096 155.96057 L 101.06878 152.96023 z "
       transform="matrix(0.9857,0,0,0.9857,-80.426,-147.185)" />
    <path
       id="path5"
       style="fill:url(#linearGradient11)"
       d="M 103.41223 161.89783 A 12.44 12.44 0 0 0 90.969937 174.34012 A 12.44 12.44 0 0 0 103.41223 186.78189 A 12.44 12.44 0 0 0 115.854 174.34012 A 12.4 12.4 0 0 0 115.04401 169.93476 L 113.36323 171.60977 A 10.347976 10.347976 0 0 1 113.74227 174.34012 C 113.74227 180.04469 109.11627 184.66964 103.41171 184.66964 C 97.707135 184.66964 93.081171 180.04469 93.082185 174.34012 C 93.0832 168.63555 97.707135 164.0106 103.41171 164.0106 L 103.41275 164.01113 A 10.347976 10.347976 0 0 1 105.99631 164.35871 L 107.69387 162.66011 A 12.4 12.4 0 0 0 103.41223 161.89783 z "
       transform="matrix(0.9857,0,0,0.9857,-80.426,-147.185)" />
    <path
       id="path7"
       style="fill:#dbdbdb;fill-opacity:1"
       d="M 121.69023 149.547 A 6.97 6.97 0 0 0 114.71907 156.52022 A 6.97 6.97 0 0 0 115.01105 158.51131 L 105.8731 167.64925 A 6.97 6.97 0 0 0 103.85514 167.35108 L 103.85514 167.35005 A 6.97 6.97 0 0 0 96.882954 174.32275 A 7 7 0 0 0 97.24779 176.50918 L 100.52304 173.38379 A 2.117 2.117 0 0 1 103.51511 173.45407 L 104.84423 174.84675 A 2.117 2.117 0 0 1 104.77395 177.83881 L 101.57311 180.89289 A 7 7 0 0 0 103.85514 181.29493 A 6.97 6.97 0 0 0 110.82681 174.32275 A 6.97 6.97 0 0 0 110.47489 172.13994 L 119.49243 163.12188 A 6.97 6.97 0 0 0 121.69074 163.49085 A 6.97 6.97 0 0 0 128.66293 156.52022 A 7 7 0 0 0 128.31308 154.34619 L 124.74792 157.74702 A 2.117 2.117 0 0 1 121.75585 157.67725 L 120.42725 156.28509 A 2.117 2.117 0 0 1 120.49702 153.29199 L 124.00688 149.94387 A 7 7 0 0 0 121.69074 149.547 L 121.69023 149.547 z "
       transform="translate(-82.326,-149.547)" />
  </g>
</svg>
