<?xml version="1.0" encoding="UTF-8" standalone="no"?>
<!-- Created with Inkscape (http://www.inkscape.org/) -->

<svg
   width="36.040661cm"
   height="4.9890752cm"
   viewBox="0 0 360.40661 49.890752"
   version="1.1"
   id="svg1"
   inkscape:version="1.3.2 (091e20ef0f, 2023-11-25, custom)"
   sodipodi:docname="Logo_BW_Light_Horiz.svg"
   xmlns:inkscape="http://www.inkscape.org/namespaces/inkscape"
   xmlns:sodipodi="http://sodipodi.sourceforge.net/DTD/sodipodi-0.dtd"
   xmlns="http://www.w3.org/2000/svg"
   xmlns:svg="http://www.w3.org/2000/svg">
  <sodipodi:namedview
     id="namedview1"
     pagecolor="#ffffff"
     bordercolor="#000000"
     borderopacity="0.25"
     inkscape:showpageshadow="2"
     inkscape:pageopacity="0.0"
     inkscape:pagecheckerboard="0"
     inkscape:deskcolor="#d1d1d1"
     inkscape:document-units="mm"
     inkscape:zoom="0.90509668"
     inkscape:cx="359.63009"
     inkscape:cy="101.6466"
     inkscape:window-width="2516"
     inkscape:window-height="1356"
     inkscape:window-x="0"
     inkscape:window-y="0"
     inkscape:window-maximized="1"
     inkscape:current-layer="layer1" />
  <defs
     id="defs1" />
  <g
     inkscape:label="Layer 1"
     inkscape:groupmode="layer"
     id="layer1"
     transform="translate(1.719934e-6,-1.1324844e-5)">
    <path
       id="path2-3"
       style="display:inline;fill:#353535;fill-opacity:1;stroke-width:0.522406"
       d="M 23.00987,6.9478505 A 19.932613,19.932613 0 0 0 3.0774615,26.88083 19.932613,19.932613 0 0 0 23.00987,46.813236 19.932613,19.932613 0 0 0 42.94285,26.88083 19.932613,19.932613 0 0 0 40.744734,17.79397 l -0.0085,0.0032 -0.279368,-0.545899 a 19.932613,19.932613 0 0 0 -0.0669,-0.117093 l -9.636653,9.599299 -7.532794,-8.001189 9.337778,-9.3439036 A 19.932613,19.932613 0 0 0 23.009732,6.9482547 Z" />
    <path
       id="rect3-4"
       style="display:inline;fill:#353535;fill-opacity:1;stroke-width:0.140397"
       d="m 20.714742,3.8709458 -3.768903,0.8191309 0.713187,3.2832244 3.769464,-0.819684 z m 5.184677,0.1879191 -0.597197,3.3060815 3.795663,0.6853071 0.597208,-3.3060815 z m -13.815403,2.4417895 -3.1689103,2.199222 1.9159563,2.7601826 3.16891,-2.1992331 z m -6.9673659,5.7322466 -2.086028,3.244754 2.8259793,1.816693 2.086028,-3.244179 z m 35.2779109,4.896396 -0.165062,0.164498 0.400365,0.576574 0.10651,-0.0736 z m -39.52134176,3.066311 -0.68530607,3.795673 3.30608463,0.597197 0.685305,-3.795662 z m 44.32739376,0.620629 -3.283214,0.713737 0.819684,3.769466 3.282672,-0.713748 z M 3.2832195,28.46221 -1.719934e-6,29.175958 0.81968866,32.94486 4.1023526,32.231676 Z m 39.2430875,0.710962 -0.68586,3.795662 3.306081,0.597208 0.685861,-3.796226 z m -37.1364275,6.717556 -2.760181,1.91595 2.1997803,3.168918 2.7596237,-1.915961 z m 34.7732705,0.57601 -2.086032,3.244743 2.825977,1.816704 2.086033,-3.244743 z m -29.983937,5.48133 -1.8167011,2.825977 3.2447461,2.086032 1.816701,-2.825977 z m 25.010036,0.353523 -3.168918,2.199233 1.915397,2.760172 3.168918,-2.199775 z m -18.267387,3.409805 -0.597203,3.306082 3.796225,0.685307 0.596645,-3.306081 z m 11.438864,0.07701 -3.769465,0.819131 0.713748,3.283224 3.769455,-0.819694 z" />
    <path
       id="circle3-9"
       style="display:inline;fill:#ffffff;fill-opacity:1;stroke-width:0.19135"
       d="m 23.207266,11.641277 c -8.267511,1.1e-5 -14.9696499,6.702155 -14.9696595,14.969662 9.6e-6,8.267506 6.7021485,14.969651 14.9696595,14.969661 8.267517,-10e-6 14.969651,-6.702144 14.969662,-14.969661 -0.0011,-2.069983 -0.432338,-4.117151 -1.265221,-6.012179 l -6.157713,4.841385 -5.24709,-7.197054 3.589864,-5.390678 c -1.861046,-0.79788 -3.864627,-1.209902 -5.889502,-1.211136 z"
       sodipodi:nodetypes="csscccccc" />
    <path
       id="circle4-1"
       style="display:inline;fill:#353535;fill-opacity:1;stroke-width:0.169161"
       d="M 23.207266,13.377125 A 13.233765,13.233765 0 0 0 9.9734538,26.610939 13.233765,13.233765 0 0 0 23.207266,39.844752 13.233765,13.233765 0 0 0 36.441079,26.610939 13.233765,13.233765 0 0 0 35.579574,21.925319 l -4.826133,4.807744 -7.532795,-8.001189 4.540639,-4.543978 a 13.233765,13.233765 0 0 0 -4.554019,-0.810771 z" />
    <path
       id="circle5-7"
       style="display:inline;fill:#ffffff;fill-opacity:1;stroke-width:0.140433"
       d="m 23.207266,15.624859 c -6.067375,1.7e-4 -10.985912,4.91871 -10.986077,10.98608 -1.47e-4,6.067593 4.918482,10.986473 10.986077,10.986643 6.067816,1.49e-4 10.986793,-4.918827 10.986644,-10.986643 -0.0043,-0.981332 -0.140099,-1.957665 -0.403716,-2.90293 l -3.0362,0.712706 -4.890663,-5.798957 0.09296,-2.627198 C 25.05924,15.755683 24.135545,15.631453 23.207255,15.624859 Z"
       sodipodi:nodetypes="csscccccc" />
    <path
       id="path6-9"
       style="display:inline;fill:#353535;fill-opacity:1;stroke-width:1.079;stroke-dasharray:none"
       d="M 42.476679,1.13278e-5 A 7.5230851,7.5230851 0 0 0 34.953383,7.523329 7.5230851,7.5230851 0 0 0 42.476679,15.046062 7.5230851,7.5230851 0 0 0 49.999997,7.523329 7.5230851,7.5230851 0 0 0 49.622488,5.1779985 L 45.776081,8.8482079 A 2.2839805,2.2839805 0 0 1 42.546952,8.7723723 L 41.113319,7.2701572 a 2.2839805,2.2839805 0 0 1 0.07584,-3.2291291 L 44.97534,0.42826447 A 7.5230851,7.5230851 0 0 0 42.47669,1.13278e-5 Z" />
    <path
       id="circle6-5"
       style="display:inline;fill:#353535;fill-opacity:1;stroke-width:1.079;stroke-dasharray:none"
       d="m 23.230687,19.210319 a 7.5230851,7.5230851 0 0 0 -7.522742,7.523307 7.5230851,7.5230851 0 0 0 0.393675,2.359253 l 3.533597,-3.371876 a 2.2839805,2.2839805 0 0 1 3.22913,0.07584 l 1.433622,1.502205 a 2.2839805,2.2839805 0 0 1 -0.07583,3.229129 l -3.45386,3.295499 a 7.5230851,7.5230851 0 0 0 2.462413,0.433262 7.5230851,7.5230851 0 0 0 7.523317,-7.523307 7.5230851,7.5230851 0 0 0 -7.523317,-7.523307 z" />
    <path
       id="path3-4"
       style="display:none;fill:#000000;fill-opacity:1;stroke-width:1.079;stroke-dasharray:none"
       d="M 23.220582,18.731715 32.561008,9.3851835 35.572022,4.5347254 44.5866,12.900222 43.984521,16.669699 40.736555,17.796639 40.394401,17.12918 30.7536,26.733201 Z"
       sodipodi:nodetypes="ccccccccc" />
    <path
       id="rect6-1"
       style="display:inline;fill:#353535;fill-opacity:1;stroke-width:1.079;stroke-dasharray:none"
       d="m 24.740719,20.202819 13.832989,-13.8329996 4.783993,5.0245186 -13.832989,13.833 z"
       sodipodi:nodetypes="ccccc" />
    <text
       xml:space="preserve"
       style="font-style:normal;font-variant:normal;font-weight:500;font-stretch:normal;font-size:349.998px;font-family:Roboto;-inkscape-font-specification:'Roboto Medium';letter-spacing:0.224896px;fill:#000000;fill-opacity:1;stroke-width:1.079;stroke-dasharray:none"
       x="60.32016"
       y="26.733644"
       id="text1"><tspan
         sodipodi:role="line"
         id="tspan1"
         style="fill:#000000;fill-opacity:1;stroke-width:1.079"
         x="60.32016"
         y="26.733644" /></text>
    <path
       d="m 65.992054,26.138774 h 2.836898 q 2.853988,0 4.135719,-1.059564 1.281731,-1.059564 1.281731,-3.144513 0,-2.119129 -1.38427,-3.041975 -1.384269,-0.922847 -4.169898,-0.922847 h -2.70018 z m 0,3.38377 v 9.980412 h -4.084449 v -24.98521 h 7.058065 q 4.836398,0 7.160604,1.811514 2.324206,1.811513 2.324206,5.468719 0,4.665501 -4.853489,6.647911 l 7.058066,11.057066 h -4.648411 l -5.981412,-9.980412 z m 22.099773,9.980412 h -4.016091 v -18.90126 h 4.016091 z M 83.83648,15.5944 q 0,-1.076654 0.581051,-1.657705 0.598141,-0.581051 1.691885,-0.581051 1.059564,0 1.640616,0.581051 0.598141,0.581051 0.598141,1.657705 0,1.025385 -0.598141,1.623526 -0.581052,0.581052 -1.640616,0.581052 -1.093744,0 -1.691885,-0.581052 Q 83.83648,16.619785 83.83648,15.5944 Z m 17.84443,24.250351 q -4.289531,0 -6.528287,-2.495103 -2.221667,-2.512193 -2.221667,-7.194783 0,-4.76804 2.324205,-7.331502 2.341295,-2.563462 6.750449,-2.563462 2.99071,0 5.38327,1.110834 l -1.21337,3.229962 q -2.54637,-0.991205 -4.20408,-0.991205 -4.904756,0 -4.904756,6.511193 0,3.178693 1.213372,4.785129 1.230462,1.589347 3.588844,1.589347 2.68309,0 5.07566,-1.333 v 3.503398 q -1.07666,0.63232 -2.30712,0.905756 -1.21337,0.273436 -2.95652,0.273436 z m 26.56019,-0.341795 h -4.03318 V 27.881929 q 0,-2.187488 -0.88867,-3.264142 -0.87157,-1.076654 -2.78563,-1.076654 -2.52928,0 -3.72556,1.520987 -1.17919,1.503898 -1.17919,5.058565 v 9.382271 h -4.01609 V 12.91131 h 4.01609 v 6.75045 q 0,1.623526 -0.20508,3.469219 h 0.25635 q 0.8203,-1.36718 2.27293,-2.119129 1.46972,-0.751949 3.41795,-0.751949 6.87008,0 6.87008,6.921348 z m 9.82933,0 h -4.01609 V 12.91131 h 4.01609 z m 17.79316,0 -0.80321,-2.631821 h -0.13672 q -1.36718,1.726065 -2.75145,2.358385 -1.38427,0.615231 -3.55467,0.615231 -2.78563,0 -4.35788,-1.503897 -1.55517,-1.503898 -1.55517,-4.255347 0,-2.922347 2.1704,-4.409155 2.1704,-1.486808 6.61373,-1.623526 l 3.26414,-0.102539 v -1.008295 q 0,-1.811513 -0.85449,-2.70018 -0.83739,-0.905756 -2.61473,-0.905756 -1.45263,0 -2.78563,0.427244 -1.333,0.427243 -2.56346,1.008295 l -1.29882,-2.871078 q 1.53808,-0.803218 3.36668,-1.213372 1.8286,-0.427244 3.45213,-0.427244 3.60594,0 5.43454,1.572257 1.84569,1.572257 1.84569,4.938937 v 12.731861 z m -5.98141,-2.734359 q 2.18749,0 3.5034,-1.213372 1.333,-1.230462 1.333,-3.435039 V 30.47957 l -2.42674,0.102539 q -2.8369,0.102538 -4.13572,0.957025 -1.28173,0.837398 -1.28173,2.580552 0,1.264641 0.75195,1.965321 0.75195,0.68359 2.25584,0.68359 z m 31.31115,2.734359 h -4.03319 V 27.881929 q 0,-2.187488 -0.88866,-3.264142 -0.87158,-1.076654 -2.78563,-1.076654 -2.54637,0 -3.72557,1.503898 -1.17919,1.503897 -1.17919,5.041475 v 9.41645 H 164.565 v -18.90126 h 3.14451 l 0.56397,2.478014 h 0.20507 q 0.85449,-1.35009 2.42675,-2.084949 1.57225,-0.73486 3.48631,-0.73486 6.80172,0 6.80172,6.921348 z m 12.18771,0.341795 q -3.53757,0 -5.51998,-2.563462 -1.98242,-2.563462 -1.98242,-7.194783 0,-4.648411 1.9995,-7.228963 2.0166,-2.597642 5.57126,-2.597642 3.72557,0 5.6738,2.75145 h 0.20508 q -0.29053,-2.03368 -0.29053,-3.212873 V 12.91131 h 4.03318 v 26.591646 h -3.14451 l -0.70068,-2.478013 h -0.18799 q -1.93114,2.819808 -5.65671,2.819808 z m 1.07666,-3.247052 q 2.47801,0 3.60593,-1.384269 1.12793,-1.401359 1.16211,-4.528783 v -0.563962 q 0,-3.571757 -1.16211,-5.075654 -1.1621,-1.503898 -3.64011,-1.503898 -2.11913,0 -3.26414,1.726064 -1.14502,1.708975 -1.14502,4.887668 0,3.144513 1.11084,4.802219 1.11083,1.640615 3.3325,1.640615 z m 28.40862,-10.458925 h 2.8369 q 2.85399,0 4.13572,-1.059564 1.28173,-1.059564 1.28173,-3.144513 0,-2.119129 -1.38427,-3.041975 -1.38427,-0.922847 -4.1699,-0.922847 h -2.70018 z m 0,3.38377 v 9.980412 h -4.08445 v -24.98521 h 7.05807 q 4.8364,0 7.1606,1.811514 2.32421,1.811513 2.32421,5.468719 0,4.665501 -4.85349,6.647911 l 7.05806,11.057066 h -4.64841 l -5.98141,-9.980412 z m 34.84872,0.495603 q 0,4.631321 -2.37548,7.228963 -2.37547,2.597641 -6.61373,2.597641 -2.64891,0 -4.68259,-1.196282 -2.03368,-1.196282 -3.12742,-3.435039 -1.09375,-2.238757 -1.09375,-5.195283 0,-4.597142 2.35839,-7.177694 2.35838,-2.580552 6.64791,-2.580552 4.10154,0 6.4941,2.648911 2.39257,2.631821 2.39257,7.109335 z m -13.75725,0 q 0,6.545373 4.8364,6.545373 4.78513,0 4.78513,-6.545373 0,-6.477014 -4.81931,-6.477014 -2.52928,0 -3.6743,1.674795 -1.12792,1.674795 -1.12792,4.802219 z m 28.25208,-9.758246 q 3.53758,0 5.5029,2.563462 1.98241,2.563462 1.98241,7.194784 0,4.648411 -1.9995,7.246053 -1.9995,2.580551 -5.55416,2.580551 -3.58885,0 -5.57126,-2.580551 h -0.27344 l -0.73486,2.238756 h -3.00779 V 12.91131 h 4.01609 v 6.323207 q 0,0.700679 -0.0684,2.084949 -0.0684,1.384269 -0.10254,1.760244 h 0.1709 q 1.91405,-2.819809 5.63961,-2.819809 z m -1.04247,3.281232 q -2.42674,0 -3.5034,1.435539 -1.05956,1.418449 -1.09374,4.768039 v 0.273436 q 0,3.452129 1.09374,5.007296 1.09375,1.538077 3.57176,1.538077 2.13622,0 3.22996,-1.691885 1.11083,-1.691885 1.11083,-4.887668 0,-6.442834 -4.40915,-6.442834 z m 30.18323,6.477014 q 0,4.631321 -2.37548,7.228963 -2.37547,2.597641 -6.61373,2.597641 -2.64891,0 -4.68259,-1.196282 -2.03368,-1.196282 -3.12742,-3.435039 -1.09375,-2.238757 -1.09375,-5.195283 0,-4.597142 2.35839,-7.177694 2.35838,-2.580552 6.64791,-2.580552 4.10154,0 6.4941,2.648911 2.39257,2.631821 2.39257,7.109335 z m -13.75725,0 q 0,6.545373 4.8364,6.545373 4.78513,0 4.78513,-6.545373 0,-6.477014 -4.81931,-6.477014 -2.52928,0 -3.6743,1.674795 -1.12792,1.674795 -1.12792,4.802219 z m 25.63734,6.579552 q 1.46972,0 2.93943,-0.461423 v 3.024885 q -0.6665,0.290526 -1.72606,0.478513 -1.04247,0.205077 -2.1704,0.205077 -5.70797,0 -5.70797,-6.015591 V 23.643671 h -2.58056 v -1.777333 l 2.76854,-1.469719 1.36718,-3.999 h 2.47802 v 4.204077 h 5.38327 v 3.041975 h -5.38327 v 10.11713 q 0,1.452629 0.71777,2.153309 0.73486,0.683589 1.91405,0.683589 z m 10.95726,2.905257 h -4.01609 v -18.90126 h 4.01609 z M 319.93263,15.5944 q 0,-1.076654 0.58105,-1.657705 0.59815,-0.581051 1.69189,-0.581051 1.05956,0 1.64061,0.581051 0.59815,0.581051 0.59815,1.657705 0,1.025385 -0.59815,1.623526 -0.58105,0.581052 -1.64061,0.581052 -1.09374,0 -1.69189,-0.581052 -0.58105,-0.598141 -0.58105,-1.623526 z m 17.84444,24.250351 q -4.28953,0 -6.52828,-2.495103 -2.22167,-2.512193 -2.22167,-7.194783 0,-4.76804 2.32421,-7.331502 2.34129,-2.563462 6.75045,-2.563462 2.9907,0 5.38327,1.110834 l -1.21338,3.229962 q -2.54637,-0.991205 -4.20407,-0.991205 -4.90476,0 -4.90476,6.511193 0,3.178693 1.21337,4.785129 1.23046,1.589347 3.58885,1.589347 2.68309,0 5.07565,-1.333 v 3.503398 q -1.07665,0.63232 -2.30711,0.905756 -1.21338,0.273436 -2.95653,0.273436 z m 22.62955,-5.725065 q 0,2.768539 -2.01659,4.255347 -2.01659,1.469718 -5.77634,1.469718 -3.77683,0 -6.06686,-1.145013 V 35.23052 q 3.33251,1.538077 6.20358,1.538077 3.70848,0 3.70848,-2.238757 0,-0.717769 -0.41016,-1.196282 -0.41015,-0.478513 -1.35009,-0.991206 -0.93993,-0.512692 -2.61473,-1.162102 -3.26414,-1.264642 -4.42624,-2.529283 -1.14501,-1.264641 -1.14501,-3.281231 0,-2.426744 1.94823,-3.759745 1.96532,-1.35009 5.332,-1.35009 3.3325,0 6.30611,1.35009 l -1.29882,3.024886 q -3.05906,-1.264642 -5.14401,-1.264642 -3.17869,0 -3.17869,1.811513 0,0.888667 0.8203,1.503898 0.8374,0.615231 3.62303,1.691885 2.3413,0.905757 3.40086,1.657706 1.05956,0.751948 1.57226,1.743154 0.51269,0.974115 0.51269,2.341295 z"
       id="text2"
       style="font-weight:600;font-size:34.9998px;font-family:'Open Sans';-inkscape-font-specification:'Open Sans Semi-Bold';letter-spacing:0.224896px;fill:#353535;stroke-width:1.079"
       aria-label="Richland Robotics" />
  </g>
</svg>
