<svg xmlns="http://www.w3.org/2000/svg" width="1362.167" height="188.563" viewBox="0 0 360.407 49.891">
  <path fill="#353535" d="M23.01 6.948A19.933 19.933 0 0 0 3.077 26.88 19.933 19.933 0 0 0 23.01 46.813a19.933 19.933 0 0 0 19.933-19.932 19.9 19.9 0 0 0-2.198-9.087l-.009.003-.28-.546-.066-.117-9.637 9.6-7.532-8.002 9.337-9.344a19.9 19.9 0 0 0-9.548-2.44"/>
  <path fill="#353535" d="m20.715 3.87-3.77.82.714 3.283 3.77-.82zm5.184.189-.597 3.306 3.796.685.597-3.306zM12.084 6.5 8.915 8.7l1.916 2.76L14 9.26zm-6.967 5.732L3.03 15.478l2.826 1.816 2.086-3.244zm35.278 4.896-.166.165.4.576.107-.073zM.873 20.196.188 23.99l3.306.597.685-3.795zm44.328.62-3.284.714.82 3.77 3.283-.714zM3.283 28.462 0 29.176l.82 3.769 3.282-.713Zm39.243.711-.686 3.796 3.307.597.685-3.796zM5.39 35.891l-2.76 1.916 2.2 3.169 2.76-1.916zm34.773.576-2.086 3.244 2.826 1.817 2.086-3.245zM10.18 41.948l-1.816 2.826 3.244 2.086 1.817-2.826zm25.01.354L32.02 44.5l1.916 2.76 3.169-2.2zm-18.267 3.41-.597 3.305 3.796.686.597-3.306zm11.439.076-3.77.82.714 3.283 3.77-.82z"/>
  <path fill="#fff" d="M23.207 11.641c-8.267 0-14.97 6.702-14.97 14.97 0 8.267 6.703 14.97 14.97 14.97 8.268 0 14.97-6.703 14.97-14.97a15 15 0 0 0-1.265-6.012l-6.158 4.841-5.247-7.197 3.59-5.39a15 15 0 0 0-5.89-1.212"/>
  <path fill="#353535" d="M23.207 13.377A13.234 13.234 0 0 0 9.973 26.611a13.234 13.234 0 0 0 13.234 13.234A13.234 13.234 0 0 0 36.441 26.61a13.2 13.2 0 0 0-.861-4.686l-4.827 4.808-7.532-8.001 4.54-4.544a13.2 13.2 0 0 0-4.554-.81"/>
  <path fill="#fff" d="M23.207 15.625c-6.067 0-10.986 4.919-10.986 10.986s4.919 10.986 10.986 10.987 10.987-4.92 10.987-10.987a11 11 0 0 0-.404-2.903l-3.036.713-4.89-5.8.092-2.626a11 11 0 0 0-2.749-.37"/>
  <path fill="#353535" d="M42.477 0a7.523 7.523 0 0 0-7.524 7.523 7.523 7.523 0 0 0 7.524 7.523A7.523 7.523 0 0 0 50 7.523a7.5 7.5 0 0 0-.378-2.345l-3.846 3.67a2.284 2.284 0 0 1-3.229-.076L41.113 7.27a2.284 2.284 0 0 1 .076-3.229L44.975.428A7.5 7.5 0 0 0 42.477 0M23.23 19.21a7.523 7.523 0 0 0-7.522 7.524 7.5 7.5 0 0 0 .394 2.359l3.533-3.372a2.284 2.284 0 0 1 3.23.076l1.433 1.502a2.284 2.284 0 0 1-.076 3.23l-3.454 3.295a7.5 7.5 0 0 0 2.463.433 7.523 7.523 0 0 0 7.523-7.523 7.523 7.523 0 0 0-7.523-7.524"/>
  <path fill="#353535" d="M24.74 20.203 38.575 6.37l4.784 5.024-13.833 13.833z"/>
  <path fill="#353535" d="M65.992 26.139h2.837q2.854 0 4.136-1.06 1.281-1.06 1.281-3.144 0-2.12-1.384-3.042-1.384-.923-4.17-.923h-2.7zm0 3.384v9.98h-4.084V14.518h7.058q4.836 0 7.16 1.811 2.324 1.812 2.324 5.469 0 4.665-4.853 6.648l7.058 11.057h-4.648l-5.982-9.98zm22.1 9.98h-4.016V20.602h4.016zm-4.256-23.909q0-1.076.582-1.657.598-.581 1.691-.581 1.06 0 1.641.58.598.582.598 1.658 0 1.026-.598 1.624-.581.581-1.64.581-1.094 0-1.692-.581-.582-.598-.582-1.624m17.845 24.25q-4.29 0-6.528-2.494-2.222-2.513-2.222-7.195 0-4.768 2.324-7.332 2.341-2.563 6.75-2.563 2.991 0 5.384 1.11l-1.213 3.23q-2.547-.99-4.205-.99-4.904 0-4.904 6.51 0 3.18 1.213 4.786 1.23 1.59 3.589 1.59 2.683 0 5.076-1.334v3.504q-1.077.632-2.308.905-1.213.274-2.956.274m26.56-.341h-4.033V27.882q0-2.188-.889-3.264-.871-1.077-2.785-1.077-2.53 0-3.726 1.521-1.18 1.504-1.18 5.059v9.382h-4.015V12.911h4.016v6.75q0 1.624-.205 3.47h.256q.82-1.367 2.273-2.12 1.47-.751 3.418-.751 6.87 0 6.87 6.921zm9.83 0h-4.017V12.911h4.016zm17.793 0-.804-2.632h-.136q-1.368 1.726-2.752 2.359-1.384.615-3.554.615-2.786 0-4.358-1.504-1.556-1.504-1.556-4.255 0-2.923 2.17-4.41 2.171-1.486 6.615-1.623l3.264-.103v-1.008q0-1.812-.855-2.7-.837-.906-2.614-.906-1.453 0-2.786.427-1.333.428-2.564 1.009l-1.298-2.871q1.538-.804 3.366-1.214 1.829-.427 3.452-.427 3.606 0 5.435 1.572 1.846 1.572 1.846 4.94v12.731zm-5.982-2.734q2.188 0 3.504-1.214 1.333-1.23 1.333-3.435v-1.64l-2.427.102q-2.837.103-4.136.957-1.282.838-1.282 2.58 0 1.265.752 1.966.752.684 2.256.684m31.311 2.734h-4.033V27.882q0-2.188-.889-3.264-.871-1.077-2.785-1.077-2.547 0-3.726 1.504t-1.179 5.042v9.416h-4.016V20.602h3.145l.563 2.478h.206q.854-1.35 2.426-2.085t3.487-.735q6.801 0 6.801 6.921zm12.188.342q-3.538 0-5.52-2.564t-1.982-7.194q0-4.649 2-7.23 2.016-2.597 5.57-2.597 3.726 0 5.674 2.751h.205q-.29-2.033-.29-3.213v-6.887h4.033v26.592h-3.145l-.7-2.478h-.188q-1.931 2.82-5.657 2.82m1.077-3.247q2.478 0 3.606-1.385 1.128-1.4 1.162-4.528v-.564q0-3.572-1.162-5.076t-3.64-1.504q-2.12 0-3.265 1.726-1.145 1.71-1.145 4.888 0 3.144 1.111 4.802 1.111 1.64 3.333 1.64m28.408-10.46h2.837q2.854 0 4.136-1.059 1.282-1.06 1.282-3.144 0-2.12-1.385-3.042-1.384-.923-4.17-.923h-2.7zm0 3.385v9.98h-4.084V14.518h7.058q4.836 0 7.16 1.811 2.325 1.812 2.325 5.469 0 4.665-4.854 6.648l7.058 11.057h-4.648l-5.982-9.98zm34.849.495q0 4.631-2.375 7.23-2.376 2.597-6.614 2.597-2.65 0-4.683-1.197-2.033-1.196-3.127-3.435t-1.094-5.195q0-4.597 2.358-7.178t6.648-2.58q4.102 0 6.494 2.649 2.393 2.632 2.393 7.11m-13.757 0q0 6.546 4.836 6.546 4.785 0 4.785-6.546 0-6.477-4.819-6.477-2.53 0-3.674 1.675-1.128 1.675-1.128 4.802m28.252-9.758q3.537 0 5.503 2.563 1.982 2.564 1.982 7.195 0 4.649-2 7.246-1.999 2.58-5.553 2.58-3.59 0-5.572-2.58h-.273l-.735 2.239h-3.008V12.911h4.016v6.324q0 .7-.068 2.084-.069 1.385-.103 1.76h.171q1.914-2.82 5.64-2.82m-1.043 3.281q-2.426 0-3.503 1.436-1.06 1.418-1.094 4.768v.273q0 3.452 1.094 5.007 1.094 1.539 3.572 1.539 2.136 0 3.23-1.692 1.11-1.692 1.11-4.888 0-6.443-4.409-6.443m30.184 6.477q0 4.631-2.376 7.23-2.375 2.597-6.614 2.597-2.648 0-4.682-1.197-2.034-1.196-3.128-3.435-1.093-2.238-1.093-5.195 0-4.597 2.358-7.178t6.648-2.58q4.102 0 6.494 2.649 2.393 2.632 2.393 7.11m-13.758 0q0 6.546 4.837 6.546 4.785 0 4.785-6.546 0-6.477-4.82-6.477-2.529 0-3.674 1.675-1.128 1.675-1.128 4.802m25.638 6.58q1.47 0 2.94-.462v3.025q-.667.29-1.727.479-1.042.205-2.17.205-5.708 0-5.708-6.016V23.644h-2.58v-1.778l2.768-1.47 1.367-3.998h2.478v4.204h5.383v3.042H310.6V33.76q0 1.452.718 2.153.735.684 1.914.684m10.957 2.905h-4.016v-18.9h4.016zm-4.255-23.909q0-1.076.58-1.657.599-.581 1.693-.581 1.06 0 1.64.58.598.582.598 1.658 0 1.026-.598 1.624-.58.581-1.64.581-1.094 0-1.692-.581-.581-.598-.581-1.624m17.844 24.25q-4.29 0-6.528-2.494-2.222-2.513-2.222-7.195 0-4.768 2.324-7.332 2.342-2.563 6.75-2.563 2.991 0 5.384 1.11l-1.213 3.23q-2.547-.99-4.204-.99-4.905 0-4.905 6.51 0 3.18 1.213 4.786 1.23 1.59 3.59 1.59 2.682 0 5.075-1.334v3.504q-1.077.632-2.307.905-1.214.274-2.957.274m22.63-5.724q0 2.768-2.017 4.255-2.017 1.47-5.776 1.47-3.777 0-6.067-1.145v-3.47q3.332 1.539 6.203 1.539 3.709 0 3.709-2.24 0-.717-.41-1.195t-1.35-.992-2.615-1.162q-3.264-1.264-4.426-2.529-1.145-1.265-1.145-3.281 0-2.427 1.948-3.76 1.965-1.35 5.332-1.35 3.332 0 6.306 1.35l-1.299 3.025q-3.059-1.265-5.144-1.265-3.179 0-3.179 1.812 0 .888.82 1.504.838.615 3.624 1.692 2.341.905 3.4 1.657 1.06.752 1.573 1.743.513.975.513 2.342" aria-label="Richland Robotics" font-family="Open Sans" font-size="35" font-weight="600" letter-spacing=".225" style="-inkscape-font-specification:&quot;Open Sans Semi-Bold&quot;"/>
</svg>
