<svg xmlns="http://www.w3.org/2000/svg" width="175.133" height="174.75" viewBox="0 0 46.337 46.236">
  <g fill="#fff">
    <path fill="#025d03" d="M21.324 6.44A18.47 18.47 0 0 0 2.852 24.91a18.47 18.47 0 0 0 18.472 18.473 18.47 18.47 0 0 0 18.473-18.472 18.5 18.5 0 0 0-2.037-8.422l-.007.003-.26-.505-.062-.109-8.93 8.896-6.982-7.414 8.654-8.66a18.5 18.5 0 0 0-8.85-2.262"/>
    <path fill="#025d03" d="m19.198 3.588-3.494.759.66 3.043 3.495-.76zm4.804.174-.553 3.064 3.517.634.554-3.063zM11.199 6.024 8.26 8.063l1.777 2.558 2.937-2.038zm-6.457 5.313-1.934 3.007 2.62 1.684 1.932-3.006zm32.693 4.537-.153.153.372.534.099-.068zM.81 18.716l-.635 3.518 3.064.553.635-3.517zm41.08.576-3.042.66.759 3.495 3.043-.662zM3.044 26.378 0 27.038l.76 3.494 3.042-.66zm36.368.658-.635 3.518 3.063.553.636-3.519zM4.995 33.262l-2.558 1.775 2.038 2.938 2.558-1.776zm32.226.533-1.934 3.008 2.62 1.683 1.933-3.006zm-27.787 5.08-1.684 2.62 3.006 1.933 1.685-2.62zm23.177.328-2.937 2.038L31.45 43.8l2.937-2.038zm-16.93 3.16-.552 3.064 3.519.635.552-3.064zm10.602.071-3.493.76.661 3.042 3.493-.759z"/>
    <path d="M21.507 10.79c-7.662 0-13.873 6.21-13.873 13.872s6.21 13.873 13.873 13.873S35.38 32.324 35.38 24.662a13.9 13.9 0 0 0-1.173-5.572l-5.706 4.487-4.863-6.67 3.327-4.996a13.9 13.9 0 0 0-5.458-1.122"/>
    <path fill="#fd0" d="M21.507 12.398A12.26 12.26 0 0 0 9.243 24.662a12.26 12.26 0 0 0 12.264 12.264 12.26 12.26 0 0 0 12.264-12.264 12.2 12.2 0 0 0-.798-4.342L28.5 24.775l-6.98-7.415 4.208-4.211a12.2 12.2 0 0 0-4.22-.751"/>
    <path d="M21.507 14.48c-5.623 0-10.181 4.559-10.182 10.182s4.559 10.182 10.182 10.182S31.69 30.285 31.69 24.662a10.2 10.2 0 0 0-.374-2.691l-2.814.66-4.532-5.373.086-2.434a10.2 10.2 0 0 0-2.548-.343"/>
    <g fill="#353535">
      <path d="M39.364 0a6.97 6.97 0 0 0-6.971 6.973 6.97 6.97 0 0 0 6.972 6.971 6.97 6.97 0 0 0 6.972-6.971 7 7 0 0 0-.35-2.174L42.422 8.2a2.117 2.117 0 0 1-2.992-.07l-1.329-1.392a2.117 2.117 0 0 1 .07-2.993l3.51-3.348A7 7 0 0 0 39.365 0M21.529 17.803a6.97 6.97 0 0 0-6.972 6.973 7 7 0 0 0 .365 2.186l3.275-3.125a2.117 2.117 0 0 1 2.992.07l1.329 1.393a2.117 2.117 0 0 1-.07 2.992l-3.201 3.054a7 7 0 0 0 2.282.402 6.97 6.97 0 0 0 6.972-6.972 6.97 6.97 0 0 0-6.972-6.972"/>
      <path d="m22.927 18.722 12.82-12.82 4.435 4.658-12.82 12.82z"/>
    </g>
  </g>
</svg>
