<?xml version="1.0" encoding="UTF-8" standalone="no"?>
<svg
   width="175.133"
   height="174.75"
   viewBox="0 0 46.337 46.236"
   version="1.1"
   id="svg8"
   sodipodi:docname="Logo_C_Dark.svg"
   inkscape:version="1.3.2 (091e20e, 2023-11-25)"
   inkscape:export-filename="../logo_dark.png"
   inkscape:export-xdpi="96"
   inkscape:export-ydpi="96"
   xmlns:inkscape="http://www.inkscape.org/namespaces/inkscape"
   xmlns:sodipodi="http://sodipodi.sourceforge.net/DTD/sodipodi-0.dtd"
   xmlns="http://www.w3.org/2000/svg"
   xmlns:svg="http://www.w3.org/2000/svg">
  <sodipodi:namedview
     id="namedview8"
     pagecolor="#ffffff"
     bordercolor="#000000"
     borderopacity="0.25"
     inkscape:showpageshadow="2"
     inkscape:pageopacity="0.0"
     inkscape:pagecheckerboard="0"
     inkscape:deskcolor="#d1d1d1"
     inkscape:zoom="3.5306758"
     inkscape:cx="91.200671"
     inkscape:cy="72.648982"
     inkscape:window-width="1680"
     inkscape:window-height="985"
     inkscape:window-x="0"
     inkscape:window-y="0"
     inkscape:window-maximized="1"
     inkscape:current-layer="g8" />
  <defs
     id="defs1">
    <linearGradient
       id="a">
      <stop
         offset="0"
         stop-color="#dbdbdb"
         id="stop1" />
    </linearGradient>
  </defs>
  <g
     fill="#fff"
     id="g8">
    <path
       id="path1"
       d="M 21.323108 6.4378586 L 21.324141 6.4399257 A 18.47 18.47 0 0 0 2.851859 24.910141 A 18.47 18.47 0 0 0 21.324141 43.38294 A 18.47 18.47 0 0 0 39.796941 24.911175 A 18.5 18.5 0 0 0 37.759853 16.488938 L 37.753135 16.492039 L 37.493202 15.987159 L 37.43119 15.878122 L 34.207093 19.089817 A 13.9 13.9 0 0 1 35.38015 24.662094 C 35.38015 32.324086 29.170069 38.535168 21.507076 38.535168 C 13.844084 38.535168 7.6340025 32.324086 7.6340025 24.662094 C 7.6340025 17.000102 13.845084 10.790054 21.507076 10.790054 L 21.507076 10.78902 A 13.9 13.9 0 0 1 26.964632 11.910917 A 13.9 13.9 0 0 1 26.965148 11.910917 L 30.173226 8.7002559 A 18.5 18.5 0 0 0 21.323108 6.4378586 z "
       style="fill:#025d03;fill-opacity:1" />
    <path
       fill="#025d03"
       d="m19.198 3.588-3.494.759.66 3.043 3.495-.76zm4.804.174-.553 3.064 3.517.634.554-3.063zM11.199 6.024 8.26 8.063l1.777 2.558 2.937-2.038zm-6.457 5.313-1.934 3.007 2.62 1.684 1.932-3.006zm32.693 4.537-.153.153.372.534.099-.068zM.81 18.716l-.635 3.518 3.064.553.635-3.517zm41.08.576-3.042.66.759 3.495 3.043-.662zM3.044 26.378 0 27.038l.76 3.494 3.042-.66zm36.368.658-.635 3.518 3.063.553.636-3.519zM4.995 33.262l-2.558 1.775 2.038 2.938 2.558-1.776zm32.226.533-1.934 3.008 2.62 1.683 1.933-3.006zm-27.787 5.08-1.684 2.62 3.006 1.933 1.685-2.62zm23.177.328-2.937 2.038L31.45 43.8l2.937-2.038zm-16.93 3.16-.552 3.064 3.519.635.552-3.064zm10.602.071-3.493.76.661 3.042 3.493-.759z"
       id="path2" />
    <path
       id="path4"
       d="M 21.507076 12.398226 A 12.26 12.26 0 0 0 9.2432087 24.662094 A 12.26 12.26 0 0 0 21.507076 36.925961 A 12.26 12.26 0 0 0 33.770944 24.662094 A 12.2 12.2 0 0 0 32.973059 20.320234 L 31.315793 21.970782 A 10.2 10.2 0 0 1 31.689931 24.662094 C 31.689931 30.285088 27.130071 34.843915 21.507076 34.843915 C 15.884082 34.843915 11.324255 30.285088 11.325255 24.662094 C 11.326255 19.0391 15.884082 14.479756 21.507076 14.479756 L 21.50811 14.480789 A 10.2 10.2 0 0 1 24.054728 14.823921 L 25.728013 13.149086 A 12.2 12.2 0 0 0 21.50811 12.398226 L 21.507076 12.398226 z "
       style="fill:#ffdd00;fill-opacity:1" />
    <path
       fill="url(#a)"
       d="M121.69 149.547a6.97 6.97 0 0 0-6.971 6.973 6.97 6.97 0 0 0 6.972 6.971 6.97 6.97 0 0 0 6.972-6.971 7 7 0 0 0-.35-2.174l-3.565 3.401a2.117 2.117 0 0 1-2.992-.07l-1.329-1.392a2.117 2.117 0 0 1 .07-2.993l3.51-3.348a7 7 0 0 0-2.316-.397m-17.836 17.803a6.97 6.97 0 0 0-6.972 6.973 7 7 0 0 0 .365 2.186l3.275-3.125a2.117 2.117 0 0 1 2.992.07l1.329 1.393a2.117 2.117 0 0 1-.07 2.992l-3.201 3.054a7 7 0 0 0 2.282.402 6.97 6.97 0 0 0 6.972-6.972 6.97 6.97 0 0 0-6.972-6.972"
       transform="translate(-82.326 -149.547)"
       id="path7" />
    <path
       fill="url(#a)"
       d="M-44.56 193.41h18.13l-.157 6.429h-18.13z"
       transform="rotate(-45 -221.683 24.602)"
       id="path8"
       style="fill:#dbdbdb;fill-opacity:1" />
  </g>
</svg>
