<svg xmlns="http://www.w3.org/2000/svg" xmlns:xlink="http://www.w3.org/1999/xlink" width="210mm" height="297mm" viewBox="0 0 210 297">
  <defs>
    <linearGradient id="a">
      <stop offset="0" stop-color="#dbdbdb"/>
    </linearGradient>
    <linearGradient xlink:href="#a" id="b" x1="114.719" x2="128.663" y1="156.519" y2="156.519" gradientUnits="userSpaceOnUse"/>
  </defs>
  <path stroke="#000" stroke-width=".266" d="M.133.133h209.733v296.734H.133z"/>
  <g fill="#fff">
    <path fill="url(#a)" d="M103.226 155.853a18.74 18.74 0 0 0-18.74 18.74 18.74 18.74 0 0 0 18.74 18.741 18.74 18.74 0 0 0 18.741-18.74 18.74 18.74 0 0 0-2.066-8.544l-.008.003-.263-.513-.063-.11-9.06 9.025-7.083-7.522 8.78-8.786a18.74 18.74 0 0 0-8.978-2.294" transform="translate(-80.426 -147.185)scale(.9857)"/>
    <path fill="url(#a)" d="m101.069 152.96-3.544.77.67 3.087 3.545-.77zm4.874.177-.561 3.108 3.568.644.562-3.108zm-12.989 2.295-2.98 2.068 1.802 2.595 2.98-2.067zm-6.55 5.39-1.962 3.05 2.657 1.709 1.961-3.05zm33.167 4.603-.155.155.377.542.1-.069zm-37.157 2.883-.645 3.569 3.109.561.644-3.568zm41.676.584-3.087.67.77 3.545 3.087-.671zm-39.41 7.189-3.087.67.77 3.544 3.087-.67zm36.896.668-.645 3.569 3.108.561.645-3.57zm-34.916 6.316-2.595 1.801 2.068 2.98 2.595-1.802zm32.694.541-1.962 3.051 2.657 1.708 1.962-3.05zm-28.19 5.154-1.709 2.657 3.05 1.961 1.709-2.657zm23.513.332-2.98 2.068 1.802 2.595 2.98-2.068zm-17.175 3.206-.561 3.108 3.57.645.56-3.109zm10.755.072-3.544.77.671 3.087 3.544-.77z" transform="translate(-80.426 -147.185)scale(.9857)"/>
    <path fill="#000" d="M21.507 10.79c-7.662 0-13.873 6.21-13.873 13.872s6.21 13.873 13.873 13.873S35.38 32.324 35.38 24.662a13.9 13.9 0 0 0-1.173-5.572l-5.706 4.487-4.863-6.67 3.327-4.996a13.9 13.9 0 0 0-5.458-1.122"/>
    <path fill="url(#a)" d="M103.412 161.898A12.44 12.44 0 0 0 90.97 174.34a12.44 12.44 0 0 0 12.442 12.442 12.44 12.44 0 0 0 12.442-12.442 12.4 12.4 0 0 0-.81-4.405l-4.537 4.52-7.082-7.523 4.269-4.272a12.4 12.4 0 0 0-4.282-.762" transform="translate(-80.426 -147.185)scale(.9857)"/>
    <path fill="#000" d="M21.507 14.48c-5.623 0-10.181 4.559-10.182 10.182s4.559 10.182 10.182 10.182S31.69 30.285 31.69 24.662a10.2 10.2 0 0 0-.374-2.691l-2.814.66-4.532-5.373.086-2.434a10.2 10.2 0 0 0-2.548-.343"/>
    <path fill="url(#b)" d="M121.69 149.547a6.97 6.97 0 0 0-6.971 6.973 6.97 6.97 0 0 0 6.972 6.971 6.97 6.97 0 0 0 6.972-6.971 7 7 0 0 0-.35-2.174l-3.565 3.401a2.117 2.117 0 0 1-2.992-.07l-1.329-1.392a2.117 2.117 0 0 1 .07-2.993l3.51-3.348a7 7 0 0 0-2.316-.397" transform="translate(-82.326 -149.547)"/>
    <path fill="url(#a)" d="M103.855 167.35a6.97 6.97 0 0 0-6.972 6.973 7 7 0 0 0 .365 2.186l3.275-3.125a2.117 2.117 0 0 1 2.992.07l1.329 1.393a2.117 2.117 0 0 1-.07 2.992l-3.201 3.054a7 7 0 0 0 2.282.402 6.97 6.97 0 0 0 6.972-6.972 6.97 6.97 0 0 0-6.972-6.972" transform="translate(-82.326 -149.547)"/>
    <path fill="url(#a)" d="M-44.56 193.41h18.13l-.157 6.429h-18.13z" transform="rotate(-45 -221.683 24.602)"/>
  </g>
</svg>
