<svg xmlns="http://www.w3.org/2000/svg" width="1362.166" height="188.563" viewBox="0 0 360.406 49.891">
  <g fill="#fff">
    <path fill="#dbdbdb" d="M23.01 6.947A19.93 19.93 0 0 0 3.076 26.879 19.93 19.93 0 0 0 23.01 46.812 19.93 19.93 0 0 0 42.942 26.88a19.9 19.9 0 0 0-2.197-9.088l-.009.004-.28-.546-.066-.117-9.637 9.6-7.533-8.001 9.338-9.345a19.9 19.9 0 0 0-9.549-2.44"/>
    <path fill="#dbdbdb" d="m20.715 3.87-3.77.819.713 3.283 3.77-.819zm5.184.188-.597 3.306 3.795.685.598-3.306zM12.084 6.499l-3.17 2.2 1.917 2.76L14 9.26zm-6.967 5.733L3.03 15.476l2.826 1.818 2.086-3.244zm35.277 4.896-.165.165.401.576.106-.073zM.874 20.194.186 23.99l3.307.597.685-3.795zm44.326.621-3.283.713.819 3.77 3.283-.713zM3.283 28.462 0 29.174l.82 3.77 3.282-.713zm39.243.71-.686 3.796 3.306.597.686-3.797zM5.39 35.89l-2.76 1.915 2.2 3.17 2.76-1.917zm34.774.575-2.087 3.245 2.826 1.817 2.087-3.244zM10.18 41.947l-1.818 2.826 3.244 2.086 1.818-2.826zm25.009.353-3.17 2.2 1.917 2.76 3.17-2.2zM16.92 45.71l-.597 3.306 3.798.686.595-3.307zm11.44.077-3.77.819.713 3.283 3.77-.819z"/>
    <path fill="#000" d="M23.207 11.64c-8.267 0-14.97 6.701-14.97 14.97 0 8.267 6.702 14.969 14.97 14.969 8.267 0 14.97-6.702 14.97-14.97a15 15 0 0 0-1.266-6.012l-6.158 4.842-5.246-7.197 3.59-5.391a15 15 0 0 0-5.89-1.21"/>
    <path fill="#dbdbdb" d="M23.207 13.376A13.23 13.23 0 0 0 9.974 26.61a13.23 13.23 0 0 0 13.233 13.233A13.23 13.23 0 0 0 36.44 26.61a13.2 13.2 0 0 0-.861-4.685l-4.826 4.807-7.532-8.001 4.54-4.544a13.2 13.2 0 0 0-4.554-.81"/>
    <path fill="#000" d="M23.207 15.624c-6.068 0-10.986 4.918-10.987 10.986s4.92 10.987 10.987 10.987 10.987-4.92 10.987-10.987a11 11 0 0 0-.404-2.904l-3.037.713-4.89-5.798.093-2.627a11 11 0 0 0-2.749-.37"/>
    <path fill="#dbdbdb" d="M42.476-.002a7.523 7.523 0 0 0-7.522 7.524 7.523 7.523 0 0 0 7.522 7.523A7.523 7.523 0 0 0 50 7.522a7.5 7.5 0 0 0-.377-2.345l-3.846 3.67a2.284 2.284 0 0 1-3.23-.075l-1.433-1.503a2.284 2.284 0 0 1 .075-3.229L44.975.427a7.6 7.6 0 0 0-2.5-.428M23.23 19.21a7.523 7.523 0 0 0-7.522 7.523 7.5 7.5 0 0 0 .393 2.36l3.534-3.372a2.284 2.284 0 0 1 3.23.076l1.432 1.502a2.284 2.284 0 0 1-.074 3.229l-3.455 3.295a7.6 7.6 0 0 0 2.462.434 7.523 7.523 0 0 0 7.523-7.524 7.523 7.523 0 0 0-7.523-7.523"/>
    <path fill="#dbdbdb" d="M24.74 20.202 38.574 6.368l4.784 5.025-13.832 13.833z"/>
    <path fill="#dbdbdb" d="M143.638 173.896h2.667q2.683 0 3.888-.996t1.206-2.957q0-1.992-1.302-2.86-1.301-.867-3.92-.867h-2.54zm0 3.181v9.384h-3.84v-23.49h6.636q4.547 0 6.732 1.702 2.185 1.703 2.185 5.142 0 4.386-4.563 6.25l6.636 10.396h-4.37l-5.624-9.384zm20.778 9.384h-3.776v-17.77h3.776zm-4.001-22.479q0-1.012.546-1.558.563-.547 1.591-.547.996 0 1.543.547.562.546.562 1.558 0 .964-.562 1.527-.547.546-1.543.546-1.028 0-1.59-.546-.547-.563-.547-1.527m16.777 22.8q-4.033 0-6.138-2.346-2.088-2.362-2.088-6.764 0-4.483 2.185-6.893 2.201-2.41 6.346-2.41 2.812 0 5.062 1.044l-1.141 3.037q-2.394-.932-3.953-.932-4.611 0-4.611 6.122 0 2.988 1.14 4.499 1.158 1.494 3.375 1.494 2.523 0 4.772-1.253v3.294q-1.012.594-2.17.851-1.14.257-2.779.257m24.972-.321h-3.792v-10.926q0-2.057-.836-3.069-.82-1.012-2.619-1.012-2.378 0-3.502 1.43-1.11 1.414-1.11 4.756v8.82h-3.775v-25h3.776v6.346q0 1.527-.193 3.262h.241q.771-1.285 2.137-1.992 1.382-.707 3.214-.707 6.459 0 6.459 6.507zm9.241 0h-3.776V161.46h3.776zm16.73 0-.756-2.474h-.128q-1.286 1.622-2.587 2.217-1.302.578-3.342.578-2.62 0-4.098-1.414-1.462-1.414-1.462-4 0-2.748 2.04-4.146t6.219-1.526l3.069-.097v-.948q0-1.703-.804-2.538-.787-.852-2.458-.852-1.366 0-2.619.402-1.253.401-2.41.948l-1.221-2.7q1.446-.755 3.165-1.14 1.72-.402 3.246-.402 3.39 0 5.11 1.478 1.735 1.478 1.735 4.644v11.97zm-5.624-2.57q2.056 0 3.293-1.142 1.254-1.157 1.254-3.23v-1.542l-2.282.097q-2.667.096-3.888.9-1.205.787-1.205 2.426 0 1.189.707 1.847.707.643 2.12.643m29.438 2.57h-3.792v-10.926q0-2.057-.835-3.069-.82-1.012-2.62-1.012-2.394 0-3.502 1.414-1.109 1.414-1.109 4.74v8.853h-3.776v-17.77h2.957l.53 2.329h.193q.803-1.27 2.281-1.96 1.479-.691 3.278-.691 6.395 0 6.395 6.507zm11.459.321q-3.326 0-5.19-2.41t-1.864-6.764q0-4.37 1.88-6.797 1.896-2.442 5.238-2.442 3.503 0 5.335 2.587h.192q-.273-1.912-.273-3.021v-6.475h3.792v25h-2.956l-.659-2.329h-.177q-1.815 2.651-5.318 2.651m1.012-3.053q2.33 0 3.39-1.301 1.06-1.318 1.093-4.258v-.53q0-3.358-1.093-4.772t-3.422-1.414q-1.992 0-3.069 1.623-1.076 1.606-1.076 4.595 0 2.956 1.044 4.515 1.044 1.542 3.133 1.542m26.71-9.833h2.667q2.683 0 3.888-.996t1.205-2.957q0-1.992-1.301-2.86-1.302-.867-3.92-.867h-2.54zm0 3.181v9.384h-3.84v-23.49h6.635q4.548 0 6.733 1.702 2.185 1.703 2.185 5.142 0 4.386-4.563 6.25l6.636 10.396h-4.37l-5.624-9.384zm32.764.466q0 4.355-2.233 6.797t-6.218 2.442q-2.491 0-4.403-1.124t-2.94-3.23-1.029-4.885q0-4.322 2.218-6.748t6.25-2.426q3.856 0 6.106 2.49 2.25 2.475 2.25 6.684m-12.934 0q0 6.154 4.547 6.154 4.499 0 4.499-6.154 0-6.09-4.531-6.09-2.378 0-3.455 1.575-1.06 1.575-1.06 4.515m26.562-9.174q3.326 0 5.174 2.41 1.864 2.41 1.864 6.764 0 4.37-1.88 6.813-1.88 2.426-5.222 2.426-3.374 0-5.238-2.426h-.257l-.691 2.105h-2.828v-25h3.776v5.945q0 .658-.065 1.96-.064 1.301-.096 1.655h.16q1.8-2.651 5.303-2.651m-.98 3.085q-2.282 0-3.294 1.35-.996 1.333-1.028 4.482v.257q0 3.246 1.028 4.708 1.028 1.446 3.358 1.446 2.009 0 3.037-1.59 1.044-1.591 1.044-4.596 0-6.057-4.145-6.057m28.378 6.09q0 4.354-2.234 6.796t-6.218 2.442q-2.49 0-4.402-1.124t-2.94-3.23q-1.029-2.105-1.029-4.885 0-4.322 2.217-6.748t6.25-2.426q3.857 0 6.106 2.49 2.25 2.475 2.25 6.684m-12.935 0q0 6.153 4.548 6.153 4.499 0 4.499-6.154 0-6.09-4.532-6.09-2.378 0-3.454 1.575-1.06 1.575-1.06 4.515m24.104 6.185q1.382 0 2.764-.433v2.844q-.627.273-1.623.45-.98.192-2.04.192-5.367 0-5.367-5.656v-9.576h-2.426v-1.67l2.603-1.383 1.285-3.76h2.33v3.953h5.061v2.86h-5.061v9.512q0 1.366.675 2.025.69.642 1.8.642m10.302 2.732h-3.776v-17.77h3.776zm-4-22.479q0-1.012.546-1.558.562-.547 1.59-.547.997 0 1.543.547.562.546.562 1.558 0 .964-.562 1.527-.546.546-1.542.546-1.029 0-1.591-.546-.546-.563-.546-1.527m16.777 22.8q-4.033 0-6.138-2.346-2.089-2.362-2.089-6.764 0-4.483 2.185-6.893 2.202-2.41 6.347-2.41 2.812 0 5.061 1.044l-1.14 3.037q-2.395-.932-3.953-.932-4.612 0-4.612 6.122 0 2.988 1.141 4.499 1.157 1.494 3.374 1.494 2.523 0 4.773-1.253v3.294q-1.013.594-2.17.851-1.14.257-2.78.257m21.276-5.382q0 2.603-1.896 4-1.896 1.382-5.431 1.382-3.551 0-5.704-1.076v-3.262q3.133 1.446 5.833 1.446 3.486 0 3.486-2.105 0-.675-.385-1.124-.386-.45-1.27-.932-.883-.482-2.458-1.093-3.069-1.189-4.162-2.378-1.076-1.189-1.076-3.085 0-2.282 1.832-3.535 1.847-1.27 5.013-1.27 3.133 0 5.929 1.27l-1.222 2.844q-2.876-1.189-4.836-1.189-2.988 0-2.988 1.703 0 .836.77 1.414.788.579 3.407 1.59 2.201.853 3.198 1.56.996.706 1.478 1.638.482.916.482 2.202" aria-label="Richland Robotics" font-family="Open Sans" font-size="32.907" font-weight="600" letter-spacing=".211" style="-inkscape-font-specification:&quot;Open Sans Semi-Bold&quot;" transform="translate(-86.783 -158.82)scale(1.06361)"/>
  </g>
</svg>
