<?xml version="1.0" encoding="UTF-8" standalone="no"?>
<svg
   width="1353.7764"
   height="174.75"
   viewBox="0 0 358.18624 46.236282"
   version="1.1"
   id="svg8"
   sodipodi:docname="Logo_C_Dark_Horiz.svg"
   inkscape:version="1.3.2 (091e20e, 2023-11-25)"
   xmlns:inkscape="http://www.inkscape.org/namespaces/inkscape"
   xmlns:sodipodi="http://sodipodi.sourceforge.net/DTD/sodipodi-0.dtd"
   xmlns="http://www.w3.org/2000/svg"
   xmlns:svg="http://www.w3.org/2000/svg">
  <defs
     id="defs8">
    <linearGradient
       id="a"
       gradientTransform="matrix(1.0005099,0,0,0.99950251,-40.52358,-97.424607)"
       x1="96.834213"
       y1="149.62234"
       x2="128.59821"
       y2="149.62234"
       gradientUnits="userSpaceOnUse">
      <stop
         offset="0"
         stop-color="#dbdbdb"
         id="stop1" />
    </linearGradient>
  </defs>
  <sodipodi:namedview
     id="namedview8"
     pagecolor="#ffffff"
     bordercolor="#000000"
     borderopacity="0.25"
     inkscape:showpageshadow="2"
     inkscape:pageopacity="0.0"
     inkscape:pagecheckerboard="0"
     inkscape:deskcolor="#d1d1d1"
     inkscape:zoom="0.68109345"
     inkscape:cx="518.28424"
     inkscape:cy="143.15216"
     inkscape:window-width="1680"
     inkscape:window-height="985"
     inkscape:window-x="0"
     inkscape:window-y="0"
     inkscape:window-maximized="1"
     inkscape:current-layer="g8" />
  <g
     fill="#ffffff"
     id="g8"
     transform="translate(-2.2187291,-3.2581649)">
    <path
       fill="#dbdbdb"
       d="m 143.638,173.896 h 2.667 q 2.683,0 3.888,-0.996 1.205,-0.996 1.206,-2.957 0,-1.992 -1.302,-2.86 -1.301,-0.867 -3.92,-0.867 h -2.54 z m 0,3.181 v 9.384 h -3.84 v -23.49 h 6.636 q 4.547,0 6.732,1.702 2.185,1.703 2.185,5.142 0,4.386 -4.563,6.25 l 6.636,10.396 h -4.37 l -5.624,-9.384 z m 20.778,9.384 h -3.776 v -17.77 h 3.776 z m -4.001,-22.479 q 0,-1.012 0.546,-1.558 0.563,-0.547 1.591,-0.547 0.996,0 1.543,0.547 0.562,0.546 0.562,1.558 0,0.964 -0.562,1.527 -0.547,0.546 -1.543,0.546 -1.028,0 -1.59,-0.546 -0.547,-0.563 -0.547,-1.527 m 16.777,22.8 q -4.033,0 -6.138,-2.346 -2.088,-2.362 -2.088,-6.764 0,-4.483 2.185,-6.893 2.201,-2.41 6.346,-2.41 2.812,0 5.062,1.044 l -1.141,3.037 q -2.394,-0.932 -3.953,-0.932 -4.611,0 -4.611,6.122 0,2.988 1.14,4.499 1.158,1.494 3.375,1.494 2.523,0 4.772,-1.253 v 3.294 q -1.012,0.594 -2.17,0.851 -1.14,0.257 -2.779,0.257 m 24.972,-0.321 h -3.792 v -10.926 q 0,-2.057 -0.836,-3.069 -0.82,-1.012 -2.619,-1.012 -2.378,0 -3.502,1.43 -1.11,1.414 -1.11,4.756 v 8.82 h -3.775 v -25 h 3.776 v 6.346 q 0,1.527 -0.193,3.262 h 0.241 q 0.771,-1.285 2.137,-1.992 1.382,-0.707 3.214,-0.707 6.459,0 6.459,6.507 z m 9.241,0 h -3.776 V 161.46 h 3.776 z m 16.73,0 -0.756,-2.474 h -0.128 q -1.286,1.622 -2.587,2.217 -1.302,0.578 -3.342,0.578 -2.62,0 -4.098,-1.414 -1.462,-1.414 -1.462,-4 0,-2.748 2.04,-4.146 2.04,-1.398 6.219,-1.526 l 3.069,-0.097 v -0.948 q 0,-1.703 -0.804,-2.538 -0.787,-0.852 -2.458,-0.852 -1.366,0 -2.619,0.402 -1.253,0.401 -2.41,0.948 l -1.221,-2.7 q 1.446,-0.755 3.165,-1.14 1.72,-0.402 3.246,-0.402 3.39,0 5.11,1.478 1.735,1.478 1.735,4.644 v 11.97 z m -5.624,-2.57 q 2.056,0 3.293,-1.142 1.254,-1.157 1.254,-3.23 v -1.542 l -2.282,0.097 q -2.667,0.096 -3.888,0.9 -1.205,0.787 -1.205,2.426 0,1.189 0.707,1.847 0.707,0.643 2.12,0.643 m 29.438,2.57 h -3.792 v -10.926 q 0,-2.057 -0.835,-3.069 -0.82,-1.012 -2.62,-1.012 -2.394,0 -3.502,1.414 -1.109,1.414 -1.109,4.74 v 8.853 h -3.776 v -17.77 h 2.957 l 0.53,2.329 h 0.193 q 0.803,-1.27 2.281,-1.96 1.479,-0.691 3.278,-0.691 6.395,0 6.395,6.507 z m 11.459,0.321 q -3.326,0 -5.19,-2.41 -1.864,-2.41 -1.864,-6.764 0,-4.37 1.88,-6.797 1.896,-2.442 5.238,-2.442 3.503,0 5.335,2.587 h 0.192 q -0.273,-1.912 -0.273,-3.021 v -6.475 h 3.792 v 25 h -2.956 l -0.659,-2.329 h -0.177 q -1.815,2.651 -5.318,2.651 m 1.012,-3.053 q 2.33,0 3.39,-1.301 1.06,-1.318 1.093,-4.258 v -0.53 q 0,-3.358 -1.093,-4.772 -1.093,-1.414 -3.422,-1.414 -1.992,0 -3.069,1.623 -1.076,1.606 -1.076,4.595 0,2.956 1.044,4.515 1.044,1.542 3.133,1.542 m 26.71,-9.833 h 2.667 q 2.683,0 3.888,-0.996 1.205,-0.996 1.205,-2.957 0,-1.992 -1.301,-2.86 -1.302,-0.867 -3.92,-0.867 h -2.54 z m 0,3.181 v 9.384 h -3.84 v -23.49 h 6.635 q 4.548,0 6.733,1.702 2.185,1.703 2.185,5.142 0,4.386 -4.563,6.25 l 6.636,10.396 h -4.37 l -5.624,-9.384 z m 32.764,0.466 q 0,4.355 -2.233,6.797 -2.233,2.442 -6.218,2.442 -2.491,0 -4.403,-1.124 -1.912,-1.124 -2.94,-3.23 -1.028,-2.106 -1.029,-4.885 0,-4.322 2.218,-6.748 2.218,-2.426 6.25,-2.426 3.856,0 6.106,2.49 2.25,2.475 2.25,6.684 m -12.934,0 q 0,6.154 4.547,6.154 4.499,0 4.499,-6.154 0,-6.09 -4.531,-6.09 -2.378,0 -3.455,1.575 -1.06,1.575 -1.06,4.515 m 26.562,-9.174 q 3.326,0 5.174,2.41 1.864,2.41 1.864,6.764 0,4.37 -1.88,6.813 -1.88,2.426 -5.222,2.426 -3.374,0 -5.238,-2.426 h -0.257 l -0.691,2.105 h -2.828 v -25 h 3.776 v 5.945 q 0,0.658 -0.065,1.96 -0.064,1.301 -0.096,1.655 h 0.16 q 1.8,-2.651 5.303,-2.651 m -0.98,3.085 q -2.282,0 -3.294,1.35 -0.996,1.333 -1.028,4.482 v 0.257 q 0,3.246 1.028,4.708 1.028,1.446 3.358,1.446 2.009,0 3.037,-1.59 1.044,-1.591 1.044,-4.596 0,-6.057 -4.145,-6.057 m 28.378,6.09 q 0,4.354 -2.234,6.796 -2.234,2.442 -6.218,2.442 -2.49,0 -4.402,-1.124 -1.912,-1.124 -2.94,-3.23 -1.029,-2.105 -1.029,-4.885 0,-4.322 2.217,-6.748 2.217,-2.426 6.25,-2.426 3.857,0 6.106,2.49 2.25,2.475 2.25,6.684 m -12.935,0 q 0,6.153 4.548,6.153 4.499,0 4.499,-6.154 0,-6.09 -4.532,-6.09 -2.378,0 -3.454,1.575 -1.06,1.575 -1.06,4.515 m 24.104,6.185 q 1.382,0 2.764,-0.433 v 2.844 q -0.627,0.273 -1.623,0.45 -0.98,0.192 -2.04,0.192 -5.367,0 -5.367,-5.656 v -9.576 h -2.426 v -1.67 l 2.603,-1.383 1.285,-3.76 h 2.33 v 3.953 h 5.061 v 2.86 h -5.061 v 9.512 q 0,1.366 0.675,2.025 0.69,0.642 1.8,0.642 m 10.302,2.732 h -3.776 v -17.77 h 3.776 z m -4,-22.479 q 0,-1.012 0.546,-1.558 0.562,-0.547 1.59,-0.547 0.997,0 1.543,0.547 0.562,0.546 0.562,1.558 0,0.964 -0.562,1.527 -0.546,0.546 -1.542,0.546 -1.029,0 -1.591,-0.546 -0.546,-0.563 -0.546,-1.527 m 16.777,22.8 q -4.033,0 -6.138,-2.346 -2.089,-2.362 -2.089,-6.764 0,-4.483 2.185,-6.893 2.202,-2.41 6.347,-2.41 2.812,0 5.061,1.044 l -1.14,3.037 q -2.395,-0.932 -3.953,-0.932 -4.612,0 -4.612,6.122 0,2.988 1.141,4.499 1.157,1.494 3.374,1.494 2.523,0 4.773,-1.253 v 3.294 q -1.013,0.594 -2.17,0.851 -1.14,0.257 -2.78,0.257 m 21.276,-5.382 q 0,2.603 -1.896,4 -1.896,1.382 -5.431,1.382 -3.551,0 -5.704,-1.076 v -3.262 q 3.133,1.446 5.833,1.446 3.486,0 3.486,-2.105 0,-0.675 -0.385,-1.124 -0.386,-0.45 -1.27,-0.932 -0.883,-0.482 -2.458,-1.093 -3.069,-1.189 -4.162,-2.378 -1.076,-1.189 -1.076,-3.085 0,-2.282 1.832,-3.535 1.847,-1.27 5.013,-1.27 3.133,0 5.929,1.27 l -1.222,2.844 q -2.876,-1.189 -4.836,-1.189 -2.988,0 -2.988,1.703 0,0.836 0.77,1.414 0.788,0.579 3.407,1.59 2.201,0.853 3.198,1.56 0.996,0.706 1.478,1.638 0.482,0.916 0.482,2.202"
       aria-label="Richland Robotics"
       font-family="'Open Sans'"
       font-size="32.907px"
       font-weight="600"
       letter-spacing="0.211"
       style="-inkscape-font-specification:'Open Sans Semi-Bold'"
       transform="matrix(1.06361,0,0,1.06361,-86.783,-158.82)"
       id="path8" />
    <g
       id="g9"
       inkscape:label="Logo"
       transform="translate(-39.585749,-48.86514)">
      <path
         id="path1-3"
         d="m 63.12616,58.561203 0.001,0.0021 A 18.470113,18.470113 0 0 0 44.654798,77.033598 18.470113,18.470113 0 0 0 63.127193,95.50651 18.470113,18.470113 0 0 0 81.600106,77.034632 18.500113,18.500113 0 0 0 79.563005,68.612344 l -0.0067,0.0031 -0.259934,-0.504883 -0.06201,-0.109038 -3.224116,3.211714 a 13.900085,13.900085 0 0 1 1.173064,5.572311 c 0,7.662039 -6.210119,13.873159 -13.873159,13.873159 -7.663039,0 -13.873158,-6.21112 -13.873158,-13.873159 0,-7.662038 6.211119,-13.872124 13.873158,-13.872124 v -10e-4 a 13.900085,13.900085 0 0 1 5.457589,1.121904 13.900085,13.900085 0 0 1 5.16e-4,0 l 3.208078,-3.210714 A 18.500113,18.500113 0 0 0 63.12616,58.561203 Z"
         style="fill:#025d03;fill-opacity:1;stroke-width:1.00001" />
      <path
         fill="#025d03"
         d="m 61.001039,55.711327 -3.494021,0.759005 0.660004,3.043018 3.495021,-0.760005 z m 4.804029,0.174001 -0.553003,3.064019 3.517021,0.634004 0.554004,-3.063019 z m -12.803078,2.262014 -2.939018,2.039012 1.777011,2.558016 2.937018,-2.038013 z m -6.457039,5.313032 -1.934012,3.007018 2.620016,1.684011 1.932012,-3.006019 z m 32.693199,4.537028 -0.153001,0.153001 0.372003,0.534003 0.099,-0.068 z m -36.625223,2.842017 -0.635004,3.518022 3.064019,0.553003 0.635004,-3.517021 z m 41.080251,0.576004 -3.042019,0.660004 0.759005,3.495021 3.043018,-0.662004 z m -38.846237,7.086043 -3.044019,0.660004 0.760005,3.494021 3.042018,-0.660004 z m 36.368221,0.658004 -0.635003,3.518021 3.063018,0.553004 0.636004,-3.519022 z m -34.41721,6.226038 -2.558015,1.775011 2.038012,2.938018 2.558016,-1.776011 z m 32.226197,0.533003 -1.934012,3.008018 2.620016,1.683011 1.933012,-3.006019 z m -27.787169,5.080031 -1.684011,2.620016 3.006019,1.933012 1.68501,-2.620016 z m 23.177141,0.328002 -2.937018,2.038013 1.776011,2.559015 2.937018,-2.038012 z m -16.930103,3.160019 -0.552004,3.064019 3.519022,0.635004 0.552003,-3.064019 z m 10.602064,0.071 -3.493021,0.760004 0.661004,3.042019 3.493021,-0.759005 z"
         id="path2-6"
         style="stroke-width:1.00001" />
      <path
         id="path4-7"
         d="M 63.310129,64.521607 A 12.260075,12.260075 0 0 0 51.046187,76.785549 12.260075,12.260075 0 0 0 63.310129,89.049491 12.260075,12.260075 0 0 0 75.574072,76.785549 12.200074,12.200074 0 0 0 74.776182,72.443663 l -1.657276,1.650558 a 10.200062,10.200062 0 0 1 0.37414,2.691328 c 0,5.623029 -4.559888,10.181884 -10.182917,10.181884 -5.623028,0 -10.182883,-4.558855 -10.181883,-10.181884 0.001,-5.623028 4.558855,-10.1824 10.181883,-10.1824 l 10e-4,0.001 a 10.200062,10.200062 0 0 1 2.546634,0.343134 l 1.673295,-1.674845 a 12.200074,12.200074 0 0 0 -4.219929,-0.750864 z"
         style="fill:#ffdd00;fill-opacity:1;stroke-width:1.00001" />
      <path
         fill="url(#a)"
         d="m 81.167162,52.123305 a 6.9700425,6.9700425 0 0 0 -6.971042,6.973043 6.9700425,6.9700425 0 0 0 6.972042,6.971042 6.9700425,6.9700425 0 0 0 6.972043,-6.971042 7.0000427,7.0000427 0 0 0 -0.350002,-2.174013 l -3.565022,3.40102 a 2.1170129,2.1170129 0 0 1 -2.992018,-0.07 l -1.329008,-1.392009 a 2.1170129,2.1170129 0 0 1 0.07,-2.993018 l 3.510021,-3.34802 A 7.0000427,7.0000427 0 0 0 81.168162,52.123305 M 63.332054,69.926414 a 6.9700425,6.9700425 0 0 0 -6.972043,6.973042 7.0000427,7.0000427 0 0 0 0.365002,2.186014 l 3.27502,-3.125019 a 2.1170129,2.1170129 0 0 1 2.992018,0.07 l 1.329009,1.393009 a 2.1170129,2.1170129 0 0 1 -0.07,2.992018 l -3.201019,3.054018 a 7.0000427,7.0000427 0 0 0 2.282014,0.402003 6.9700425,6.9700425 0 0 0 6.972042,-6.972043 6.9700425,6.9700425 0 0 0 -6.972042,-6.972042"
         id="path7-5"
         style="fill:url(#a);stroke-width:1.00001" />
      <path
         fill="url(#a)"
         d="M 64.730217,70.845825 77.550141,58.025901 81.985142,62.682935 69.165218,75.502859 Z"
         id="path8-3"
         style="fill:#dbdbdb;fill-opacity:1;stroke-width:1.00001" />
    </g>
  </g>
</svg>
