<?xml version="1.0" encoding="UTF-8" standalone="no"?>
<!-- Created with Inkscape (http://www.inkscape.org/) -->

<svg
   width="34.341927cm"
   height="4.9890747cm"
   viewBox="0 0 343.41927 49.890747"
   version="1.1"
   id="svg1"
   inkscape:version="1.3.2 (091e20ef0f, 2023-11-25, custom)"
   sodipodi:docname="Logo_BW_Light_Horiz.svg"
   xmlns:inkscape="http://www.inkscape.org/namespaces/inkscape"
   xmlns:sodipodi="http://sodipodi.sourceforge.net/DTD/sodipodi-0.dtd"
   xmlns="http://www.w3.org/2000/svg"
   xmlns:svg="http://www.w3.org/2000/svg">
  <sodipodi:namedview
     id="namedview1"
     pagecolor="#ffffff"
     bordercolor="#000000"
     borderopacity="0.25"
     inkscape:showpageshadow="2"
     inkscape:pageopacity="0.0"
     inkscape:pagecheckerboard="0"
     inkscape:deskcolor="#d1d1d1"
     inkscape:document-units="mm"
     inkscape:zoom="0.90509668"
     inkscape:cx="360.73494"
     inkscape:cy="101.6466"
     inkscape:window-width="2516"
     inkscape:window-height="1356"
     inkscape:window-x="0"
     inkscape:window-y="0"
     inkscape:window-maximized="1"
     inkscape:current-layer="layer1" />
  <defs
     id="defs1" />
  <g
     inkscape:label="Layer 1"
     inkscape:groupmode="layer"
     id="layer1"
     transform="translate(1.719934e-6,-1.1324834e-5)">
    <path
       id="path2-3"
       style="display:inline;fill:#353535;fill-opacity:1;stroke-width:0.522406"
       d="M 23.00987,6.9478505 A 19.932613,19.932613 0 0 0 3.0774615,26.88083 19.932613,19.932613 0 0 0 23.00987,46.813236 19.932613,19.932613 0 0 0 42.94285,26.88083 19.932613,19.932613 0 0 0 40.744734,17.79397 l -0.0085,0.0032 -0.279368,-0.545899 a 19.932613,19.932613 0 0 0 -0.0669,-0.117093 l -9.636653,9.599299 -7.532794,-8.001189 9.337778,-9.3439036 A 19.932613,19.932613 0 0 0 23.009732,6.9482547 Z" />
    <path
       id="rect3-4"
       style="display:inline;fill:#353535;fill-opacity:1;stroke-width:0.140397"
       d="m 20.714742,3.8709458 -3.768903,0.8191309 0.713187,3.2832244 3.769464,-0.819684 z m 5.184677,0.1879191 -0.597197,3.3060815 3.795663,0.6853071 0.597208,-3.3060815 z m -13.815403,2.4417895 -3.1689103,2.199222 1.9159563,2.7601826 3.16891,-2.1992331 z m -6.9673659,5.7322466 -2.086028,3.244754 2.8259793,1.816693 2.086028,-3.244179 z m 35.2779109,4.896396 -0.165062,0.164498 0.400365,0.576574 0.10651,-0.0736 z m -39.52134176,3.066311 -0.68530607,3.795673 3.30608463,0.597197 0.685305,-3.795662 z m 44.32739376,0.620629 -3.283214,0.713737 0.819684,3.769466 3.282672,-0.713748 z M 3.2832195,28.46221 -1.719934e-6,29.175958 0.81968866,32.94486 4.1023526,32.231676 Z m 39.2430875,0.710962 -0.68586,3.795662 3.306081,0.597208 0.685861,-3.796226 z m -37.1364275,6.717556 -2.760181,1.91595 2.1997803,3.168918 2.7596237,-1.915961 z m 34.7732705,0.57601 -2.086032,3.244743 2.825977,1.816704 2.086033,-3.244743 z m -29.983937,5.48133 -1.8167011,2.825977 3.2447461,2.086032 1.816701,-2.825977 z m 25.010036,0.353523 -3.168918,2.199233 1.915397,2.760172 3.168918,-2.199775 z m -18.267387,3.409805 -0.597203,3.306082 3.796225,0.685307 0.596645,-3.306081 z m 11.438864,0.07701 -3.769465,0.819131 0.713748,3.283224 3.769455,-0.819694 z" />
    <path
       id="circle3-9"
       style="display:inline;fill:#ffffff;fill-opacity:1;stroke-width:0.19135"
       d="m 23.207266,11.641277 c -8.267511,1.1e-5 -14.9696499,6.702155 -14.9696595,14.969662 9.6e-6,8.267506 6.7021485,14.969651 14.9696595,14.969661 8.267517,-10e-6 14.969651,-6.702144 14.969662,-14.969661 -0.0011,-2.069983 -0.432338,-4.117151 -1.265221,-6.012179 l -6.157713,4.841385 -5.24709,-7.197054 3.589864,-5.390678 c -1.861046,-0.79788 -3.864627,-1.209902 -5.889502,-1.211136 z"
       sodipodi:nodetypes="csscccccc" />
    <path
       id="circle4-1"
       style="display:inline;fill:#353535;fill-opacity:1;stroke-width:0.169161"
       d="M 23.207266,13.377125 A 13.233765,13.233765 0 0 0 9.9734538,26.610939 13.233765,13.233765 0 0 0 23.207266,39.844752 13.233765,13.233765 0 0 0 36.441079,26.610939 13.233765,13.233765 0 0 0 35.579574,21.925319 l -4.826133,4.807744 -7.532795,-8.001189 4.540639,-4.543978 a 13.233765,13.233765 0 0 0 -4.554019,-0.810771 z" />
    <path
       id="circle5-7"
       style="display:inline;fill:#ffffff;fill-opacity:1;stroke-width:0.140433"
       d="m 23.207266,15.624859 c -6.067375,1.7e-4 -10.985912,4.91871 -10.986077,10.98608 -1.47e-4,6.067593 4.918482,10.986473 10.986077,10.986643 6.067816,1.49e-4 10.986793,-4.918827 10.986644,-10.986643 -0.0043,-0.981332 -0.140099,-1.957665 -0.403716,-2.90293 l -3.0362,0.712706 -4.890663,-5.798957 0.09296,-2.627198 C 25.05924,15.755683 24.135545,15.631453 23.207255,15.624859 Z"
       sodipodi:nodetypes="csscccccc" />
    <path
       id="path6-9"
       style="display:inline;fill:#353535;fill-opacity:1;stroke-width:1.079;stroke-dasharray:none"
       d="M 42.476679,1.13278e-5 A 7.5230851,7.5230851 0 0 0 34.953383,7.523329 7.5230851,7.5230851 0 0 0 42.476679,15.046062 7.5230851,7.5230851 0 0 0 49.999997,7.523329 7.5230851,7.5230851 0 0 0 49.622488,5.1779985 L 45.776081,8.8482079 A 2.2839805,2.2839805 0 0 1 42.546952,8.7723723 L 41.113319,7.2701572 a 2.2839805,2.2839805 0 0 1 0.07584,-3.2291291 L 44.97534,0.42826447 A 7.5230851,7.5230851 0 0 0 42.47669,1.13278e-5 Z" />
    <path
       id="circle6-5"
       style="display:inline;fill:#353535;fill-opacity:1;stroke-width:1.079;stroke-dasharray:none"
       d="m 23.230687,19.210319 a 7.5230851,7.5230851 0 0 0 -7.522742,7.523307 7.5230851,7.5230851 0 0 0 0.393675,2.359253 l 3.533597,-3.371876 a 2.2839805,2.2839805 0 0 1 3.22913,0.07584 l 1.433622,1.502205 a 2.2839805,2.2839805 0 0 1 -0.07583,3.229129 l -3.45386,3.295499 a 7.5230851,7.5230851 0 0 0 2.462413,0.433262 7.5230851,7.5230851 0 0 0 7.523317,-7.523307 7.5230851,7.5230851 0 0 0 -7.523317,-7.523307 z" />
    <path
       id="path3-4"
       style="display:none;fill:#000000;fill-opacity:1;stroke-width:1.079;stroke-dasharray:none"
       d="M 23.220582,18.731715 32.561008,9.3851835 35.572022,4.5347254 44.5866,12.900222 43.984521,16.669699 40.736555,17.796639 40.394401,17.12918 30.7536,26.733201 Z"
       sodipodi:nodetypes="ccccccccc" />
    <path
       id="rect6-1"
       style="display:inline;fill:#353535;fill-opacity:1;stroke-width:1.079;stroke-dasharray:none"
       d="m 24.740719,20.202819 13.832989,-13.8329996 4.783993,5.0245186 -13.832989,13.833 z"
       sodipodi:nodetypes="ccccc" />
    <text
       xml:space="preserve"
       style="font-style:normal;font-variant:normal;font-weight:500;font-stretch:normal;font-size:349.998px;font-family:Roboto;-inkscape-font-specification:'Roboto Medium';letter-spacing:0.224896px;fill:#000000;fill-opacity:1;stroke-width:1.079;stroke-dasharray:none"
       x="60.32016"
       y="26.733644"
       id="text1"><tspan
         sodipodi:role="line"
         id="tspan1"
         style="fill:#000000;fill-opacity:1;stroke-width:1.079"
         x="60.32016"
         y="26.733644" /></text>
    <text
       xml:space="preserve"
       style="font-style:italic;font-variant:normal;font-weight:500;font-stretch:normal;font-size:34.9998px;font-family:Roboto;-inkscape-font-specification:'Roboto Medium Italic';letter-spacing:0.224896px;fill:#353535;fill-opacity:1;stroke-width:1.079;stroke-dasharray:none"
       x="58.609283"
       y="39.502956"
       id="text2"><tspan
         sodipodi:role="line"
         id="tspan2"
         style="font-style:italic;font-variant:normal;font-weight:500;font-stretch:normal;font-family:Roboto;-inkscape-font-specification:'Roboto Medium Italic';fill:#353535;fill-opacity:1;stroke-width:1.079"
         x="58.609283"
         y="39.502956">Richland Robotics</tspan></text>
  </g>
</svg>
