<?xml version="1.0" encoding="UTF-8" standalone="no"?>
<svg
   width="1362.166"
   height="188.563"
   viewBox="0 0 360.406 49.891"
   version="1.1"
   id="svg8"
   sodipodi:docname="Logo_BW_Dark_Horiz.svg"
   inkscape:version="1.3.2 (091e20e, 2023-11-25)"
   xmlns:inkscape="http://www.inkscape.org/namespaces/inkscape"
   xmlns:sodipodi="http://sodipodi.sourceforge.net/DTD/sodipodi-0.dtd"
   xmlns="http://www.w3.org/2000/svg"
   xmlns:svg="http://www.w3.org/2000/svg">
  <defs
     id="defs8" />
  <sodipodi:namedview
     id="namedview8"
     pagecolor="#ffffff"
     bordercolor="#000000"
     borderopacity="0.25"
     inkscape:showpageshadow="2"
     inkscape:pageopacity="0.0"
     inkscape:pagecheckerboard="0"
     inkscape:deskcolor="#d1d1d1"
     inkscape:zoom="0.97412244"
     inkscape:cx="27.203972"
     inkscape:cy="238.67636"
     inkscape:window-width="1680"
     inkscape:window-height="985"
     inkscape:window-x="0"
     inkscape:window-y="0"
     inkscape:window-maximized="1"
     inkscape:current-layer="svg8" />
  <path
     id="path1"
     style="fill:#dbdbdb;fill-opacity:1"
     d="M 20.715163 3.8700769 L 16.944823 4.6891544 L 17.600602 7.7086309 A 19.93 19.93 0 0 0 13.941883 9.1767693 L 12.084101 6.4988766 L 8.9142453 8.6987587 L 10.693995 11.261412 A 19.93 19.93 0 0 0 7.8295489 13.977546 L 5.1170327 12.231903 L 3.0298061 15.476173 L 5.658089 17.167039 A 19.93 19.93 0 0 0 4.0659262 20.772014 L 0.87384923 20.19375 L 0.18603079 23.989929 L 3.2427145 24.541837 A 19.93 19.93 0 0 0 3.0757984 26.87918 A 19.93 19.93 0 0 0 3.1900042 28.482195 L -5.7581266e-06 29.174147 L 0.82010534 32.943971 L 3.8375147 32.288192 A 19.93 19.93 0 0 0 5.3066866 35.947945 L 2.6298275 37.805209 L 4.8302264 40.975065 L 7.3913295 39.195833 A 19.93 19.93 0 0 0 10.10798 42.058728 L 8.3618201 44.772795 L 11.606091 46.858988 L 13.296956 44.230188 A 19.93 19.93 0 0 0 16.899864 45.821317 L 16.323151 49.015978 L 20.12088 49.702246 L 20.671238 46.645046 A 19.93 19.93 0 0 0 23.010131 46.811962 A 19.93 19.93 0 0 0 24.619347 46.741682 L 25.303031 49.8888 L 29.072855 49.070239 L 28.419143 46.058514 A 19.93 19.93 0 0 0 32.098016 44.614147 L 33.93616 47.26 L 37.106016 45.060118 L 35.347454 42.528471 A 19.93 19.93 0 0 0 38.193813 39.784948 L 40.903229 41.526974 L 42.989939 38.28322 L 40.397313 36.615092 A 19.93 19.93 0 0 0 41.976556 32.992547 L 45.145896 33.565127 L 45.832164 29.767914 L 42.798735 29.221173 A 19.93 19.93 0 0 0 42.941879 26.880213 A 19.9 19.9 0 0 0 42.846794 25.274098 L 46.019234 24.585246 L 45.200156 20.814905 L 42.161559 21.474818 A 19.9 19.9 0 0 0 40.745098 17.791812 L 40.735796 17.795946 L 40.394212 17.127764 L 40.228846 17.29313 L 36.911712 20.597863 A 15 15 0 0 1 38.17676 26.60891 C 38.17676 34.876894 31.474003 41.579167 23.207019 41.579167 C 14.939037 41.579167 8.2367622 34.876926 8.2367622 26.609944 C 8.2367622 18.34096 14.940037 11.640203 23.207019 11.640203 L 23.207019 11.641237 A 15 15 0 0 1 29.096626 12.850991 L 32.55794 9.3870939 A 19.9 19.9 0 0 0 29.115747 7.9473778 L 29.695044 4.7428983 L 25.898865 4.0581805 L 25.350574 7.0936768 A 19.9 19.9 0 0 0 23.010131 6.9469146 L 23.009614 6.9469146 L 23.009097 6.9469146 A 19.93 19.93 0 0 0 21.407633 7.0611204 L 20.715163 3.8700769 z " />
  <path
     id="path4"
     d="M 23.207019 13.376027 A 13.23 13.23 0 0 0 9.9741368 26.609944 A 13.23 13.23 0 0 0 23.207019 39.842826 A 13.23 13.23 0 0 0 36.439902 26.609944 A 13.2 13.2 0 0 0 35.578966 21.924923 L 33.789915 23.70674 A 11 11 0 0 1 34.194028 26.609944 C 34.194028 32.676938 29.274013 37.596952 23.207019 37.596952 C 17.140026 37.596952 12.219011 32.677938 12.220011 26.609944 C 12.221011 20.54195 17.139026 15.623969 23.207019 15.623969 A 11 11 0 0 1 25.955193 15.993975 L 27.760781 14.186837 A 13.2 13.2 0 0 0 23.207019 13.377061 L 23.207019 13.376027 z "
     style="fill:#dbdbdb;fill-opacity:1" />
  <path
     id="path6"
     d="M 42.475754 -0.0020670727 A 7.523 7.523 0 0 0 34.954194 7.5220776 A 7.523 7.523 0 0 0 35.299395 9.6428942 L 25.407935 19.533837 A 7.523 7.523 0 0 0 23.229757 19.209823 A 7.523 7.523 0 0 0 15.708196 26.732935 A 7.5 7.5 0 0 0 16.10094 29.093015 L 19.635118 25.721102 A 2.284 2.284 0 0 1 22.864919 25.797067 L 24.296884 27.298796 A 2.284 2.284 0 0 1 24.222986 30.52808 L 20.767874 33.822994 A 7.6 7.6 0 0 0 23.229757 34.257079 A 7.523 7.523 0 0 0 30.752868 26.732935 A 7.523 7.523 0 0 0 30.371493 24.380606 L 40.130144 14.620922 A 7.523 7.523 0 0 0 42.475754 15.045189 A 7.523 7.523 0 0 0 49.999899 7.5220776 A 7.5 7.5 0 0 0 49.623175 5.1769836 L 45.77687 8.8470712 A 2.284 2.284 0 0 1 42.547068 8.7721398 L 41.11407 7.2688612 A 2.284 2.284 0 0 1 41.189002 4.0400936 L 44.974845 0.42685051 A 7.6 7.6 0 0 0 42.475238 -0.0010335364 L 42.475754 -0.0020670727 z "
     style="fill:#dbdbdb;fill-opacity:1" />
  <path
     fill="#dbdbdb"
     d="M143.638 173.896h2.667q2.683 0 3.888-.996t1.206-2.957q0-1.992-1.302-2.86-1.301-.867-3.92-.867h-2.54zm0 3.181v9.384h-3.84v-23.49h6.636q4.547 0 6.732 1.702 2.185 1.703 2.185 5.142 0 4.386-4.563 6.25l6.636 10.396h-4.37l-5.624-9.384zm20.778 9.384h-3.776v-17.77h3.776zm-4.001-22.479q0-1.012.546-1.558.563-.547 1.591-.547.996 0 1.543.547.562.546.562 1.558 0 .964-.562 1.527-.547.546-1.543.546-1.028 0-1.59-.546-.547-.563-.547-1.527m16.777 22.8q-4.033 0-6.138-2.346-2.088-2.362-2.088-6.764 0-4.483 2.185-6.893 2.201-2.41 6.346-2.41 2.812 0 5.062 1.044l-1.141 3.037q-2.394-.932-3.953-.932-4.611 0-4.611 6.122 0 2.988 1.14 4.499 1.158 1.494 3.375 1.494 2.523 0 4.772-1.253v3.294q-1.012.594-2.17.851-1.14.257-2.779.257m24.972-.321h-3.792v-10.926q0-2.057-.836-3.069-.82-1.012-2.619-1.012-2.378 0-3.502 1.43-1.11 1.414-1.11 4.756v8.82h-3.775v-25h3.776v6.346q0 1.527-.193 3.262h.241q.771-1.285 2.137-1.992 1.382-.707 3.214-.707 6.459 0 6.459 6.507zm9.241 0h-3.776V161.46h3.776zm16.73 0-.756-2.474h-.128q-1.286 1.622-2.587 2.217-1.302.578-3.342.578-2.62 0-4.098-1.414-1.462-1.414-1.462-4 0-2.748 2.04-4.146t6.219-1.526l3.069-.097v-.948q0-1.703-.804-2.538-.787-.852-2.458-.852-1.366 0-2.619.402-1.253.401-2.41.948l-1.221-2.7q1.446-.755 3.165-1.14 1.72-.402 3.246-.402 3.39 0 5.11 1.478 1.735 1.478 1.735 4.644v11.97zm-5.624-2.57q2.056 0 3.293-1.142 1.254-1.157 1.254-3.23v-1.542l-2.282.097q-2.667.096-3.888.9-1.205.787-1.205 2.426 0 1.189.707 1.847.707.643 2.12.643m29.438 2.57h-3.792v-10.926q0-2.057-.835-3.069-.82-1.012-2.62-1.012-2.394 0-3.502 1.414-1.109 1.414-1.109 4.74v8.853h-3.776v-17.77h2.957l.53 2.329h.193q.803-1.27 2.281-1.96 1.479-.691 3.278-.691 6.395 0 6.395 6.507zm11.459.321q-3.326 0-5.19-2.41t-1.864-6.764q0-4.37 1.88-6.797 1.896-2.442 5.238-2.442 3.503 0 5.335 2.587h.192q-.273-1.912-.273-3.021v-6.475h3.792v25h-2.956l-.659-2.329h-.177q-1.815 2.651-5.318 2.651m1.012-3.053q2.33 0 3.39-1.301 1.06-1.318 1.093-4.258v-.53q0-3.358-1.093-4.772t-3.422-1.414q-1.992 0-3.069 1.623-1.076 1.606-1.076 4.595 0 2.956 1.044 4.515 1.044 1.542 3.133 1.542m26.71-9.833h2.667q2.683 0 3.888-.996t1.205-2.957q0-1.992-1.301-2.86-1.302-.867-3.92-.867h-2.54zm0 3.181v9.384h-3.84v-23.49h6.635q4.548 0 6.733 1.702 2.185 1.703 2.185 5.142 0 4.386-4.563 6.25l6.636 10.396h-4.37l-5.624-9.384zm32.764.466q0 4.355-2.233 6.797t-6.218 2.442q-2.491 0-4.403-1.124t-2.94-3.23-1.029-4.885q0-4.322 2.218-6.748t6.25-2.426q3.856 0 6.106 2.49 2.25 2.475 2.25 6.684m-12.934 0q0 6.154 4.547 6.154 4.499 0 4.499-6.154 0-6.09-4.531-6.09-2.378 0-3.455 1.575-1.06 1.575-1.06 4.515m26.562-9.174q3.326 0 5.174 2.41 1.864 2.41 1.864 6.764 0 4.37-1.88 6.813-1.88 2.426-5.222 2.426-3.374 0-5.238-2.426h-.257l-.691 2.105h-2.828v-25h3.776v5.945q0 .658-.065 1.96-.064 1.301-.096 1.655h.16q1.8-2.651 5.303-2.651m-.98 3.085q-2.282 0-3.294 1.35-.996 1.333-1.028 4.482v.257q0 3.246 1.028 4.708 1.028 1.446 3.358 1.446 2.009 0 3.037-1.59 1.044-1.591 1.044-4.596 0-6.057-4.145-6.057m28.378 6.09q0 4.354-2.234 6.796t-6.218 2.442q-2.49 0-4.402-1.124t-2.94-3.23q-1.029-2.105-1.029-4.885 0-4.322 2.217-6.748t6.25-2.426q3.857 0 6.106 2.49 2.25 2.475 2.25 6.684m-12.935 0q0 6.153 4.548 6.153 4.499 0 4.499-6.154 0-6.09-4.532-6.09-2.378 0-3.454 1.575-1.06 1.575-1.06 4.515m24.104 6.185q1.382 0 2.764-.433v2.844q-.627.273-1.623.45-.98.192-2.04.192-5.367 0-5.367-5.656v-9.576h-2.426v-1.67l2.603-1.383 1.285-3.76h2.33v3.953h5.061v2.86h-5.061v9.512q0 1.366.675 2.025.69.642 1.8.642m10.302 2.732h-3.776v-17.77h3.776zm-4-22.479q0-1.012.546-1.558.562-.547 1.59-.547.997 0 1.543.547.562.546.562 1.558 0 .964-.562 1.527-.546.546-1.542.546-1.029 0-1.591-.546-.546-.563-.546-1.527m16.777 22.8q-4.033 0-6.138-2.346-2.089-2.362-2.089-6.764 0-4.483 2.185-6.893 2.202-2.41 6.347-2.41 2.812 0 5.061 1.044l-1.14 3.037q-2.395-.932-3.953-.932-4.612 0-4.612 6.122 0 2.988 1.141 4.499 1.157 1.494 3.374 1.494 2.523 0 4.773-1.253v3.294q-1.013.594-2.17.851-1.14.257-2.78.257m21.276-5.382q0 2.603-1.896 4-1.896 1.382-5.431 1.382-3.551 0-5.704-1.076v-3.262q3.133 1.446 5.833 1.446 3.486 0 3.486-2.105 0-.675-.385-1.124-.386-.45-1.27-.932-.883-.482-2.458-1.093-3.069-1.189-4.162-2.378-1.076-1.189-1.076-3.085 0-2.282 1.832-3.535 1.847-1.27 5.013-1.27 3.133 0 5.929 1.27l-1.222 2.844q-2.876-1.189-4.836-1.189-2.988 0-2.988 1.703 0 .836.77 1.414.788.579 3.407 1.59 2.201.853 3.198 1.56.996.706 1.478 1.638.482.916.482 2.202"
     aria-label="Richland Robotics"
     font-family="Open Sans"
     font-size="32.907"
     font-weight="600"
     letter-spacing=".211"
     style="-inkscape-font-specification:'Open Sans Semi-Bold'"
     transform="matrix(1.06361,0,0,1.06361,-86.782999,-158.82)"
     id="path8" />
</svg>
