<?xml version="1.0" encoding="UTF-8" standalone="no"?>
<svg
   width="598.71899"
   height="188.56252"
   viewBox="0 0 158.41121 49.890871"
   version="1.1"
   id="svg8"
   sodipodi:docname="Logo_BW_Light_Horiz.svg"
   inkscape:export-filename="Logo_BW_Light_Horiz.png"
   inkscape:export-xdpi="96"
   inkscape:export-ydpi="96"
   inkscape:version="1.3.2 (091e20e, 2023-11-25)"
   xmlns:inkscape="http://www.inkscape.org/namespaces/inkscape"
   xmlns:sodipodi="http://sodipodi.sourceforge.net/DTD/sodipodi-0.dtd"
   xmlns="http://www.w3.org/2000/svg"
   xmlns:svg="http://www.w3.org/2000/svg">
  <defs
     id="defs8" />
  <sodipodi:namedview
     id="namedview8"
     pagecolor="#ffffff"
     bordercolor="#000000"
     borderopacity="0.25"
     inkscape:showpageshadow="2"
     inkscape:pageopacity="0.0"
     inkscape:pagecheckerboard="0"
     inkscape:deskcolor="#d1d1d1"
     inkscape:zoom="0.43590981"
     inkscape:cx="729.5087"
     inkscape:cy="558.60179"
     inkscape:window-width="1680"
     inkscape:window-height="985"
     inkscape:window-x="0"
     inkscape:window-y="0"
     inkscape:window-maximized="1"
     inkscape:current-layer="svg8" />
  <g
     id="g29"
     transform="translate(0.53525868,-23.010522)">
    <path
       id="path1"
       style="fill:#1c1c1c;fill-opacity:1"
       d="m 20.179237,26.880605 -3.769823,0.820111 0.656295,3.019993 a 19.933,19.933 0 0 0 -3.657685,1.468655 l -1.859849,-2.678926 -3.1688224,2.199882 1.7797494,2.564204 a 19.933,19.933 0 0 0 -2.8623788,2.7151 l -2.7156167,-1.747193 -2.0867099,3.246337 2.63035,1.690349 a 19.933,19.933 0 0 0 -1.5921628,3.603425 l -3.19517765,-0.576197 -0.6852346,3.794112 3.05616705,0.551908 a 19.933,19.933 0 0 0 -0.1669161,2.338376 19.933,19.933 0 0 0 0.1142057,1.601465 l -3.19156027,0.694536 0.8201111,3.768791 3.01947647,-0.656296 a 19.933,19.933 0 0 0 1.4686552,3.659236 l -2.6778927,1.858815 2.1998821,3.169339 2.5636869,-1.77975 a 19.933,19.933 0 0 0 2.7150997,2.862379 l -1.744609,2.7151 3.2437543,2.086193 1.690349,-2.629833 a 19.933,19.933 0 0 0 3.604458,1.592163 l -0.576714,3.194661 3.795663,0.685751 0.552425,-3.0572 a 19.933,19.933 0 0 0 2.335792,0.167433 19.933,19.933 0 0 0 1.601464,-0.114723 l 0.694537,3.192594 3.769824,-0.820111 -0.656813,-3.019994 a 19.933,19.933 0 0 0 3.658202,-1.468655 l 1.858815,2.677893 3.168823,-2.199882 -1.77975,-2.56317 a 19.933,19.933 0 0 0 2.862379,-2.7151 l 2.715617,1.746159 2.085676,-3.244787 -2.629316,-1.690349 a 19.933,19.933 0 0 0 1.592163,-3.603941 l 3.195177,0.57723 0.685235,-3.796179 -3.056167,-0.551908 a 19.933,19.933 0 0 0 0.166916,-2.336826 19.9,19.9 0 0 0 -0.0956,-1.605082 l 3.172956,-0.690402 -0.819077,-3.769824 -3.039114,0.660946 a 19.9,19.9 0 0 0 -1.416978,-3.683006 l -0.0088,0.0031 -5.17e-4,-5.17e-4 5.17e-4,-5.16e-4 -0.341067,-0.668182 -0.165883,0.165366 5.17e-4,5.17e-4 -3.317652,3.305249 a 15,15 0 0 1 1.265049,6.012081 c 0,8.266992 -6.702266,14.970258 -14.970257,14.970258 -8.266992,0 -14.9697413,-6.703266 -14.9697413,-14.970258 0,-8.267992 6.7027493,-14.96974 14.9697413,-14.96974 a 15,15 0 0 1 5.88909,1.211304 l 3.46183,-3.464413 a 19.9,19.9 0 0 0 -3.441676,-1.4392 l 0.57878,-3.204996 -3.795662,-0.684718 -0.548291,3.035496 a 19.9,19.9 0 0 0 -2.34096,-0.146762 19.933,19.933 0 0 0 -1.600431,0.114723 z" />
    <path
       id="path4"
       d="M 22.671094,36.387589 A 13.234,13.234 0 0 0 9.437177,49.621505 13.234,13.234 0 0 0 22.671094,62.855421 13.234,13.234 0 0 0 35.90501,49.620472 13.2,13.2 0 0 0 35.044074,44.934418 l -1.791119,1.783884 h 10e-4 a 11,11 0 0 1 0.404113,2.903203 c 0,6.066994 -4.920015,10.988008 -10.987008,10.987008 -6.066994,-0.001 -10.985975,-4.920014 -10.985975,-10.987008 0,-6.066994 4.918981,-10.985974 10.985975,-10.985974 a 11,11 0 0 1 2.747656,0.369489 l 1.806621,-1.807655 A 13.2,13.2 0 0 0 22.67106,36.387589 Z"
       style="fill:#1c1c1c;fill-opacity:1" />
    <path
       id="path6"
       d="m 41.941379,23.010528 a 7.523,7.523 0 0 0 -7.524145,7.523111 7.523,7.523 0 0 0 0.345718,2.122884 l -9.889393,9.887842 a 7.523,7.523 0 0 0 -2.178177,-0.324014 h -10e-4 a 7.523,7.523 0 0 0 -7.522077,7.524145 7.5,7.5 0 0 0 0.393777,2.359047 l 3.533144,-3.371913 a 2.284,2.284 0 0 1 3.229801,0.07596 l 1.432998,1.501729 a 2.284,2.284 0 0 1 -0.07597,3.230318 l -3.453561,3.294913 a 7.5,7.5 0 0 0 2.462917,0.433052 7.523,7.523 0 0 0 7.522594,-7.523111 7.523,7.523 0 0 0 -0.381375,-2.353362 L 39.594735,37.633 a 7.523,7.523 0 0 0 2.346644,0.42375 7.523,7.523 0 0 0 7.522594,-7.523111 7.5,7.5 0 0 0 -0.377757,-2.345094 l -3.845789,3.670088 a 2.284,2.284 0 0 1 -3.229284,-0.07597 l -1.434032,-1.502245 a 2.284,2.284 0 0 1 0.07596,-3.228768 l 3.78636,-3.613243 a 7.5,7.5 0 0 0 -2.498057,-0.427884 z"
       style="fill:#1c1c1c;fill-opacity:1" />
  </g>
  <path
     fill="#353535"
     d="m 63.467213,9.1464215 h 1.961627 c 1.315588,0 2.268858,-0.24431 2.859812,-0.732931 0.590494,-0.488621 0.88574,-1.213254 0.88574,-2.1739 0,-0.97724 -0.318986,-1.678365 -0.956958,-2.103372 -0.637973,-0.425469 -1.59908,-0.638203 -2.883322,-0.638203 h -1.866899 z m 0,2.3398465 V 18.38688 H 60.643356 V 1.1111505 h 4.880212 c 2.229215,0 3.879462,0.4174019 4.950739,1.2522051 1.071277,0.8352644 1.606916,2.0957669 1.606916,3.7815069 0,2.150391 -1.118526,3.682631 -3.355578,4.5967205 l 4.880212,7.645297 H 70.392025 L 66.255807,11.486268 Z M 78.748126,18.38688 H 75.971287 V 5.3178955 h 2.776839 z M 75.80534,1.8551443 c 0,-0.4959956 0.13414,-0.8779037 0.402421,-1.1457228 0.275655,-0.267819 0.665399,-0.4017289 1.169231,-0.4017289 0.488621,0 0.866841,0.1336789 1.13466,0.4010375 0.275656,0.2682803 0.413483,0.6504186 0.413483,1.1464142 0,0.4729477 -0.137827,0.8472491 -0.413483,1.122905 -0.267819,0.2678191 -0.645809,0.401729 -1.133968,0.401729 -0.504293,0 -0.894268,-0.1339099 -1.169923,-0.401729 C 75.93948,2.7023934 75.80534,2.328092 75.80534,1.8551443 M 88.144161,18.622662 c -1.97753,0 -3.482115,-0.57482 -4.513749,-1.724462 -1.024259,-1.158398 -1.536389,-2.816713 -1.536389,-4.97494 0,-2.1978695 0.535639,-3.8877585 1.606916,-5.0696665 1.079114,-1.181448 2.634861,-1.772172 4.66725,-1.772172 1.378739,0 2.619653,0.255835 3.722735,0.767503 l -0.838722,2.233365 c -1.174072,-0.456354 -2.143248,-0.68453 -2.907522,-0.68453 -2.260566,0 -3.390844,1.500433 -3.390844,4.5013015 0,1.465861 0.279573,2.568945 0.838721,3.309251 0.566987,0.732931 1.394182,1.099396 2.481596,1.099396 1.236765,0 2.406688,-0.307462 3.509769,-0.922386 v 2.422819 c -0.496456,0.291329 -1.028405,0.499914 -1.595852,0.625757 -0.55915,0.126304 -1.240451,0.189456 -2.043909,0.189456 M 106.50891,18.38757 h -2.78859 v -8.035961 c 0,-1.0085875 -0.2049,-1.7608785 -0.61469,-2.2568735 -0.4015,-0.496457 -1.04339,-0.744686 -1.92568,-0.744686 -1.16623,0 -2.025013,0.350562 -2.576323,1.051687 -0.54393,0.693288 -0.8159,1.8592935 -0.8159,3.4980145 V 18.38688 H 95.011583 V 0 h 2.776834 v 4.6672475 c 0,0.748603 -0.0472,1.548373 -0.141737,2.39931 h 0.177007 c 0.37799,-0.630135 0.90187,-1.118756 1.57165,-1.465861 0.677613,-0.346183 1.465403,-0.519274 2.363353,-0.519274 3.16682,0 4.75022,1.595161 4.75022,4.785483 z m 6.7969,0 h -2.77753 V 0 h 2.77684 z m 12.30286,0 -0.55592,-1.819879 h -0.094 c -0.63059,0.795622 -1.26487,1.339326 -1.90285,1.631116 -0.63797,0.283491 -1.4571,0.425238 -2.45739,0.425238 -1.28424,0 -2.28868,-0.346643 -3.01331,-1.039932 -0.71726,-0.693289 -1.07589,-1.673986 -1.07589,-2.942095 0,-1.347394 0.50014,-2.363817 1.50043,-3.049268 1.00075,-0.684991 2.52538,-1.059063 4.5739,-1.122213 l 2.25688,-0.07122 V 9.7023425 c 0,-0.835265 -0.19706,-1.457564 -0.59119,-1.866899 -0.38582,-0.417632 -0.9883,-0.626448 -1.80743,-0.626448 -0.66978,0 -1.3119,0.09842 -1.92636,0.295246 -0.61447,0.197292 -1.20542,0.429848 -1.77287,0.697667 l -0.89753,-1.985135 c 0.70896,-0.370614 1.48476,-0.650419 2.3274,-0.839413 0.8431,-0.196832 1.63872,-0.295247 2.38686,-0.295247 1.66223,0 2.9149,0.362317 3.758,1.08695 0.85094,0.724633 1.27641,1.863211 1.27641,3.415733 V 18.38757 Z m -4.13622,-1.890406 c 1.00859,0 1.8162,-0.279805 2.42282,-0.839414 0.61447,-0.566984 0.9217,-1.358687 0.9217,-2.37511 v -1.133968 l -1.67814,0.07053 c -1.30775,0.04748 -2.26102,0.26805 -2.85981,0.661712 -0.59096,0.386287 -0.88643,0.980929 -0.88643,1.783926 0,0.583117 0.17332,1.036244 0.51997,1.359379 0.34664,0.315297 0.8666,0.472948 1.55989,0.472948 m 21.64981,1.890406 h -2.7886 v -8.035961 c 0,-1.0085875 -0.20489,-1.7608785 -0.61469,-2.2568735 -0.4015,-0.496457 -1.04339,-0.744686 -1.92567,-0.744686 -1.17407,0 -2.03285,0.346644 -2.57632,1.039932 -0.54348,0.693288 -0.81521,1.8553745 -0.81521,3.4862615 v 6.510637 h -2.77684 V 5.3178955 h 2.17459 l 0.38928,1.713399 h 0.14244 c 0.39366,-0.6223 0.95281,-1.102854 1.67744,-1.441661 0.72463,-0.338808 1.52832,-0.508212 2.41107,-0.508212 3.135,0 4.70251,1.595162 4.70251,4.785484 z m 8.42732,0.236475 c -1.63089,0 -2.90315,-0.590954 -3.81677,-1.772862 -0.91363,-1.181908 -1.37045,-2.839991 -1.37045,-4.974248 0,-2.1430165 0.46097,-3.8093965 1.38289,-4.9991415 0.9293,-1.19712 2.21309,-1.79568 3.85134,-1.79568 1.71755,0 3.0253,0.634054 3.92326,1.902162 h 0.14174 c -0.13367,-0.937139 -0.20051,-1.677676 -0.20051,-2.221612 V 6.914e-4 h 2.78859 V 18.38757 h -2.17459 l -0.48401,-1.713398 h -0.12999 c -0.89012,1.299916 -2.19396,1.949873 -3.9115,1.949873 m 0.74468,-2.24512 c 1.14227,0 1.97338,-0.319216 2.49335,-0.957649 0.51996,-0.645348 0.78778,-1.688968 0.80346,-3.130858 v -0.389975 c 0,-1.646559 -0.26782,-2.8164815 -0.80346,-3.5097705 -0.53564,-0.693288 -1.37459,-1.039931 -2.51686,-1.039931 -0.97724,0 -1.72976,0.39781 -2.25756,1.193432 -0.5278,0.788246 -0.79171,1.9148385 -0.79171,3.3797785 0,1.449267 0.25607,2.556039 0.7682,3.320314 0.51213,0.75598 1.28032,1.133969 2.30458,1.133969"
     aria-label="Richland Robotics"
     font-family="'Open Sans'"
     font-size="35px"
     font-weight="600"
     letter-spacing="0.225"
     style="-inkscape-font-specification:'Open Sans Semi-Bold';fill:#1c1c1c;fill-opacity:1;stroke-width:0.691444"
     id="path8"
     sodipodi:nodetypes="cscscsccccccscsccccccccccccscsssccccscsccsscsccccccscscsccccscccssccccccccccscscccscsccccscsccccscccsccccscsssccccccsssccsscsccsccccccccccssscscc" />
  <path
     fill="#353535"
     d="m 65.030083,6.6353775 h 2.837 q 2.854,0 4.136,-1.06 1.281,-1.06 1.281,-3.144 0,-2.12 -1.384,-3.042 -1.384,-0.923 -4.17,-0.923 h -2.7 z m 0,3.3840005 v 9.98 h -4.084 V -4.9856225 h 7.058 q 4.836,0 7.16,1.811 2.324,1.812 2.324,5.469 0,4.665 -4.853,6.648 l 7.058,11.0570005 h -4.648 l -5.982,-9.98 z m 22.1,9.98 h -4.016 V 1.0983775 h 4.016 z m -4.256,-23.9090005 q 0,-1.076 0.582,-1.657 0.598,-0.581 1.691,-0.581 1.06,0 1.641,0.58 0.598,0.582 0.598,1.658 0,1.026 -0.598,1.624 -0.581,0.581 -1.64,0.581 -1.094,0 -1.692,-0.581 -0.582,-0.598 -0.582,-1.624 M 100.71909,20.340378 q -4.290007,0 -6.528007,-2.494 -2.222,-2.513 -2.222,-7.195 0,-4.7680005 2.324,-7.3320005 2.341,-2.563 6.750007,-2.563 2.991,0 5.384,1.11 l -1.213,3.23 q -2.547,-0.99 -4.205,-0.99 -4.904007,0 -4.904007,6.5099995 0,3.18 1.213,4.786001 1.230004,1.589999 3.589007,1.589999 2.683,0 5.076,-1.333999 v 3.504 q -1.077,0.632 -2.308,0.905 -1.213,0.274 -2.956,0.274 m 26.56,-0.341 h -4.033 V 8.3783775 q 0,-2.188 -0.889,-3.264 -0.871,-1.077 -2.785,-1.077 -2.53,0 -3.726,1.521 -1.18,1.504 -1.18,5.0590005 v 9.382 h -4.015 V -6.5926225 h 4.016 v 6.75 q 0,1.624 -0.205,3.47 h 0.256 q 0.82,-1.367 2.273,-2.12 1.47,-0.751 3.418,-0.751 6.87,0 6.87,6.921 z m 9.83,0 h -4.017 V -6.5926225 h 4.016 z m 17.793,0 -0.804,-2.632001 h -0.136 q -1.368,1.726001 -2.752,2.359001 -1.384,0.615 -3.554,0.615 -2.786,0 -4.358,-1.504 -1.556,-1.504001 -1.556,-4.255 0,-2.923 2.17,-4.41 2.171,-1.4860005 6.615,-1.6230005 l 3.264,-0.103 v -1.008 q 0,-1.812 -0.855,-2.7 -0.837,-0.906 -2.614,-0.906 -1.453,0 -2.786,0.427 -1.333,0.428 -2.564,1.009 l -1.298,-2.871 q 1.538,-0.804 3.366,-1.214 1.829,-0.427 3.452,-0.427 3.606,0 5.435,1.572 1.846,1.572 1.846,4.94 V 20.000378 Z m -5.982,-2.734 q 2.188,0 3.504,-1.214 1.333,-1.23 1.333,-3.435 v -1.64 l -2.427,0.102 q -2.837,0.103 -4.136,0.957 -1.282,0.838 -1.282,2.58 0,1.265 0.752,1.966 0.752,0.684 2.256,0.684 m 31.311,2.734 h -4.033 V 8.3783775 q 0,-2.188 -0.889,-3.264 -0.871,-1.077 -2.785,-1.077 -2.547,0 -3.726,1.504 -1.179,1.504 -1.179,5.0420005 v 9.416 h -4.016 V 1.0983775 h 3.145 l 0.563,2.478 h 0.206 q 0.854,-1.35 2.426,-2.085 1.572,-0.735 3.487,-0.735 6.801,0 6.801,6.921 z m 12.188,0.342 q -3.538,0 -5.52,-2.564 -1.982,-2.564 -1.982,-7.194 0,-4.6490005 2,-7.2300005 2.016,-2.597 5.57,-2.597 3.726,0 5.674,2.751 h 0.205 q -0.29,-2.033 -0.29,-3.213 v -6.887 h 4.033 V 20.000378 h -3.145 l -0.7,-2.478 h -0.188 q -1.931,2.82 -5.657,2.82 m 1.077,-3.247 q 2.478,0 3.606,-1.385 1.128,-1.4 1.162,-4.528 v -0.564 q 0,-3.5720005 -1.162,-5.0760005 -1.162,-1.504 -3.64,-1.504 -2.12,0 -3.265,1.726 -1.145,1.71 -1.145,4.8880005 0,3.143999 1.111,4.802 1.111,1.639999 3.333,1.639999 m 28.408,-10.4599995 h 2.837 q 2.854,0 4.136,-1.059 1.282,-1.06 1.282,-3.144 0,-2.12 -1.385,-3.042 -1.384,-0.923 -4.17,-0.923 h -2.7 z m 0,3.3849995 v 9.980001 h -4.084 V -4.9856225 h 7.058 q 4.836,0 7.16,1.811 2.325,1.812 2.325,5.469 0,4.665 -4.854,6.648 l 7.058,11.0570005 h -4.648 l -5.982,-9.98 z m 34.849,0.495 q 0,4.631 -2.375,7.230001 -2.376,2.597 -6.614,2.597 -2.65,0 -4.683,-1.197 -2.033,-1.196 -3.127,-3.435 -1.094,-2.239 -1.094,-5.195 0,-4.5970005 2.358,-7.1780005 2.358,-2.581 6.648,-2.58 4.102,0 6.494,2.649 2.393,2.632 2.393,7.1100005 m -13.757,0 q 0,6.545999 4.836,6.545999 4.785,0 4.785,-6.545999 0,-6.4770005 -4.819,-6.4770005 -2.53,0 -3.674,1.675 -1.128,1.675 -1.128,4.8020005 m 28.252,-9.7580005 q 3.537,0 5.503,2.563 1.982,2.564 1.982,7.1950005 0,4.649 -2,7.246 -1.999,2.58 -5.553,2.58 -3.59,0 -5.572,-2.58 h -0.273 l -0.735,2.239 h -3.008 V -6.5926225 h 4.016 v 6.324 q 0,0.7 -0.068,2.084 -0.069,1.385 -0.103,1.76 h 0.171 q 1.914,-2.82 5.64,-2.82 m -1.043,3.281 q -2.426,0 -3.503,1.436 -1.06,1.418 -1.094,4.7680005 v 0.273 q 0,3.452 1.094,5.007 1.094,1.539 3.572,1.539 2.136,0 3.23,-1.692 1.11,-1.692 1.11,-4.888 0,-6.4430005 -4.409,-6.4430005 m 30.184,6.4770005 q 0,4.631 -2.376,7.23 -2.375,2.597 -6.614,2.597 -2.648,0 -4.682,-1.197 -2.034,-1.196 -3.128,-3.435 -1.093,-2.238 -1.093,-5.195 0,-4.5970005 2.358,-7.1780005 2.358,-2.581 6.648,-2.58 4.102,0 6.494,2.649 2.393,2.632 2.393,7.1100005 m -13.758,0 q 0,6.546 4.837,6.546 4.785,0 4.785,-6.546 0,-6.4770005 -4.82,-6.4770005 -2.529,0 -3.674,1.675 -1.128,1.675 -1.128,4.8020005 m 25.638,6.58 q 1.47,0 2.94,-0.462 v 3.025 q -0.667,0.29 -1.727,0.479 -1.042,0.205 -2.17,0.205 -5.708,0 -5.708,-6.016 V 4.1403775 h -2.58 v -1.778 l 2.768,-1.47 1.367,-3.998 h 2.478 v 4.204 h 5.383 v 3.042 h -5.382 V 14.256378 q 0,1.452 0.718,2.153 0.735,0.684 1.914,0.684 m 10.957,2.905 h -4.016 V 1.0983775 h 4.016 z m -4.255,-23.9090005 q 0,-1.076 0.58,-1.657 0.599,-0.581 1.693,-0.581 1.06,0 1.64,0.58 0.598,0.582 0.598,1.658 0,1.026 -0.598,1.624 -0.58,0.581 -1.64,0.581 -1.094,0 -1.692,-0.581 -0.581,-0.598 -0.581,-1.624 m 17.844,24.2500005 q -4.29,0 -6.528,-2.494 -2.222,-2.513 -2.222,-7.195 0,-4.7680005 2.324,-7.3320005 2.342,-2.563 6.75,-2.563 2.991,0 5.384,1.11 l -1.213,3.23 q -2.547,-0.99 -4.204,-0.99 -4.905,0 -4.905,6.5100005 0,3.18 1.213,4.786 1.23,1.59 3.59,1.59 2.682,0 5.075,-1.334 v 3.504 q -1.077,0.632 -2.307,0.905 -1.214,0.274 -2.957,0.274 m 22.63,-5.724 q 0,2.768 -2.017,4.255 -2.017,1.47 -5.776,1.47 -3.777,0 -6.067,-1.145 v -3.47 q 3.332,1.539 6.203,1.539 3.709,0 3.709,-2.24 0,-0.717 -0.41,-1.195 -0.41,-0.478 -1.35,-0.992 -0.94,-0.514 -2.615,-1.162 -3.264,-1.264 -4.426,-2.5290005 -1.145,-1.265 -1.145,-3.281 0,-2.427 1.948,-3.76 1.965,-1.35 5.332,-1.35 3.332,0 6.306,1.35 l -1.299,3.025 q -3.059,-1.265 -5.144,-1.265 -3.179,0 -3.179,1.812 0,0.888 0.82,1.504 0.838,0.615 3.624,1.692 2.341,0.905 3.4,1.6570005 1.06,0.752 1.573,1.743 0.513,0.975 0.513,2.342"
     aria-label="Richland Robotics"
     font-family="'Open Sans'"
     font-size="35px"
     font-weight="600"
     letter-spacing="0.225"
     style="-inkscape-font-specification:'Open Sans Semi-Bold';display:none;fill:#1c1c1c;fill-opacity:1"
     id="path2" />
  <path
     fill="#353535"
     d="m 63.305401,37.683715 h 1.9617 c 1.31564,0 2.26894,-0.244089 2.85992,-0.732268 0.59098,-0.488638 0.88647,-1.213298 0.88647,-2.17398 0,-0.977277 -0.31924,-1.678427 -0.95769,-2.103451 -0.638,-0.425484 -1.59914,-0.638227 -2.88343,-0.638227 h -1.86697 z m 0,2.340625 v 6.900868 h -2.82396 V 29.648835 h 4.88039 c 2.2293,0 3.87961,0.417417 4.95093,1.252252 1.07178,0.835296 1.60766,2.095845 1.60766,3.781649 0,2.150471 -1.118789,3.682768 -3.35639,4.596891 l 4.88039,7.645581 h -3.21395 l -4.13637,-6.900869 z m 24.09703,0.342277 c 0,2.134798 -0.54741,3.80124 -1.64224,4.999327 -1.09529,1.197164 -2.61975,1.795747 -4.57338,1.795747 -1.2216,0 -2.30098,-0.275896 -3.238149,-0.827689 -0.937171,-0.551332 -1.65792,-1.343065 -2.16223,-2.375199 -0.50431,-1.032134 -0.75647,-2.229529 -0.75647,-3.592186 0,-2.119124 0.543499,-3.77358 1.63049,-4.96337 1.086989,-1.189789 2.61929,-1.784453 4.59689,-1.783992 1.89094,0 3.38774,0.610568 4.49041,1.831704 1.103119,1.213299 1.65468,2.852082 1.65468,4.91635 m -9.51255,0 c 0,3.017574 1.11465,4.526361 3.34395,4.526361 2.20579,0 3.30868,-1.508787 3.30868,-4.526361 0,-2.985767 -1.11072,-4.47865 -3.33219,-4.47865 -1.16628,0 -2.0131,0.386071 -2.54046,1.158212 -0.51998,0.772141 -0.77998,1.878954 -0.77998,3.320438 m 19.53541,-6.747362 c 1.630475,0 2.898868,0.590745 3.805158,1.772237 0.91366,1.181952 1.37049,2.840327 1.37049,4.975125 0,2.143095 -0.46098,3.813226 -1.38294,5.01039 -0.9215,1.189328 -2.201413,1.783992 -3.839728,1.783992 -1.65492,0 -2.93921,-0.594664 -3.85287,-1.783992 h -0.18877 l -0.50823,1.548201 h -2.07994 V 28.537643 h 2.77694 v 4.372856 c 0,0.322686 -0.0157,0.803026 -0.047,1.441023 -0.0318,0.638457 -0.0555,1.044119 -0.0712,1.216987 h 0.11824 c 0.88231,-1.299964 2.18228,-1.949945 3.89989,-1.949945 m -0.72121,2.268712 c -1.11833,0 -1.92574,0.330984 -2.42221,0.992951 -0.48864,0.653669 -0.7408,1.752645 -0.75647,3.296928 v 0.188771 c 0,1.591302 0.25216,2.745365 0.75647,3.462189 0.50431,0.709448 1.32762,1.064172 2.46993,1.064172 0.984645,0 1.729125,-0.389989 2.233435,-1.169967 0.51169,-0.779978 0.76753,-1.906612 0.76753,-3.379904 0,-2.970093 -1.01623,-4.45514 -3.048685,-4.45514 m 20.871328,4.47865 c 0,2.134797 -0.54765,3.80124 -1.64293,4.999327 -1.09483,1.197164 -2.61929,1.795747 -4.57338,1.795747 -1.22068,0 -2.29983,-0.275897 -3.23747,-0.82769 -0.93763,-0.551331 -1.6586,-1.343064 -2.16291,-2.375199 -0.50386,-1.031672 -0.75578,-2.229068 -0.75578,-3.592185 0,-2.119125 0.54349,-3.773581 1.63049,-4.96337 1.08699,-1.189789 2.61928,-1.784453 4.59689,-1.783992 1.89094,0 3.38774,0.610568 4.4904,1.831703 1.10312,1.213299 1.65469,2.852083 1.65469,4.91635 m -9.51324,0 c 0,3.017575 1.11487,4.526362 3.34464,4.526362 2.20579,0 3.30868,-1.508787 3.30868,-4.526362 0,-2.985766 -1.11097,-4.478649 -3.33288,-4.478649 -1.16582,0 -2.01265,0.38607 -2.54046,1.158212 -0.52,0.772141 -0.77998,1.878953 -0.77998,3.320437 m 17.7279,4.549872 c 0.67764,0 1.35528,-0.106487 2.03292,-0.319459 v 2.091696 c -0.30748,0.133684 -0.70553,0.244089 -1.19417,0.331214 -0.48034,0.0945 -0.9805,0.141751 -1.50049,0.141751 -2.63127,0 -3.94691,-1.386627 -3.94691,-4.159882 v -7.04262 h -1.78399 v -1.229433 l 1.91399,-1.016461 0.94524,-2.764496 h 1.71346 v 2.906939 h 3.72218 v 2.103451 h -3.72149 v 6.994908 c 0,0.669343 0.16549,1.165588 0.49648,1.488735 0.33882,0.31531 0.77998,0.472965 1.32347,0.472965 m 7.57643,2.00872 h -2.77694 V 33.855738 h 2.77694 z m -2.9422,-16.532352 c 0,-0.496014 0.13368,-0.877936 0.40105,-1.145765 0.27613,-0.267829 0.66635,-0.401744 1.17066,-0.401744 0.48864,0 0.86664,0.133684 1.13401,0.401052 0.27567,0.26829 0.4135,0.650443 0.4135,1.146457 0,0.472965 -0.13783,0.847281 -0.4135,1.122947 -0.26737,0.267829 -0.64537,0.401744 -1.13401,0.401744 -0.50431,0 -0.8943,-0.133915 -1.16996,-0.401744 -0.26783,-0.275666 -0.40175,-0.649982 -0.40175,-1.122947 m 12.33859,16.768143 c -1.97761,0 -3.48224,-0.574842 -4.51392,-1.724526 -1.02429,-1.158442 -1.53644,-2.816817 -1.53644,-4.975125 0,-2.197952 0.53566,-3.887904 1.60697,-5.069856 1.07962,-1.181492 2.63542,-1.772237 4.66742,-1.772237 1.3788,0 2.61976,0.255844 3.72288,0.767531 l -0.83875,2.233448 c -1.17412,-0.45637 -2.1431,-0.684555 -2.90694,-0.684555 -2.26111,0 -3.39166,1.500489 -3.39166,4.501468 0,1.465916 0.27958,2.56904 0.83875,3.309374 0.567,0.732958 1.39447,1.099437 2.48238,1.099437 1.23634,0 2.40608,-0.307474 3.50921,-0.92242 v 2.42291 c -0.49648,0.291339 -1.02822,0.499932 -1.59523,0.62578 -0.55962,0.126309 -1.24118,0.189463 -2.04467,0.189463 m 15.64796,-3.957974 c 0,1.275992 -0.4649,2.256728 -1.39469,2.942204 -0.9298,0.677641 -2.26111,1.016461 -3.99393,1.016461 -1.74113,0 -3.13951,-0.263911 -4.19515,-0.791733 v -2.3994 c 1.53598,0.709448 2.96571,1.064172 4.28919,1.064172 1.70977,0 2.56466,-0.516298 2.56466,-1.548892 0,-0.330523 -0.0945,-0.605958 -0.28351,-0.826307 -0.189,-0.220348 -0.50016,-0.448994 -0.93348,-0.685938 -0.43332,-0.236944 -1.03605,-0.504773 -1.80819,-0.803488 -1.50464,-0.582678 -2.52479,-1.165587 -3.06045,-1.748727 -0.52782,-0.583139 -0.79173,-1.339377 -0.79173,-2.268712 0,-1.118798 0.44899,-1.98544 1.34698,-2.599927 0.90583,-0.622322 2.1348,-0.933484 3.68692,-0.933484 1.53598,0 2.98945,0.311162 4.36041,0.933484 l -0.89822,2.091697 c -1.41014,-0.58314 -2.59578,-0.87471 -3.55692,-0.87471 -1.46546,0 -2.19819,0.417648 -2.19819,1.252944 0,0.40935 0.189,0.756006 0.56701,1.03997 0.3863,0.283503 1.2216,0.673492 2.50589,1.169967 1.07915,0.417186 1.86282,0.799109 2.35099,1.145764 0.48864,0.346658 0.8512,0.748402 1.08769,1.205233 0.23648,0.449456 0.35472,0.989263 0.35472,1.619422"
     aria-label="Richland Robotics"
     font-family="'Open Sans'"
     font-size="35px"
     font-weight="600"
     letter-spacing="0.225"
     style="-inkscape-font-specification:'Open Sans Semi-Bold';fill:#1c1c1c;fill-opacity:1;stroke-width:0.69147"
     id="path29"
     sodipodi:nodetypes="cscscsccccccscscccccccscsssccccsssccccscsccccccscccccccscscscccsccssccccsssccccccssccccccccccscccccccccscscsccccscsccsscsccccccsccssssccscsccsscsccc" />
  <g
     id="g32"
     transform="translate(-0.96191762,-42.514146)"
     style="display:none">
    <path
       id="path30"
       style="fill:#1c1c1c;fill-opacity:1"
       d="m 20.179237,26.880605 -3.769823,0.820111 0.656295,3.019993 a 19.933,19.933 0 0 0 -3.657685,1.468655 l -1.859849,-2.678926 -3.1688224,2.199882 1.7797494,2.564204 a 19.933,19.933 0 0 0 -2.8623788,2.7151 l -2.7156167,-1.747193 -2.0867099,3.246337 2.63035,1.690349 a 19.933,19.933 0 0 0 -1.5921628,3.603425 l -3.19517765,-0.576197 -0.6852346,3.794112 3.05616705,0.551908 a 19.933,19.933 0 0 0 -0.1669161,2.338376 19.933,19.933 0 0 0 0.1142057,1.601465 l -3.19156027,0.694536 0.8201111,3.768791 3.01947647,-0.656296 a 19.933,19.933 0 0 0 1.4686552,3.659236 l -2.6778927,1.858815 2.1998821,3.169339 2.5636869,-1.77975 a 19.933,19.933 0 0 0 2.7150997,2.862379 l -1.744609,2.7151 3.2437543,2.086193 1.690349,-2.629833 a 19.933,19.933 0 0 0 3.604458,1.592163 l -0.576714,3.194661 3.795663,0.685751 0.552425,-3.0572 a 19.933,19.933 0 0 0 2.335792,0.167433 19.933,19.933 0 0 0 1.601464,-0.114723 l 0.694537,3.192594 3.769824,-0.820111 -0.656813,-3.019994 a 19.933,19.933 0 0 0 3.658202,-1.468655 l 1.858815,2.677893 3.168823,-2.199882 -1.77975,-2.56317 a 19.933,19.933 0 0 0 2.862379,-2.7151 l 2.715617,1.746159 2.085676,-3.244787 -2.629316,-1.690349 a 19.933,19.933 0 0 0 1.592163,-3.603941 l 3.195177,0.57723 0.685235,-3.796179 -3.056167,-0.551908 a 19.933,19.933 0 0 0 0.166916,-2.336826 19.9,19.9 0 0 0 -0.0956,-1.605082 l 3.172956,-0.690402 -0.819077,-3.769824 -3.039114,0.660946 a 19.9,19.9 0 0 0 -1.416978,-3.683006 l -0.0088,0.0031 -5.17e-4,-5.17e-4 5.17e-4,-5.16e-4 -0.341067,-0.668182 -0.165883,0.165366 5.17e-4,5.17e-4 -3.317652,3.305249 a 15,15 0 0 1 1.265049,6.012081 c 0,8.266992 -6.702266,14.970258 -14.970257,14.970258 -8.266992,0 -14.9697413,-6.703266 -14.9697413,-14.970258 0,-8.267992 6.7027493,-14.96974 14.9697413,-14.96974 a 15,15 0 0 1 5.88909,1.211304 l 3.46183,-3.464413 a 19.9,19.9 0 0 0 -3.441676,-1.4392 l 0.57878,-3.204996 -3.795662,-0.684718 -0.548291,3.035496 a 19.9,19.9 0 0 0 -2.34096,-0.146762 19.933,19.933 0 0 0 -1.600431,0.114723 z" />
    <path
       id="path31"
       d="M 22.671094,36.387589 A 13.234,13.234 0 0 0 9.437177,49.621505 13.234,13.234 0 0 0 22.671094,62.855421 13.234,13.234 0 0 0 35.90501,49.620472 13.2,13.2 0 0 0 35.044074,44.934418 l -1.791119,1.783884 h 10e-4 a 11,11 0 0 1 0.404113,2.903203 c 0,6.066994 -4.920015,10.988008 -10.987008,10.987008 -6.066994,-0.001 -10.985975,-4.920014 -10.985975,-10.987008 0,-6.066994 4.918981,-10.985974 10.985975,-10.985974 a 11,11 0 0 1 2.747656,0.369489 l 1.806621,-1.807655 A 13.2,13.2 0 0 0 22.67106,36.387589 Z"
       style="fill:#1c1c1c;fill-opacity:1" />
    <path
       id="path32"
       d="m 41.941379,23.010528 a 7.523,7.523 0 0 0 -7.524145,7.523111 7.523,7.523 0 0 0 0.345718,2.122884 l -9.889393,9.887842 a 7.523,7.523 0 0 0 -2.178177,-0.324014 h -10e-4 a 7.523,7.523 0 0 0 -7.522077,7.524145 7.5,7.5 0 0 0 0.393777,2.359047 l 3.533144,-3.371913 a 2.284,2.284 0 0 1 3.229801,0.07596 l 1.432998,1.501729 a 2.284,2.284 0 0 1 -0.07597,3.230318 l -3.453561,3.294913 a 7.5,7.5 0 0 0 2.462917,0.433052 7.523,7.523 0 0 0 7.522594,-7.523111 7.523,7.523 0 0 0 -0.381375,-2.353362 L 39.594735,37.633 a 7.523,7.523 0 0 0 2.346644,0.42375 7.523,7.523 0 0 0 7.522594,-7.523111 7.5,7.5 0 0 0 -0.377757,-2.345094 l -3.845789,3.670088 a 2.284,2.284 0 0 1 -3.229284,-0.07597 l -1.434032,-1.502245 a 2.284,2.284 0 0 1 0.07596,-3.228768 l 3.78636,-3.613243 a 7.5,7.5 0 0 0 -2.498057,-0.427884 z"
       style="fill:#1c1c1c;fill-opacity:1" />
  </g>
</svg>
