<?xml version="1.0" encoding="UTF-8" standalone="no"?>
<svg
   width="175.133"
   height="174.75"
   viewBox="0 0 46.337 46.236"
   version="1.1"
   id="svg8"
   sodipodi:docname="Logo_C_Light.svg"
   inkscape:version="1.3.2 (091e20e, 2023-11-25)"
   xmlns:inkscape="http://www.inkscape.org/namespaces/inkscape"
   xmlns:sodipodi="http://sodipodi.sourceforge.net/DTD/sodipodi-0.dtd"
   xmlns="http://www.w3.org/2000/svg"
   xmlns:svg="http://www.w3.org/2000/svg">
  <defs
     id="defs8" />
  <sodipodi:namedview
     id="namedview8"
     pagecolor="#ffffff"
     bordercolor="#000000"
     borderopacity="0.25"
     inkscape:showpageshadow="2"
     inkscape:pageopacity="0.0"
     inkscape:pagecheckerboard="0"
     inkscape:deskcolor="#d1d1d1"
     inkscape:zoom="2.3735009"
     inkscape:cx="117.75854"
     inkscape:cy="149.77875"
     inkscape:window-width="1680"
     inkscape:window-height="985"
     inkscape:window-x="0"
     inkscape:window-y="0"
     inkscape:window-maximized="1"
     inkscape:current-layer="svg8" />
  <path
     id="path1"
     style="fill:#025d03;fill-opacity:1"
     d="M 19.19817 3.5878995 L 15.703805 4.3470274 L 16.311004 7.1458267 A 18.47 18.47 0 0 0 12.921542 8.5069858 L 11.199164 6.0239299 L 8.2598049 8.0630846 L 9.9108692 10.439687 A 18.47 18.47 0 0 0 7.2577975 12.955816 L 4.7421854 11.336791 L 2.8079339 14.343847 L 5.2455145 15.910678 A 18.47 18.47 0 0 0 3.7696336 19.251564 L 0.81012036 18.716196 L 0.17501615 22.233815 L 3.0068885 22.744896 A 18.47 18.47 0 0 0 2.851859 24.910141 A 18.47 18.47 0 0 0 2.9577958 26.396357 L -0.00016719546 27.038179 L 0.75999415 30.532028 L 3.5582767 29.924829 A 18.47 18.47 0 0 0 4.9194358 33.314807 L 2.4368966 35.037185 L 4.4750179 37.974994 L 6.8516202 36.324964 A 18.47 18.47 0 0 0 9.3682659 38.977519 L 7.7497578 41.495198 L 10.75578 43.427899 L 12.323645 40.989802 A 18.47 18.47 0 0 0 15.662464 42.465166 L 15.129162 45.426746 L 18.647815 46.06185 L 19.158896 43.228428 A 18.47 18.47 0 0 0 21.324141 43.38294 A 18.47 18.47 0 0 0 22.817076 43.317828 L 23.451146 46.236 L 26.943961 45.476872 L 26.337279 42.684791 A 18.47 18.47 0 0 0 29.747411 41.346369 L 31.450152 43.79997 L 34.386928 41.761848 L 32.757568 39.414185 A 18.47 18.47 0 0 0 35.395653 36.872735 L 37.907131 38.486075 L 39.839832 35.480053 L 37.437392 33.934409 A 18.47 18.47 0 0 0 38.901904 30.576986 L 41.84023 31.107187 L 42.475851 27.588017 L 39.663615 27.081588 A 18.47 18.47 0 0 0 39.796941 24.911175 A 18.5 18.5 0 0 0 39.70754 23.425475 L 42.65 22.785203 L 41.889839 19.291872 L 39.072436 19.903205 A 18.5 18.5 0 0 0 37.759853 16.488938 L 37.753135 16.492039 L 37.493202 15.987159 L 37.491135 15.983542 L 37.434808 15.873988 L 37.43119 15.878122 L 37.281845 16.02695 L 34.207093 19.089817 A 13.9 13.9 0 0 1 35.38015 24.662094 C 35.38015 32.324086 29.170069 38.535168 21.507076 38.535168 C 13.844084 38.535168 7.6340025 32.324086 7.6340025 24.662094 C 7.6340025 17.000102 13.845084 10.790054 21.507076 10.790054 L 21.507076 10.78902 A 13.9 13.9 0 0 1 26.964632 11.910917 A 13.9 13.9 0 0 1 26.965148 11.910917 L 30.173226 8.7002559 A 18.5 18.5 0 0 0 26.982718 7.3675189 L 27.520154 4.3971536 L 24.002018 3.7620494 L 23.494555 6.5753181 A 18.5 18.5 0 0 0 21.323108 6.4378586 L 21.324141 6.4399257 A 18.47 18.47 0 0 0 19.841026 6.5458625 L 19.19817 3.5878995 z " />
  <path
     id="path4"
     d="M 21.507076 12.398226 A 12.26 12.26 0 0 0 9.2432087 24.662094 A 12.26 12.26 0 0 0 21.507076 36.925961 A 12.26 12.26 0 0 0 33.770944 24.662094 A 12.2 12.2 0 0 0 32.973059 20.320234 L 31.315793 21.970782 A 10.2 10.2 0 0 1 31.689931 24.662094 C 31.689931 30.285088 27.130071 34.843915 21.507076 34.843915 C 15.884082 34.843915 11.324255 30.285088 11.325255 24.662094 C 11.326255 19.0391 15.884082 14.479756 21.507076 14.479756 L 21.50811 14.480789 A 10.2 10.2 0 0 1 24.054728 14.823921 L 25.728013 13.149086 A 12.2 12.2 0 0 0 21.50811 12.398226 L 21.507076 12.398226 z "
     style="fill:#ffdd00;fill-opacity:1" />
  <path
     id="path6"
     d="M 39.363892 0 A 6.97 6.97 0 0 0 32.393248 6.9732272 A 6.97 6.97 0 0 0 32.712092 8.9369343 L 23.546231 18.102795 A 6.97 6.97 0 0 0 21.52878 17.804105 L 21.52878 17.803072 A 6.97 6.97 0 0 0 14.557103 24.775782 A 7 7 0 0 0 14.92194 26.962215 L 18.197196 23.83682 A 2.117 2.117 0 0 1 21.188749 23.9071 L 22.517869 25.299782 A 2.117 2.117 0 0 1 22.448105 28.291851 L 19.246746 31.345933 A 7 7 0 0 0 21.52878 31.747976 A 6.97 6.97 0 0 0 28.500974 24.775782 A 6.97 6.97 0 0 0 28.147507 22.594517 L 37.190378 13.551646 A 6.97 6.97 0 0 0 39.364925 13.943871 A 6.97 6.97 0 0 0 46.337119 6.9732272 A 7 7 0 0 0 45.986752 4.7991968 L 42.422107 8.2000274 A 2.117 2.117 0 0 1 39.430037 8.1297473 L 38.100918 6.7380991 A 2.117 2.117 0 0 1 38.171198 3.7449961 L 41.681066 0.39687554 A 7 7 0 0 0 39.364925 0 L 39.363892 0 z "
     style="fill:#353535;fill-opacity:1" />
</svg>
