<?xml version="1.0" encoding="UTF-8" standalone="no"?>
<svg
   width="46.335999mm"
   height="46.236mm"
   viewBox="0 0 46.335999 46.236"
   version="1.1"
   id="svg8"
   sodipodi:docname="Logo_BW_Light.svg"
   inkscape:version="1.3.2 (091e20e, 2023-11-25)"
   xmlns:inkscape="http://www.inkscape.org/namespaces/inkscape"
   xmlns:sodipodi="http://sodipodi.sourceforge.net/DTD/sodipodi-0.dtd"
   xmlns="http://www.w3.org/2000/svg"
   xmlns:svg="http://www.w3.org/2000/svg">
  <defs
     id="defs8" />
  <sodipodi:namedview
     id="namedview8"
     pagecolor="#ffffff"
     bordercolor="#000000"
     borderopacity="0.25"
     inkscape:showpageshadow="2"
     inkscape:pageopacity="0.0"
     inkscape:pagecheckerboard="0"
     inkscape:deskcolor="#d1d1d1"
     inkscape:document-units="mm"
     inkscape:zoom="1.8007315"
     inkscape:cx="43.31573"
     inkscape:cy="113.56496"
     inkscape:window-width="1680"
     inkscape:window-height="985"
     inkscape:window-x="0"
     inkscape:window-y="0"
     inkscape:window-maximized="1"
     inkscape:current-layer="svg8" />
  <path
     id="path4"
     d="M 23.600181,13.90921 A 12.26,12.26 0 0 0 11.335813,26.17306 12.26,12.26 0 0 0 23.600181,38.436911 12.26,12.26 0 0 0 35.864032,26.17306 12.2,12.2 0 0 0 35.066148,21.831207 l -1.658297,1.651578 a 10.2,10.2 0 0 1 0,5.17e-4 10.2,10.2 0 0 1 0.374137,2.690792 c 0,5.622994 -4.558813,10.181807 -10.181807,10.181807 -5.622995,0 -10.183324,-4.56188 -10.182324,-10.183874 10e-4,-5.621994 4.559329,-10.180257 10.182324,-10.180257 v 10e-4 a 10.2,10.2 0 0 1 2.546614,0.343132 l 1.674317,-1.675867 A 12.2,12.2 0 0 0 23.601214,13.90921 Z"
     style="display:inline;fill:#000000;fill-opacity:1"
     transform="translate(-2.094,-1.5109999)" />
  <path
     id="path6"
     d="m 41.456972,1.5109999 a 6.97,6.97 0 0 0 -6.971151,6.9732178 6.97,6.97 0 0 0 0.319361,1.9647383 l -9.165332,9.165332 a 6.97,6.97 0 0 0 -2.017965,-0.299207 v -10e-4 a 6.97,6.97 0 0 0 -6.971668,6.972701 7,7 0 0 0 0.364836,2.186429 l 3.274736,-3.12539 a 2.117,2.117 0 0 1 2.992065,0.07028 l 1.329118,1.39268 a 2.117,2.117 0 0 1 -0.06976,2.992065 l -3.201355,3.054077 a 7,7 0 0 0 2.282031,0.402043 6.97,6.97 0 0 0 6.972184,-6.972184 6.97,6.97 0 0 0 -0.353983,-2.181779 l 9.042342,-9.042342 a 6.97,6.97 0 0 0 2.175578,0.392224 6.97,6.97 0 0 0 6.972184,-6.9706343 7,7 0 0 0 -0.350366,-2.1740275 l -3.564641,3.400826 A 2.117,2.117 0 0 1 41.523118,9.641253 L 40.194,8.2490899 a 2.117,2.117 0 0 1 0.06976,-2.993099 l 3.51038,-3.348116 a 7,7 0 0 0 -2.316137,-0.396875 z"
     style="display:inline;fill:#000000;fill-opacity:1"
     transform="translate(-2.094,-1.5109999)" />
  <path
     id="path1"
     style="fill:#000000;fill-opacity:1"
     d="M 21.290244 5.0988946 L 17.796917 5.8580214 L 18.403599 8.6557834 A 18.47 18.47 0 0 0 15.014142 10.016941 L 13.291766 7.5349216 L 10.353961 9.5740736 L 12.003989 11.948606 A 18.47 18.47 0 0 0 9.3498879 14.466281 L 6.8347959 12.847776 L 4.9010638 15.854827 L 7.3381243 17.42114 A 18.47 18.47 0 0 0 5.8627622 20.762538 L 2.9022194 20.22717 L 2.267116 23.744785 L 5.0995013 24.256382 A 18.47 18.47 0 0 0 4.9449888 26.422141 A 18.47 18.47 0 0 0 5.0509255 27.907838 L 2.094 28.549143 L 2.8541603 32.042986 L 5.6514056 31.436305 A 18.47 18.47 0 0 0 7.0120461 34.825762 L 4.530027 36.548138 L 6.5681455 39.485943 L 8.9442279 37.835914 A 18.47 18.47 0 0 0 11.46087 40.488982 L 9.842881 43.006142 L 12.848899 44.93884 L 14.416245 42.50178 A 18.47 18.47 0 0 0 17.755576 43.976625 L 17.221759 46.938201 L 20.740924 47.572788 L 21.25097 44.740403 A 18.47 18.47 0 0 0 23.417246 44.894915 A 18.47 18.47 0 0 0 24.909662 44.829286 L 25.544248 47.746937 L 29.037058 46.987811 L 28.430894 44.196767 A 18.47 18.47 0 0 0 31.841021 42.85783 L 33.543243 45.309877 L 36.480015 43.271758 L 34.851174 40.925648 A 18.47 18.47 0 0 0 37.489256 38.383685 L 40.000213 39.997023 L 41.932912 36.991005 L 39.530991 35.445363 A 18.47 18.47 0 0 0 40.994985 32.087945 L 43.93279 32.618145 L 44.568927 29.09898 L 41.757212 28.592551 A 18.47 18.47 0 0 0 41.890021 26.423174 A 18.5 18.5 0 0 0 41.80062 24.935927 L 44.742043 24.296172 L 43.981882 20.802846 L 41.165 21.414178 A 18.5 18.5 0 0 0 39.852936 18.000949 L 39.846218 18.00405 L 39.527891 17.384966 L 39.374929 17.537929 L 39.374929 17.538445 L 36.300698 20.601308 A 13.9 13.9 0 0 1 37.473236 26.17306 C 37.473236 33.835046 31.263165 40.046115 23.600181 40.046115 C 15.937195 40.046115 9.7271258 33.836046 9.7271258 26.17306 C 9.7271258 18.510076 15.938195 12.300005 23.600181 12.300005 A 13.9 13.9 0 0 1 29.058246 13.420867 L 32.265802 10.211761 A 18.5 18.5 0 0 0 29.075299 8.8790256 L 29.61325 5.9081475 L 26.095119 5.2730442 L 25.58714 8.0873427 A 18.5 18.5 0 0 0 23.417246 7.9498834 L 23.416729 7.9498834 L 23.416213 7.9498834 A 18.47 18.47 0 0 0 21.933616 8.05582 L 21.290244 5.0988946 z "
     transform="translate(-2.094,-1.5109999)" />
</svg>
